<mxfile host="app.diagrams.net" agent="Mozilla/5.0 (Windows NT 10.0; Win64; x64) AppleWebKit/537.36 (KHTML, like Gecko) Chrome/136.0.0.0 Safari/537.36" version="27.1.4">
  <diagram name="Page-1" id="eCSR4U8l8wrRCa6OR5x0">
    <mxGraphModel dx="1717" dy="940" grid="1" gridSize="10" guides="1" tooltips="1" connect="1" arrows="1" fold="1" page="1" pageScale="1" pageWidth="1654" pageHeight="1169" math="0" shadow="0">
      <root>
        <mxCell id="0" />
        <mxCell id="1" parent="0" />
        <mxCell id="yK3yvu3M9NsNqcs9bBMU-77" value="" style="endArrow=none;html=1;rounded=0;exitX=0.909;exitY=0.571;exitDx=0;exitDy=0;exitPerimeter=0;strokeColor=#4abcad;strokeWidth=2;endSize=6;startSize=6;" parent="1" edge="1">
          <mxGeometry width="50" height="50" relative="1" as="geometry">
            <mxPoint x="1315" y="610" as="sourcePoint" />
            <mxPoint x="1415" y="610" as="targetPoint" />
          </mxGeometry>
        </mxCell>
        <mxCell id="yK3yvu3M9NsNqcs9bBMU-76" value="" style="endArrow=none;html=1;rounded=0;exitX=0.909;exitY=0.571;exitDx=0;exitDy=0;exitPerimeter=0;strokeColor=#4abcad;strokeWidth=2;endSize=6;startSize=6;" parent="1" source="yK3yvu3M9NsNqcs9bBMU-78" edge="1">
          <mxGeometry width="50" height="50" relative="1" as="geometry">
            <mxPoint x="1310.5" y="480.5" as="sourcePoint" />
            <mxPoint x="1410.5" y="480.5" as="targetPoint" />
          </mxGeometry>
        </mxCell>
        <mxCell id="yK3yvu3M9NsNqcs9bBMU-72" value="" style="endArrow=none;html=1;rounded=0;exitX=0.909;exitY=0.571;exitDx=0;exitDy=0;exitPerimeter=0;strokeColor=#4abcad;strokeWidth=2;endSize=6;startSize=6;" parent="1" edge="1">
          <mxGeometry width="50" height="50" relative="1" as="geometry">
            <mxPoint x="1210.5" y="666.5" as="sourcePoint" />
            <mxPoint x="1310.5" y="666.5" as="targetPoint" />
          </mxGeometry>
        </mxCell>
        <mxCell id="yK3yvu3M9NsNqcs9bBMU-71" value="" style="endArrow=none;html=1;rounded=0;exitX=0.909;exitY=0.571;exitDx=0;exitDy=0;exitPerimeter=0;strokeColor=#4abcad;strokeWidth=2;endSize=6;startSize=6;" parent="1" edge="1">
          <mxGeometry width="50" height="50" relative="1" as="geometry">
            <mxPoint x="1210.5" y="543.5" as="sourcePoint" />
            <mxPoint x="1310.5" y="543.5" as="targetPoint" />
          </mxGeometry>
        </mxCell>
        <mxCell id="yK3yvu3M9NsNqcs9bBMU-70" value="" style="endArrow=none;html=1;rounded=0;exitX=0.909;exitY=0.571;exitDx=0;exitDy=0;exitPerimeter=0;strokeColor=#4abcad;strokeWidth=2;endSize=6;startSize=6;" parent="1" source="yK3yvu3M9NsNqcs9bBMU-63" edge="1">
          <mxGeometry width="50" height="50" relative="1" as="geometry">
            <mxPoint x="1260.5" y="476" as="sourcePoint" />
            <mxPoint x="1310" y="426" as="targetPoint" />
          </mxGeometry>
        </mxCell>
        <UserObject label="&lt;font color=&quot;#ffffff&quot;&gt;&lt;span style=&quot;font-size: 20px;&quot;&gt;&lt;b&gt;MND Political Office Holders&lt;/b&gt;&lt;/span&gt;&lt;/font&gt;&lt;div&gt;&lt;font color=&quot;#ffffff&quot;&gt;&lt;span style=&quot;font-size: 20px;&quot;&gt;&lt;b&gt;&amp;amp;&lt;/b&gt;&lt;/span&gt;&lt;/font&gt;&lt;/div&gt;&lt;div&gt;&lt;font color=&quot;#ffffff&quot;&gt;&lt;span style=&quot;font-size: 20px;&quot;&gt;&lt;b&gt;Senior Management&lt;/b&gt;&lt;/span&gt;&lt;/font&gt;&lt;/div&gt;" link="https://gccprod.sharepoint.com/sites/MND-intranet/aboutmnd/OrgChart/TopManagement.pdf" linkTarget="_blank" id="yK3yvu3M9NsNqcs9bBMU-2">
          <mxCell style="rounded=1;whiteSpace=wrap;html=1;fillStyle=solid;fillColor=#262e7b;strokeColor=none;" parent="1" vertex="1">
            <mxGeometry x="660" y="40" width="320" height="100" as="geometry" />
          </mxCell>
        </UserObject>
        <mxCell id="yK3yvu3M9NsNqcs9bBMU-5" value="" style="endArrow=none;html=1;rounded=0;strokeColor=#262e7b;" parent="1" edge="1">
          <mxGeometry width="50" height="50" relative="1" as="geometry">
            <mxPoint x="820" y="200" as="sourcePoint" />
            <mxPoint x="820" y="140" as="targetPoint" />
          </mxGeometry>
        </mxCell>
        <mxCell id="yK3yvu3M9NsNqcs9bBMU-6" value="" style="endArrow=none;html=1;rounded=0;strokeColor=#262e7b;" parent="1" edge="1">
          <mxGeometry width="50" height="50" relative="1" as="geometry">
            <mxPoint x="820" y="200" as="sourcePoint" />
            <mxPoint x="1545" y="200" as="targetPoint" />
          </mxGeometry>
        </mxCell>
        <mxCell id="yK3yvu3M9NsNqcs9bBMU-8" value="" style="endArrow=none;html=1;rounded=0;strokeColor=#262e7b;" parent="1" edge="1">
          <mxGeometry width="50" height="50" relative="1" as="geometry">
            <mxPoint x="110" y="200" as="sourcePoint" />
            <mxPoint x="820" y="200" as="targetPoint" />
          </mxGeometry>
        </mxCell>
        <mxCell id="yK3yvu3M9NsNqcs9bBMU-7" value="" style="ellipse;whiteSpace=wrap;html=1;aspect=fixed;fillColor=#262e7b;strokeColor=none;" parent="1" vertex="1">
          <mxGeometry x="815" y="195" width="10" height="10" as="geometry" />
        </mxCell>
        <UserObject label="&lt;font color=&quot;#ffffff&quot; style=&quot;font-size: 20px;&quot;&gt;&lt;b&gt;SPD&lt;/b&gt;&lt;/font&gt;" link="https://gccprod.sharepoint.com/sites/MND-intranet/aboutmnd/OrgChart/spd.pdf" linkTarget="_blank" id="yK3yvu3M9NsNqcs9bBMU-18">
          <mxCell style="rounded=1;whiteSpace=wrap;html=1;fillColor=#4abcad;strokeColor=none;" parent="1" vertex="1">
            <mxGeometry x="56" y="240" width="105" height="110" as="geometry" />
          </mxCell>
        </UserObject>
        <UserObject label="&lt;font color=&quot;#ffffff&quot;&gt;&lt;span style=&quot;font-size: 20px;&quot;&gt;&lt;b&gt;Housing&lt;/b&gt;&lt;/span&gt;&lt;/font&gt;" link="https://gccprod.sharepoint.com/sites/MND-intranet/aboutmnd/OrgChart/hsg.pdf" linkTarget="_blank" id="yK3yvu3M9NsNqcs9bBMU-19">
          <mxCell style="rounded=1;whiteSpace=wrap;html=1;fillColor=#4abcad;strokeColor=none;" parent="1" vertex="1">
            <mxGeometry x="175" y="240" width="105" height="110" as="geometry" />
          </mxCell>
        </UserObject>
        <UserObject label="&lt;font color=&quot;#ffffff&quot;&gt;&lt;span style=&quot;font-size: 20px;&quot;&gt;&lt;b&gt;Infra&lt;/b&gt;&lt;/span&gt;&lt;/font&gt;" link="https://gccprod.sharepoint.com/sites/MND-intranet/aboutmnd/OrgChart/infra.pdf" linkTarget="_blank" id="yK3yvu3M9NsNqcs9bBMU-20">
          <mxCell style="rounded=1;whiteSpace=wrap;html=1;fillColor=#4abcad;strokeColor=none;" parent="1" vertex="1">
            <mxGeometry x="293" y="240" width="105" height="110" as="geometry" />
          </mxCell>
        </UserObject>
        <UserObject label="&lt;font color=&quot;#ffffff&quot;&gt;&lt;span style=&quot;font-size: 20px;&quot;&gt;&lt;b&gt;IIPO&lt;/b&gt;&lt;/span&gt;&lt;/font&gt;" link="https://gccprod.sharepoint.com/sites/MND-intranet/aboutmnd/OrgChart/iipo.pdf" linkTarget="_blank" id="yK3yvu3M9NsNqcs9bBMU-21">
          <mxCell style="rounded=1;whiteSpace=wrap;html=1;fillColor=#4abcad;strokeColor=none;" parent="1" vertex="1">
            <mxGeometry x="411" y="240" width="105" height="110" as="geometry" />
          </mxCell>
        </UserObject>
        <UserObject label="&lt;font color=&quot;#ffffff&quot;&gt;&lt;span style=&quot;font-size: 20px;&quot;&gt;&lt;b&gt;MSO&lt;/b&gt;&lt;/span&gt;&lt;/font&gt;" link="https://gccprod.sharepoint.com/sites/MND-intranet/aboutmnd/OrgChart/mso.pdf" linkTarget="_blank" id="yK3yvu3M9NsNqcs9bBMU-22">
          <mxCell style="rounded=1;whiteSpace=wrap;html=1;fillColor=#4abcad;strokeColor=none;" parent="1" vertex="1">
            <mxGeometry x="533" y="240" width="105" height="110" as="geometry" />
          </mxCell>
        </UserObject>
        <UserObject label="&lt;font color=&quot;#ffffff&quot;&gt;&lt;span style=&quot;font-size: 20px;&quot;&gt;&lt;b&gt;RSM&lt;/b&gt;&lt;/span&gt;&lt;/font&gt;" link="https://gccprod.sharepoint.com/sites/MND-intranet/aboutmnd/OrgChart/rsm.pdf" linkTarget="_blank" id="yK3yvu3M9NsNqcs9bBMU-23">
          <mxCell style="rounded=1;whiteSpace=wrap;html=1;fillColor=#4abcad;strokeColor=none;" parent="1" vertex="1">
            <mxGeometry x="653" y="240" width="105" height="110" as="geometry" />
          </mxCell>
        </UserObject>
        <UserObject label="&lt;font color=&quot;#ffffff&quot;&gt;&lt;span style=&quot;font-size: 20px;&quot;&gt;&lt;b&gt;R&amp;amp;D&lt;/b&gt;&lt;/span&gt;&lt;/font&gt;" link="https://gccprod.sharepoint.com/sites/MND-intranet/aboutmnd/OrgChart/rnd.pdf" id="yK3yvu3M9NsNqcs9bBMU-24">
          <mxCell style="rounded=1;whiteSpace=wrap;html=1;fillColor=#4abcad;strokeColor=none;" parent="1" vertex="1">
            <mxGeometry x="773" y="240" width="105" height="110" as="geometry" />
          </mxCell>
        </UserObject>
        <UserObject label="&lt;font color=&quot;#ffffff&quot;&gt;&lt;span style=&quot;font-size: 20px;&quot;&gt;&lt;b&gt;IAU&lt;/b&gt;&lt;/span&gt;&lt;/font&gt;" link="https://gccprod.sharepoint.com/sites/MND-intranet/aboutmnd/OrgChart/iau.pdf" linkTarget="_blank" id="yK3yvu3M9NsNqcs9bBMU-25">
          <mxCell style="rounded=1;whiteSpace=wrap;html=1;fillColor=#4abcad;strokeColor=none;" parent="1" vertex="1">
            <mxGeometry x="893" y="240" width="105" height="110" as="geometry" />
          </mxCell>
        </UserObject>
        <UserObject label="&lt;font color=&quot;#ffffff&quot;&gt;&lt;span style=&quot;font-size: 20px;&quot;&gt;&lt;b&gt;Legal&lt;/b&gt;&lt;/span&gt;&lt;/font&gt;" link="https://gccprod.sharepoint.com/sites/MND-intranet/aboutmnd/OrgChart/legal%20unit.pdf" id="yK3yvu3M9NsNqcs9bBMU-26">
          <mxCell style="rounded=1;whiteSpace=wrap;html=1;fillColor=#4abcad;strokeColor=none;" parent="1" vertex="1">
            <mxGeometry x="1013" y="240" width="105" height="110" as="geometry" />
          </mxCell>
        </UserObject>
        <UserObject label="&lt;font color=&quot;#ffffff&quot;&gt;&lt;span style=&quot;font-size: 20px;&quot;&gt;&lt;b&gt;SCED&lt;/b&gt;&lt;/span&gt;&lt;/font&gt;" link="https://gccprod.sharepoint.com/sites/MND-intranet/aboutmnd/OrgChart/sced.pdf" id="yK3yvu3M9NsNqcs9bBMU-27">
          <mxCell style="rounded=1;whiteSpace=wrap;html=1;fillColor=#4abcad;strokeColor=none;" parent="1" vertex="1">
            <mxGeometry x="1133" y="240" width="105" height="110" as="geometry" />
          </mxCell>
        </UserObject>
        <UserObject label="&lt;font color=&quot;#ffffff&quot;&gt;&lt;span style=&quot;font-size: 20px;&quot;&gt;&lt;b&gt;CDD&lt;/b&gt;&lt;/span&gt;&lt;/font&gt;" link="https://gccprod.sharepoint.com/sites/MND-intranet/aboutmnd/OrgChart/cdd.pdf" id="yK3yvu3M9NsNqcs9bBMU-28">
          <mxCell style="rounded=1;whiteSpace=wrap;html=1;fillColor=#4abcad;strokeColor=none;" parent="1" vertex="1">
            <mxGeometry x="1253" y="240" width="105" height="110" as="geometry" />
          </mxCell>
        </UserObject>
        <mxCell id="yK3yvu3M9NsNqcs9bBMU-31" value="" style="endArrow=none;html=1;rounded=0;strokeColor=#262e7b;" parent="1" edge="1">
          <mxGeometry width="50" height="50" relative="1" as="geometry">
            <mxPoint x="110" y="240" as="sourcePoint" />
            <mxPoint x="110" y="200" as="targetPoint" />
          </mxGeometry>
        </mxCell>
        <mxCell id="yK3yvu3M9NsNqcs9bBMU-32" value="" style="endArrow=none;html=1;rounded=0;strokeColor=#262e7b;" parent="1" edge="1">
          <mxGeometry width="50" height="50" relative="1" as="geometry">
            <mxPoint x="230" y="240" as="sourcePoint" />
            <mxPoint x="230" y="200" as="targetPoint" />
          </mxGeometry>
        </mxCell>
        <mxCell id="yK3yvu3M9NsNqcs9bBMU-14" value="" style="ellipse;whiteSpace=wrap;html=1;aspect=fixed;fillColor=#FFFFFF;strokeColor=#262e7b;" parent="1" vertex="1">
          <mxGeometry x="105" y="230" width="10" height="10" as="geometry" />
        </mxCell>
        <mxCell id="yK3yvu3M9NsNqcs9bBMU-13" value="" style="ellipse;whiteSpace=wrap;html=1;aspect=fixed;fillColor=#FFFFFF;strokeColor=#262e7b;" parent="1" vertex="1">
          <mxGeometry x="225" y="230" width="10" height="10" as="geometry" />
        </mxCell>
        <mxCell id="yK3yvu3M9NsNqcs9bBMU-37" value="" style="endArrow=none;html=1;rounded=0;strokeColor=#262e7b;" parent="1" edge="1">
          <mxGeometry width="50" height="50" relative="1" as="geometry">
            <mxPoint x="345" y="240" as="sourcePoint" />
            <mxPoint x="345" y="200" as="targetPoint" />
          </mxGeometry>
        </mxCell>
        <mxCell id="yK3yvu3M9NsNqcs9bBMU-38" value="" style="endArrow=none;html=1;rounded=0;strokeColor=#262e7b;" parent="1" edge="1">
          <mxGeometry width="50" height="50" relative="1" as="geometry">
            <mxPoint x="463" y="239" as="sourcePoint" />
            <mxPoint x="463" y="199" as="targetPoint" />
          </mxGeometry>
        </mxCell>
        <mxCell id="yK3yvu3M9NsNqcs9bBMU-39" value="" style="endArrow=none;html=1;rounded=0;strokeColor=#262e7b;" parent="1" edge="1">
          <mxGeometry width="50" height="50" relative="1" as="geometry">
            <mxPoint x="585" y="240" as="sourcePoint" />
            <mxPoint x="585" y="200" as="targetPoint" />
          </mxGeometry>
        </mxCell>
        <mxCell id="yK3yvu3M9NsNqcs9bBMU-40" value="" style="endArrow=none;html=1;rounded=0;strokeColor=#262e7b;" parent="1" edge="1">
          <mxGeometry width="50" height="50" relative="1" as="geometry">
            <mxPoint x="705" y="240" as="sourcePoint" />
            <mxPoint x="705" y="200" as="targetPoint" />
          </mxGeometry>
        </mxCell>
        <mxCell id="yK3yvu3M9NsNqcs9bBMU-41" value="" style="endArrow=none;html=1;rounded=0;strokeColor=#262e7b;" parent="1" edge="1">
          <mxGeometry width="50" height="50" relative="1" as="geometry">
            <mxPoint x="819.5" y="239" as="sourcePoint" />
            <mxPoint x="819.5" y="190" as="targetPoint" />
          </mxGeometry>
        </mxCell>
        <mxCell id="yK3yvu3M9NsNqcs9bBMU-12" value="" style="ellipse;whiteSpace=wrap;html=1;aspect=fixed;fillColor=#FFFFFF;strokeColor=#262e7b;" parent="1" vertex="1">
          <mxGeometry x="340" y="230" width="10" height="10" as="geometry" />
        </mxCell>
        <mxCell id="yK3yvu3M9NsNqcs9bBMU-11" value="" style="ellipse;whiteSpace=wrap;html=1;aspect=fixed;fillColor=#FFFFFF;strokeColor=#262e7b;" parent="1" vertex="1">
          <mxGeometry x="458" y="230" width="10" height="10" as="geometry" />
        </mxCell>
        <mxCell id="yK3yvu3M9NsNqcs9bBMU-42" value="" style="endArrow=none;html=1;rounded=0;strokeColor=#262e7b;" parent="1" edge="1">
          <mxGeometry width="50" height="50" relative="1" as="geometry">
            <mxPoint x="945" y="240" as="sourcePoint" />
            <mxPoint x="945" y="200" as="targetPoint" />
          </mxGeometry>
        </mxCell>
        <mxCell id="yK3yvu3M9NsNqcs9bBMU-10" value="" style="ellipse;whiteSpace=wrap;html=1;aspect=fixed;fillColor=#FFFFFF;strokeColor=#262e7b;" parent="1" vertex="1">
          <mxGeometry x="580" y="230" width="10" height="10" as="geometry" />
        </mxCell>
        <mxCell id="yK3yvu3M9NsNqcs9bBMU-9" value="" style="ellipse;whiteSpace=wrap;html=1;aspect=fixed;fillColor=#FFFFFF;strokeColor=#262e7b;" parent="1" vertex="1">
          <mxGeometry x="700" y="230" width="10" height="10" as="geometry" />
        </mxCell>
        <mxCell id="yK3yvu3M9NsNqcs9bBMU-17" value="" style="ellipse;whiteSpace=wrap;html=1;aspect=fixed;fillColor=#FFFFFF;strokeColor=#262e7b;" parent="1" vertex="1">
          <mxGeometry x="814" y="230" width="10" height="10" as="geometry" />
        </mxCell>
        <mxCell id="yK3yvu3M9NsNqcs9bBMU-47" value="" style="ellipse;whiteSpace=wrap;html=1;aspect=fixed;fillColor=#FFFFFF;strokeColor=#262e7b;" parent="1" vertex="1">
          <mxGeometry x="940" y="230" width="10" height="10" as="geometry" />
        </mxCell>
        <mxCell id="yK3yvu3M9NsNqcs9bBMU-49" value="" style="endArrow=none;html=1;rounded=0;strokeColor=#262e7b;" parent="1" edge="1">
          <mxGeometry width="50" height="50" relative="1" as="geometry">
            <mxPoint x="1065" y="240" as="sourcePoint" />
            <mxPoint x="1065" y="201" as="targetPoint" />
          </mxGeometry>
        </mxCell>
        <mxCell id="yK3yvu3M9NsNqcs9bBMU-46" value="" style="ellipse;whiteSpace=wrap;html=1;aspect=fixed;fillColor=#FFFFFF;strokeColor=#262e7b;" parent="1" vertex="1">
          <mxGeometry x="1060.5" y="230" width="10" height="10" as="geometry" />
        </mxCell>
        <mxCell id="yK3yvu3M9NsNqcs9bBMU-50" value="" style="endArrow=none;html=1;rounded=0;strokeColor=#262e7b;" parent="1" edge="1">
          <mxGeometry width="50" height="50" relative="1" as="geometry">
            <mxPoint x="1185" y="240" as="sourcePoint" />
            <mxPoint x="1185" y="200" as="targetPoint" />
          </mxGeometry>
        </mxCell>
        <mxCell id="yK3yvu3M9NsNqcs9bBMU-51" value="" style="endArrow=none;html=1;rounded=0;strokeColor=#262e7b;" parent="1" edge="1">
          <mxGeometry width="50" height="50" relative="1" as="geometry">
            <mxPoint x="1305" y="240" as="sourcePoint" />
            <mxPoint x="1305" y="200" as="targetPoint" />
          </mxGeometry>
        </mxCell>
        <mxCell id="yK3yvu3M9NsNqcs9bBMU-52" value="" style="endArrow=none;html=1;rounded=0;strokeColor=#262e7b;" parent="1" edge="1">
          <mxGeometry width="50" height="50" relative="1" as="geometry">
            <mxPoint x="1425" y="243" as="sourcePoint" />
            <mxPoint x="1425" y="200" as="targetPoint" />
          </mxGeometry>
        </mxCell>
        <mxCell id="yK3yvu3M9NsNqcs9bBMU-53" value="" style="endArrow=none;html=1;rounded=0;strokeColor=#262e7b;" parent="1" edge="1">
          <mxGeometry width="50" height="50" relative="1" as="geometry">
            <mxPoint x="1545" y="243" as="sourcePoint" />
            <mxPoint x="1545" y="200" as="targetPoint" />
          </mxGeometry>
        </mxCell>
        <UserObject label="&lt;font color=&quot;#ffffff&quot;&gt;&lt;span style=&quot;font-size: 20px;&quot;&gt;&lt;b&gt;IRCD&lt;/b&gt;&lt;/span&gt;&lt;/font&gt;" link="https://gccprod.sharepoint.com/sites/MND-intranet/aboutmnd/OrgChart/IRCD.pdf" linkTarget="_blank" id="yK3yvu3M9NsNqcs9bBMU-29">
          <mxCell style="rounded=1;whiteSpace=wrap;html=1;fillColor=#4abcad;strokeColor=none;" parent="1" vertex="1">
            <mxGeometry x="1373" y="240" width="105" height="110" as="geometry" />
          </mxCell>
        </UserObject>
        <UserObject label="&lt;font color=&quot;#ffffff&quot;&gt;&lt;span style=&quot;font-size: 20px;&quot;&gt;&lt;b&gt;CLC&lt;/b&gt;&lt;/span&gt;&lt;/font&gt;" link="https://gccprod.sharepoint.com/sites/MND-intranet/aboutmnd/OrgChart/clc.pdf" id="yK3yvu3M9NsNqcs9bBMU-30">
          <mxCell style="rounded=1;whiteSpace=wrap;html=1;fillColor=#4abcad;strokeColor=none;" parent="1" vertex="1">
            <mxGeometry x="1493" y="240" width="105" height="110" as="geometry" />
          </mxCell>
        </UserObject>
        <mxCell id="yK3yvu3M9NsNqcs9bBMU-45" value="" style="ellipse;whiteSpace=wrap;html=1;aspect=fixed;fillColor=#FFFFFF;strokeColor=#262e7b;" parent="1" vertex="1">
          <mxGeometry x="1180" y="230" width="10" height="10" as="geometry" />
        </mxCell>
        <mxCell id="yK3yvu3M9NsNqcs9bBMU-44" value="" style="ellipse;whiteSpace=wrap;html=1;aspect=fixed;fillColor=#FFFFFF;strokeColor=#262e7b;" parent="1" vertex="1">
          <mxGeometry x="1300.5" y="230" width="10" height="10" as="geometry" />
        </mxCell>
        <mxCell id="yK3yvu3M9NsNqcs9bBMU-16" value="" style="ellipse;whiteSpace=wrap;html=1;aspect=fixed;fillColor=#FFFFFF;strokeColor=#262e7b;" parent="1" vertex="1">
          <mxGeometry x="1420.5" y="230" width="10" height="10" as="geometry" />
        </mxCell>
        <mxCell id="yK3yvu3M9NsNqcs9bBMU-15" value="" style="ellipse;whiteSpace=wrap;html=1;aspect=fixed;fillColor=#FFFFFF;strokeColor=#262e7b;" parent="1" vertex="1">
          <mxGeometry x="1540" y="230" width="10" height="10" as="geometry" />
        </mxCell>
        <mxCell id="yK3yvu3M9NsNqcs9bBMU-56" value="" style="endArrow=none;html=1;rounded=0;strokeColor=#4abcad;strokeWidth=2;" parent="1" edge="1">
          <mxGeometry width="50" height="50" relative="1" as="geometry">
            <mxPoint x="1311" y="670" as="sourcePoint" />
            <mxPoint x="1310.5" y="350" as="targetPoint" />
          </mxGeometry>
        </mxCell>
        <mxCell id="yK3yvu3M9NsNqcs9bBMU-57" value="" style="ellipse;whiteSpace=wrap;html=1;aspect=fixed;fillColor=#4abcad;strokeColor=none;" parent="1" vertex="1">
          <mxGeometry x="1305" y="419" width="10" height="10" as="geometry" />
        </mxCell>
        <mxCell id="yK3yvu3M9NsNqcs9bBMU-59" value="" style="ellipse;whiteSpace=wrap;html=1;aspect=fixed;fillColor=#4abcad;strokeColor=none;" parent="1" vertex="1">
          <mxGeometry x="1305" y="476" width="10" height="10" as="geometry" />
        </mxCell>
        <mxCell id="yK3yvu3M9NsNqcs9bBMU-60" value="" style="ellipse;whiteSpace=wrap;html=1;aspect=fixed;fillColor=#4abcad;strokeColor=none;" parent="1" vertex="1">
          <mxGeometry x="1305" y="537" width="10" height="10" as="geometry" />
        </mxCell>
        <mxCell id="yK3yvu3M9NsNqcs9bBMU-61" value="" style="ellipse;whiteSpace=wrap;html=1;aspect=fixed;fillColor=#4abcad;strokeColor=none;" parent="1" vertex="1">
          <mxGeometry x="1305" y="604" width="10" height="10" as="geometry" />
        </mxCell>
        <mxCell id="yK3yvu3M9NsNqcs9bBMU-62" value="" style="ellipse;whiteSpace=wrap;html=1;aspect=fixed;fillColor=#4abcad;strokeColor=none;" parent="1" vertex="1">
          <mxGeometry x="1305" y="662" width="10" height="10" as="geometry" />
        </mxCell>
        <UserObject label="&lt;font color=&quot;#ffffff&quot; style=&quot;font-size: 20px;&quot;&gt;&lt;b&gt;HR&lt;/b&gt;&lt;/font&gt;" link="https://gccprod.sharepoint.com/sites/MND-intranet/aboutmnd/OrgChart/hr.pdf" id="yK3yvu3M9NsNqcs9bBMU-63">
          <mxCell style="rounded=1;whiteSpace=wrap;html=1;fillColor=#323942;strokeColor=none;" parent="1" vertex="1">
            <mxGeometry x="1110" y="394" width="110" height="56" as="geometry" />
          </mxCell>
        </UserObject>
        <UserObject label="&lt;font color=&quot;#ffffff&quot; style=&quot;font-size: 20px;&quot;&gt;&lt;b&gt;Finance&lt;/b&gt;&lt;/font&gt;" link="https://gccprod.sharepoint.com/sites/MND-intranet/aboutmnd/OrgChart/fin.pdf" id="yK3yvu3M9NsNqcs9bBMU-65">
          <mxCell style="rounded=1;whiteSpace=wrap;html=1;fillColor=#323942;strokeColor=none;" parent="1" vertex="1">
            <mxGeometry x="1400" y="453" width="110" height="56" as="geometry" />
          </mxCell>
        </UserObject>
        <UserObject label="&lt;font color=&quot;#ffffff&quot;&gt;&lt;span style=&quot;font-size: 20px;&quot;&gt;&lt;b&gt;CR&lt;/b&gt;&lt;/span&gt;&lt;/font&gt;" link="https://gccprod.sharepoint.com/sites/MND-intranet/aboutmnd/OrgChart/cr.pdf" id="yK3yvu3M9NsNqcs9bBMU-66">
          <mxCell style="rounded=1;whiteSpace=wrap;html=1;fillColor=#323942;strokeColor=none;" parent="1" vertex="1">
            <mxGeometry x="1110" y="516" width="110" height="56" as="geometry" />
          </mxCell>
        </UserObject>
        <UserObject label="&lt;font color=&quot;#ffffff&quot;&gt;&lt;span style=&quot;font-size: 20px;&quot;&gt;&lt;b&gt;DO&lt;/b&gt;&lt;/span&gt;&lt;/font&gt;" link="https://gccprod.sharepoint.com/sites/MND-intranet/aboutmnd/OrgChart/do.pdf" id="yK3yvu3M9NsNqcs9bBMU-68">
          <mxCell style="rounded=1;whiteSpace=wrap;html=1;fillColor=#323942;strokeColor=none;" parent="1" vertex="1">
            <mxGeometry x="1110" y="640" width="110" height="56" as="geometry" />
          </mxCell>
        </UserObject>
        <UserObject label="&lt;font color=&quot;#ffffff&quot;&gt;&lt;span style=&quot;font-size: 20px;&quot;&gt;&lt;b&gt;CISD&lt;/b&gt;&lt;/span&gt;&lt;/font&gt;" link="https://gccprod.sharepoint.com/sites/MND-intranet/aboutmnd/OrgChart/cisd.pdf" id="yK3yvu3M9NsNqcs9bBMU-69">
          <mxCell style="rounded=1;whiteSpace=wrap;html=1;fillColor=#323942;strokeColor=none;" parent="1" vertex="1">
            <mxGeometry x="1400" y="580" width="110" height="56" as="geometry" />
          </mxCell>
        </UserObject>
        <mxCell id="yK3yvu3M9NsNqcs9bBMU-73" value="" style="ellipse;whiteSpace=wrap;html=1;aspect=fixed;fillColor=#FFFFFF;strokeColor=#4abcad;strokeWidth=2;" parent="1" vertex="1">
          <mxGeometry x="1221" y="419" width="10" height="10" as="geometry" />
        </mxCell>
        <mxCell id="yK3yvu3M9NsNqcs9bBMU-74" value="" style="ellipse;whiteSpace=wrap;html=1;aspect=fixed;fillColor=#FFFFFF;strokeColor=#4abcad;strokeWidth=2;" parent="1" vertex="1">
          <mxGeometry x="1221" y="537" width="10" height="10" as="geometry" />
        </mxCell>
        <mxCell id="yK3yvu3M9NsNqcs9bBMU-75" value="" style="ellipse;whiteSpace=wrap;html=1;aspect=fixed;fillColor=#FFFFFF;strokeColor=#4abcad;strokeWidth=2;" parent="1" vertex="1">
          <mxGeometry x="1221" y="662" width="10" height="10" as="geometry" />
        </mxCell>
        <mxCell id="yK3yvu3M9NsNqcs9bBMU-79" value="" style="endArrow=none;html=1;rounded=0;exitX=0.909;exitY=0.571;exitDx=0;exitDy=0;exitPerimeter=0;strokeColor=#4abcad;strokeWidth=2;endSize=6;startSize=6;" parent="1" target="yK3yvu3M9NsNqcs9bBMU-78" edge="1">
          <mxGeometry width="50" height="50" relative="1" as="geometry">
            <mxPoint x="1310.5" y="480.5" as="sourcePoint" />
            <mxPoint x="1410.5" y="480.5" as="targetPoint" />
          </mxGeometry>
        </mxCell>
        <mxCell id="yK3yvu3M9NsNqcs9bBMU-78" value="" style="ellipse;whiteSpace=wrap;html=1;aspect=fixed;fillColor=#FFFFFF;strokeColor=#4abcad;strokeWidth=2;" parent="1" vertex="1">
          <mxGeometry x="1390" y="476" width="10" height="10" as="geometry" />
        </mxCell>
        <mxCell id="yK3yvu3M9NsNqcs9bBMU-80" value="" style="ellipse;whiteSpace=wrap;html=1;aspect=fixed;fillColor=#FFFFFF;strokeColor=#4abcad;strokeWidth=2;" parent="1" vertex="1">
          <mxGeometry x="1390" y="604" width="10" height="10" as="geometry" />
        </mxCell>
        <mxCell id="ILTGBirdJzd5n2reMcgB-1" value="" style="shape=image;verticalLabelPosition=bottom;labelBackgroundColor=default;verticalAlign=top;aspect=fixed;imageAspect=0;image=data:image/png,iVBORw0KGgoAAAANSUhEUgAABlEAAAEyCAIAAADlT2FiAAAgAElEQVR4AezdiV8UR94/8N9f4ybZXUOMYWfVJQFDlAcVDSoERVEi8cKLeCCXAhEPPFDwwAsjKiAKCAFFUVSQQ0REQAS55JZjuI9hpvun+Wbrqad7phkFlcFPXrzyamd6qqve1V1d/e3q6v8n4j8IQAACEIAABCAAAQhAAAIQgAAEIAABCIwvgf83voqD0kAAAhCAAAQgAAEIQAACEIAABCAAAQhAQETMCzsBBCAAAQhAAAIQgAAEIAABCEAAAhCAwHgTQMxrvNUoygMBCEAAAhCAAAQgAAEIQAACEIAABCCgFPPSanXFJQ179qfYLQydNCVgwkQvk/j73MzH4vs97psu3rlX2tbWgzqGAAQgAAEIQAACEIAABCAAAQhAAAIQ+NQElGJeGQ/K/YMSZ9sf+ZfFb3+f5GsSAa8JE73+NtHrS/MdljODXVdGXPujoKm581OrVJQXAhCAAAQgAAEIQAACEIAABCAAAQh84gIGY17t7T3Bh258+8NeUwl16c3npq3R9zLKPvE6RvEhAAEIQAACEIAABCAAAQhAAAIQgMCnJmAw5pWdW7FizTm9gaSRf/i3L70/M/P+/CufLyb5fP6Vz9++9B55mnpT+PaHvYfDbn1qlYryQgACEIAABCAAAQhAAAIQgAAEIACBT1zAYMzr0uXcn5aG6w0kjfzDr/7t/+0Pe/9nXsic+aE2c0P+9e2ukaepN4W/T/L1DUgYGtJ94tWM4kMAAhCAAAQgAAEIQAACEIAABCAAgU9KwGDM6+TZe/ZOR/UGkt75w69UO2fbH/bxjz919v7lq3kJSQWJyU/iEx//fuHBnv0pK93PW1jv/WKSzzunr/eHW71j+/o1n1SlorAQgAAEIAABCEAAAhCAAAQgAAEIQOATFzAY8zpx+q79T6MW8/rMzHva93uW/XI29Pjt4pL63t5B3n1gcKi+QX3jVpGvf/ycBUfM/rVzFJ923Ox1uau7n98cliEAAQhAAAIQgAAEIAABCEAAAhCAAATGt8AHinl9pfLf5nMlO7dyUDOkANrW3nMxOud/5oaM4msiEfNSAMdXEIAABCAAAQhAAAIQgAAEIAABCEBgXAp8iJiXlU2wX2DC4ycvOzv7BEFQcNRotLV17VcTHs2Yc+if3/jpfVbxbT9EzEsBHF9BAAIQgAAEIAABCEAAAhCAAAQgAIFxKfDeY15f/dt/1frI3EdVvX3/+zxjb+9gzcu2R49rHmS/KC6pb23rZrhDQ7qXtW3Bh278MOvA24a39K6PmBezxQIEIAABCEAAAhCAAAQgAAEIQAACEPhEBN57zMv2x5Djp9LZ8C6NRtuu7s3OrTh7PnNH4DWPbTHBh278cb3wZW0be7tif7+m+FnDqnXn/zF5FIZ6Ieb1iezKKCYEIAABCEAAAhCAAAQgAAEIQAACEGAC7z3mtdU7NudhJdteW3vPrTslCxYdM1Pt/PvXvl9M8vnH134/zD4YEJSo7ujTanW0pk4nHDxyc7rNfr1Dt97qQ8S8GD4WIAABCEAAAhCAAAQgAAEIQAACEIDAJyLwHmNef5vo9dmX3kdP3Glq7iTNgQFNZvYLZ9dT30wL5N/MONF8x5wFR85deFBXr2buVxPyl/x8+q3CW3pXRsyLkWIBAhCAAAQgAAEIQAACEIAABCAAAQh8IgLvM+b1pfeX5jtiYh8ODmpJs6Gx49yFBxPNd3xm5i2JT309NcDF7UzBk5fM/X5m2aat0ZLV3uGfiHkxUixAAAIQgAAEIAABCEAAAhCAAAQgAIFPROA9xrw+M/P+5j+BEZGZL2vb6O/m7RJP36t641ZfTPIx/89v9zLKmHt+QY33zji9K7/Vh4h5MVIsQAACEIAABCAAAQhAAAIQgAAEIACBT0TgPca8/val90TzHbPnH1m+8iz9zV907Nsf9umNWH1m5j3xmx3p954z9ydPa3f8lqB35bf6cOQxL61Wl5pWvHFL9DafK4+fvGTz8bOs0kJTc+fu4BT3TRf1/m3aGp1+77lOJ/C/0umEl7VtMVcebtgcZTsv5HMzny8m+drOC1n366VzFx48K23UaP4aItfXNxhxPnPdr5f0Jr7+16gLUdkDA0OCIBQV13v6Xln366VjJ9M7O/v4zdGyRqONT3y8YXNUQFDiy9o2+lCe/vpfo/wCE06euZd8o7CktGFwcEieFD6BAAQgAAEIQAACEIAABCAAAQhAAAJjU+A9xrwmTPT6zMz7K9VO8//8Rn+TpgQYehXjRPMd/zM3JDv3f2e7HzvPNg4NaSPOZ06Y6PX1lIA790oNxbyqa1p//OmoQjwu6nKuVvfXJP2iKKrVvYdCb35u5qPwk4jzmUNDb8JenV39W71jFdb0C0zo6xsUBOH+g/LJ0wInTPT65zd+sXGP2GsB2P43MDB0+GjahIleNnMPPS9ros+HTd/Z9XTOw0o+/yxBLEAAAhCAAAQgAAEIQAACEIAABCAAgbEm8H5jXgoxGv6rz8y8v5uxb9feP15UvGJA0bG5Ti7h/GrvtjzycV6jFfOKjn3IYkb1DeoNm6P4En1u5jPf6diCRcf++Y0ffW4960BRcT2BDBuTkse8Jkz0slsQWvq8kZHSgnLM63Mzn6Urzrhvuui25vcpVkF8Dr/6t/+ly7kY8CXxxD8hAAEIQAACEIAABCAAAQhAAAIQGIMCYyLm9c20wBVrzhWV1PX0DoqiKAjCwIBm9/6U/1jv4WMu77b84WNeG7dEd3ToeaiQVX9nZ992v7/mNft6SkDYiTvlFc0DA389PCgIQktLd8aD8lu3S/r6NfQrFvOaPf8IHxlkadKCIAgZ/x3nRVx+AQmdXf38asoxLz59QRDa1b33M8vc1vxOqU2eFnjjVjGL3PHJYhkCEIAABCAAAQhAAAIQgAAEIAABCIwdgY8f8/r7JN8Nm6Oycir6+gZpuqve3sG8R9XLV579YpLSc39GhsDGWsxLEIS795+bW/w2YaLXtz/svf+g3JgQkvExL/ZsI/l89W//pJQn/BOOxse82G7a2dkXtC+ZElz+y9mGxg72FRYgAAEIQAACEIAABCAAAQhAAAIQgMAYFPiYMa+/fen9+Vc+azdeTL7xtOO/s63392tKShu2+1799oe9Rka1lFcbazGvzq5+ennl65m8Lsbk0HRdw+4Zxse8aJzXF5N812y48PWUgAkTvRYsOlZR+b8Pjb5DzEsUxZe1bYuXn5ow0etL8x3XbxZJJuMfNv9YAQIQgAAEIAABCEAAAhCAAAQgAAEIfEiBjxnz+npqwMLFx/9IKWx+1UVlHhjQFD9rOBZ+Z9r0PX+f5KsczDLy27EW8yp70TzL/vCEiV5OLidr69qNrOy3jXl9ab4jNi5v78HrpBS0L7mnZ+C/yEpz2PPPNvJ5GxrSXojKptRCwm6xJzH5dbAMAQhAAAIQgAAEIAABCEAAAhCAAATGiMBHi3l9/pXP3IVhyTcKW1u7yUIQhNq69tDjt1Xf7vrMzNvIkNawq334mNcs+8Onz92/GJ3D//1xvbCzq59/r6KPfzyLQw27N7CYl7nFb4dCb/EpX4zOiY17VFf/JnzG0v/nN35JKU8qq1qcXE5OmOg1eVrgzbQSGpz1buO8BEHIeVhJs9pv87kimSNs2PxjBQhAAAIQgAAEIAABCEAAAhCAAAQg8CEFPlrMy25haNiJO+qO3qEhnSiKGo32VUv3nv0pM+0Ojco0XiwW9uFjXmzT/MKCRcde1rbpdEJSyhN6M2PYiTv8OxB7ewdvppVcjOEiZTE5d+6V9g+8mcaexbz4NNmyucVvWTkVwp//sWcbryUVaDTaG7eK6QlHJ5eTNS/bRFF8t5iXKIolpQ0/zD44YaKX+6aL7ereD7mbYlsQgAAEIAABCEAAAhCAAAQgAAEIQOCtBD5OzOsfk/28dsQVFtVRXgVBqG9QHw2/M2dB6D8m+7FQzqgsjLWY17Wkgi/+fGzzVMR9jUbLaqulpXvFmnOSIm/YHKX+M7o0bMwrO/evmBfNYf/FJN+EpMc6ndDTM7Br3x+U7KHQm319g+8c8yorb7KdFzJhoteq9ZGtbT0s51iAAAQgAAEIQAACEIAABCAAAQhAAAJjTeAjxLz+9qX3tz/s/f1i1uDgXxGf7u6Bu/ef/zD7AA2AksR9RvjPDx/zWrriTM7DyqKSev6vovLV4OCQIAg300q++rf/hIleh4+m8bNiGRnzsrIJvn6ziE+5qKS+9Hlj95/TdQmCwMZ5UcxLFMUXFa/mOx2bMNHr39/tunv/eV+/5vDRtAkTvWzmHnpe1kR7JIupGZrPSxTFwqK672bsmzDRy8MzpvO/7xwYazs08gMBCEAAAhCAAAQgAAEIQAACEIAABERR/Agxr8+/8lm+MuLWnWesAkqeNQQfuvGPr0dn0npJjOzDx7w2bonu6OhjpeMXBEF49Lh62vTdEyZ6bfGK5WfF0mi0VdUtxc8aikrqb90uoacI5eO8FGJSNJ+XPOal1eoSk59QoG35L2crq1reIeYlCELanWeUyL5DN+iJS75oWIYABCAAAQhAAAIQgAAEIAABCEAAAmNH4CPEvP7+te/m7ZezcyuZQvr956vWRY7uNF4s8jWmYl6iKNa8bFuw6M2oq7kLQ19UvGII/ELNyzYambVhcxSFz4wZh8XPYc+ebaRkXwfX/AITyOTgkZv7Q1LfdpxX/4Dm4JGbEyZ6fTHJ90r8I63uzSxs+A8CEIAABCAAAQhAAAIQgAAEIAABCIxNgY8Q8/rH137+QYkFT14ykaTkJ/Odjn3+lQ8LVI3iwliLefX0DOz47RoVMPT47b7+N1PUS/4bScyLjfO6llRAL2qkxEufN86ef2TCRK8vzXfMtDv0VjEvQRAePqr69oe9EyZ6fW+7/+l/J2KTZBv/hAAEIAABCEAAAhCAAAQgAAEIQAACY0TgI8S8/j7J18c//s7d0rp6Nf2djrhvPevAZ2beoxjqYkmNtZiXIAhZORVTrIImTPT6ekrAlfhH/Nsbabd4HzEvrVYXG/eInzHNyPm8BEF4WlTn4HyCSA+F3tIbpxsjOzSyAQEIQAACEIAABCAAAQhAAAIQgAAEPs58Xp+Zec9zCNu4NTpwTxL9LXU78/XUgL99OdZjXv/8xu9c5APJ/PHFzxpofvrqmtYffzo6YaKX3jnsS0obWlq6BUEQRbGvb5Bm1KIo0kr389eSCtg89PT8I3u2UfLeRr1z2Bc/a6ita9fqdPwc9pJxXqIoqtW9nr5XWDRQb8yLT7+wqO7GrWK/wIQvzXfQr9b/GtX8qgtHDgQgAAEIQAACEIAABCAAAQhAAAIQGOMCH2Gc15vxTVMD/vP9HiubYPozt/jtPU3mNWGi1yiO82LRIsmCk8vJhsYOFvOSfMv+GR37kE2D1dLS7eMfz74ytCCfz8vQmn6BCX19g4Ig3H9QPnlaoGQ+L9oLBUEoKq63mfvmwUZDzzYaSn/CRK+AoMRXLQh4jfEjGtmDAAQgAAEIQAACEIAABCAAAQhA4I3Ax4l5KQRWRv2rsRnzotFeSSlPZtkfVijy3oPXu3sGRFFkc9gbWpnFvAzN50X7+9CQ9mJ0zudmb6ZO0zvOS57+P7/x2+539fGTl1ot5q1HqwEBCEAAAhCAAAQgAAEIQAACEICAaQgg5jV8Pel0QmFRXdTl3IvROXr+YnKupxZ19wx0dPQlpTzRs8Kfv4qOfVhS2kDPNvKbHBwcKiqpv3Q5N2hf8qat0et/jfILTDgX+eB+Ztmrli62/uDg0L2Msosx+jIQnXMxJicz64VGoxVF8WVtW2zco5grD8teNLOf81vs7OpPufH0YkzOtaSC1rYe+kqafkxObFze7bulpc8b+/oG+Z9jGQIQgAAEIAABCEAAAhCAAAQgAAEIjH0BxLzGfh0hhxCAAAQgAAEIQAACEIAABCAAAQhAAAJvJ/ARYl5fTPL5edW5I8fSrsQ/or9tPldU3+0as3PYv50o1oYABCAAAQhAAAIQgAAEIAABCEAAAhD42AIfIeb1j6999x64XlRSz8oefeXh97b7EfNiIFiAAAQgAAEIQAACEIAABCAAAQhAAAIQGIkAYl4j0cNvIQABCEAAAhCAAAQgAAEIQAACEIAABMaiAGJeY7FWkCcIQAACEIAABCAAAQhAAAIQgAAEIACBkQh8hJjX3yf5+gbEp9973tjUSX8nz96znLnvPT3buMUrtqdnYCRG+C0EIAABCEAAAhCAAAQgAAEIQAACEICAaQkYjHmdPZ+5YNHxCRO9Rv3v8698lrieDgpOjjifSX8bNkf9y+K39xHz+vwrn+1+VwcGhkyrVpBbCEAAAhCAAAQgAAEIQAACEIAABCAAgZEIGIx5xSc+dnY9NeoBrw+c4KQp/rv2JY8ECL+FAAQgAAEIQAACEIAABCAAAQhAAAIQMDkBgzGvmpdtnr5XzFQ7P3CUanQ35+RyMjbukcnVCjIMAQhAAAIQgAAEIAABCEAAAhCAAAQgMBIBgzGvgYGhuGv5K9b8PtF8x9++HP0nHEc3tiVP7e9f+1rZBB8Nv/O8rGkkQPgtBCAAAQhAAAIQgAAEIAABCEAAAhCAgMkJGIx5iaJY36C+mvDIdWXE7PlHrGyC/2O9Z9r03e/wN9Vqt+q7XV9M8vmbEbODfTHJ5yvVzimWQe+wIfrJdzP2zZxz0HFp+G97/igsqtVqdSZXK8gwBCAAAQhAAAIQgAAEIAABCEAAAhCAwEgElGJeoigODAw1NnakphUfO5nuH5TovTPuHf62+139c5b6XZ996S0fkCX55JtpgT86Ht3mc+UdNkQ/OXAk9fLVvMdPXg4MDAmCMBId/BYCEIAABCAAAQhAAAIQgAAEIAABCEDAFAWGiXkJgqDRaNvael7WtldUviorb3qnv+anxfWnIzIWLjquHPaaarV7u+/VB1kvSssa32lDb7JXXdPa1NzZ3d2PgJcp7pHIMwQgAAEIQAACEIAABCAAAQhAAAIQGLnAMDGvkW+AUtBqdVXVreGn71LYS/6Q4xeTfP717W9efnF375cNDGhGa7tIBwIQgAAEIAABCEAAAhCAAAQgAAEIQOATFPhAMS+SraxqOXMuY7rN/n9+s4MPe30xyWfa9N1rNlzIfVg1MDD0CVYDigwBCEAAAhCAAAQgAAEIQAACEIAABCAwigIfNOal1epe1rZHXX5obXuAf8hR9e0u900XKytb+vowwmsUKxdJQQACEIAABCAAAQhAAAIQgAAEIACBT1Tgg8a8aFL82tr2U2fvs7m9ploFee2Iy8qp6O/XYAauT3Q3RLEhAAEIQAACEIAABCAAAQhAAAIQgMCoCnzomJcoijqdUFnZcvxk+sLFx1Xf7fL0vZJ+/zkeaRzVakViEIAABCAAAQhAAAIQgAAEIAABCEDgkxb4CDEv8i4rbz5zLmO+07HsnMr+fjzS+EnvhSg8BCAAAQhAAAIQgAAEIAABCEAAAhAYXYGPFvMa3WIgNQhAAAIQgAAEIAABCEAAAhCAAAQgAAEIMAHEvBgFFiAAAQhAAAIQgAAEIAABCEAAAhCAAATGiQBiXuOkIlEMCEAAAhCAAAQgAAEIQAACEIAABCAAASaAmBejwAIEIAABCEAAAhCAAAQgAAEIQAACEIDAOBFAzGucVCSKAQEIQAACEIAABCAAAQhAAAIQgAAEIMAEEPNiFFiAAAQgAAEIQAACEIAABCAAAQhAAAIQGCcCiHmNk4pEMSAAAQhAAAIQgAAEIAABCEAAAhCAAASYgMGY183bd/F38/bdCRO98KdXALsHBCAAAQhAAAIQgAAEIAABCEAAAhAYswKIeQ0T2tMb7sGHEyZ6jdl9GhmDAAQgAAEIQAACEIAABCAAAQhAAAKIeSHm9Y4D2XDwQAACEIAABCAAAQhAAAIQgAAEIACBMSuAmBdiXoh5DbMPjNmjFxmDAAQgAAEIQAACEIAABCAAAQhAwJAAYl7DxDvwGKMhAUO7FD6HAAQgAAEIQAACEIAABCAAAQhAAAIfXQAxL8S8MM5rmH3gox+lyAAEIAABCEAAAhCAAAQgAAEIQAACbyuAmNcw8Q5Do5zw+dvualgfAhCAAAQgAAEIQAACEIAABCAAAQh8MAHEvBDzwjivYfaBD3Y0YkMQgAAEIAABCEAAAhCAAAQgAAEIjJaAwZiXiP8gAAEIQAACEIAABCAAAQhAAAIQgAAEIGCaAoh5mWa9IdcQgAAEIAABCEAAAhCAAAQgAAEIQAAChgUQ8zJsg28gAAEIQAACEIAABCAAAQhAAAIQgAAETFMAMS/TrDfkGgIQgAAEIAABCEAAAhCAAAQgAAEIQMCwAGJehm3wDQQgAAEIQAACEIAABCAAAQhAAAIQgIBpCiDmZZr1hlxDAAIQgAAEIAABCEAAAhCAAAQgAAEIGBZAzMuwDb6BAAQgAAEIQAACEIAABCAAAQhAAAIQME0BxLxMs96QawhAAAIQgAAEIAABCEAAAhCAAAQgAAHDAoh5GbbBNxCAAAQgAAEIQAACEIAABCAAAQhAAAKmKYCYl2nWG3INAQhAAAIQgAAEIAABCEAAAhCAAAQgYFgAMS/DNvgGAhCAAAQgAAEIQAACEIAABCAAAQhAwDQFEPMyzXpDriEAAQhAAAIQgAAEIAABCEAAAhCAAAQMCyDmZdgG30AAAhCAAAQgAAEIQAACEIAABCAAAQiYpgBiXqZZb8g1BCAAAQhAAAIQgAAEIAABCEAAAhCAgGEBxLwM2+AbCEAAAhCAAAQgAAEIQAACEIAABCAAAdMUQMzLNOsNuYYABCAAAQhAAAIQgAAEIAABCEAAAhAwLICYl2EbfAMBCEAAAhCAAAQgAAEIQAACEIAABCBgmgKIeZlmvSHXEIAABCAAAQhAAAIQgAAEIAABCEAAAoYFEPMybINvIAABCEAAAhCAAAQgAAEIQAACEIAABExTADEv06w35BoCEIAABCAAAQhAAAIQgAAEIAABCEDAsABiXoZt8A0EIAABCEAAAhCAAAQgAAEIQAACEICAaQog5mWa9YZcQwACEIAABCAAAQhAAAIQgAAEIAABCBgWQMzLsA2+gQAEIAABCEAAAhCAAAQgAAEIQAACEDBNAcS8TLPekGsIQAACEIAABCAAAQhAAAIQgAAEIAABwwKIeRm2wTcQgAAEIAABCEAAAhCAAAQgAAEIQAACpimAmJdp1htyDQEIQAACEIAABCAAAQhAAAIQgAAEIGBYADEvwzb4BgIQgAAEIAABCEAAAhCAAAQgAAEIQMA0BRDzMs16Q64hAAEIQAACEIAABCAAAQhAAAIQgAAEDAsg5mXYBt9AAAIQgAAEIAABCEAAAhCAAAQgAAEImKYAYl6mWW/INQQgAAEIQAACEIAABCAAAQhAAAIQgIBhAcS8DNvgGwhAAAIQgAAEIAABCEAAAhCAAAQgAAHTFEDMyzTrDbmGAAQgAAEIQAACEIAABCAAAQhAAAIQMCyAmJdhG3wDAQhAAAIQgAAEIAABCEAAAhCAAAQgYJoCiHmZZr0h1xCAAAQgAAEIQAACEIAABCAAAQhAAAKGBRDzMmyDbyAAAQhAAAIQgAAEIAABCEAAAhCAAARMUwAxL9OsN+QaAhCAAAQgAAEIQAACEIAABCAAAQhAwLAAYl6GbUz/m/OXLgfs3t/fPzCKRQkJC/f0DRzdNPVmr7u7x2Obb1JKqt5v3/eHxm/dSGQjV3vf5UL6EBgHApVV1TZzHfPyC8ZBWVAECEAAAuNVIC4x2dl1tVrdMV4LOGy5GhqbVqzZOOzZysg+p5GpDZsrrAABCIxjATQUeivXZGJeQ0NDefkF2/1++3aG3VQr29Xrt5w5d7Hk2XOtVtvd3XP63IXN23ds3r5jq0/AngNHIqNinzwt1miGRFEUBOHxk6c+/rs9PP02b9+xzSfg8NGTyTduvaio0mq1elEUPuzr6z9/6bLdQmczlaW5xYzlK9ddirna09Or8JOP+FVEZNRWn4Devj7j89DfP+DpG2imsqQ/C+s5m7b65Dx8pNMJlMiHjHm5e3hejrtmfOaNXDMvv4AVkOpx1frN6fcfDGo0LIXu7h4jt24kspGrsQxgYdwISJog751Bh4+eTEhKqa6p1el0VExj2rcDR469ammVsGg0Q/GJKVu8dgbuPlBZVS351tA/KWbEjoLptvZbvf1LSssE4a/D3NAPx8jn7xDzqqqu8fD0M7eYYWE9Z9/B0I6OTuWy6HTCg+yHK9ZsnDzN2kxlOddhafChsOqaWuVfjf1vQ8LCzVSW+0OO6j393UxLN1NZfuLXqGO/Ej9KDgc1mrz8gv2HjzkucTNTWc6yX+S9MygpOfVVS2tdfcOeA0c8PP08PP22eO3cc+DI1YSkwqfFkntjRq426qUb1GjS7z9YtX6zucUMM5XldFt7j22+mdm5eg+BUd/6WEjQmD7Pe8rn+I55UXPKn0kDdu8vr6jkz6T1DY0/ufzyIPuhsrCRfU4jU1Pe1if4rU4nlL2oOBURuWLNRnOLGVY289b/uv1CVGxlVXVnZzddQnp4+m319t+179DZ85eycvJG98qur68/PjFlyc9rqEdh+6PTjsC9hU+LP5264A+WydOsf3L55fyly319/Z+OACtpa1t7WPiZ6bb2ZipLC+s5q9dvSUpJ5a9A2ZrvvICGQi+dacS8BgcHL0TFUkvBzi5mKstjJyMGBwfV6g4PTz/+c1o+FHqis6tLEITbd+9PtbKVr7DOY/uTp8XsslMvEP9hb1+f986g2fMXJyWnZufmZWbnHj8VsSNwb0/vm5hXT2+vj/9u4y87+ZT55QtRsXGJyfwnH3KZYl57DhxRqzteVFTdy8jyDdij+m5mfGIKncU/WMzr/ZU6L79gpp3Dk6fFanVHcUnpvYysfQdDLaznrFq/uUUWU3h/2UDKn4iAoSbI3GJGbFyiRjOk3F9vzE8AACAASURBVL61q9XUvqm+m3nrzj0WfSa92rr6pSvWmqksf5i9wPj+E8WMzl+6nJ2bl52bl5Z+393D08J6Ts7DRyZRKW8b82ptbVu+cn3gngN19Q0FhUWLl68yFPSh4guCEJ+YMtXKNiz8DBFdTUha57H9edkLWuFeRlZIWPgIrUYlkbfNQ0hY+NIVa+2dltXVN0h+O6jR7AjcO8/RBTEvXma0zux8mia33NHRuT/kqLwTNXv+4pLSsvKKynmOLvJvFyxyvZmWPjg4SOU1crXRxWlpaV21frOF9ZyQsPDM7Nzs3LzrN297+gampqWP7obed2oj6Rl+xD6PSce8ml+1bN6+Q2GQWkhYuIenX2NTc0tLa15+wfWbt909PFXfzTxx+tynE1F933v+yNMfHBy8Ep807ftZkjZK9d3M66lpbW3tei8h3dZuqq2rH/nWRVGsqKy2d1o2087hzLmL1KOIT0zZtNXniUnFvEZ4KgwJC1+xZuO9jCwSOBUROd3W3ntn0FsNyxiV6vi4ibS0tLqu2rB85bpbt+9m5+bdy8gKPhQWEhY+khZjhFXzcUE+5NZNI+b1oqLK3mnZD7MX3Lmb0dXd3dHZVVxSev3m7bIXFYIg0DWhlc281wPBNJqh2rqGxOQbs+wXqb6beePWHa1WRzEv/6Dgnt5erVbb2taenZvntnaTmcpywSJX40c35BcUWs+aX1RSqreGnj0vW7DYdYQxr57e3g1bvD96zIu/nNNqtYePnnRwXtH8qkUUxfER87KZ6yipqbr6Bhc390+w/dW7M+PDURRgMS9qgnp6ewuLSg4cOTZpynQXN/e6+gZj2jfqqwXuPsDfe9TphOupaTR44R1iXvzTFt3dPRu3+PgHBdPw2FEs/vtI6m1jXvkFhbY/Or2oqKLMXIlPUg7rdHR2ubi5n790mb9dzwqi1Wp37z/MN5LsK+MXRiUR4zfH1gwJC9/itdNp2crrqWnsQ1ooK69wXOK258ARZRzJr8b9P0flzG7SShrN0MXoK5OmTJ9qZfv7hejauobevr66+obMrJy7GQ8GBgYomLXk5zX1DY2CIHR2dZU8ex6we7+ZynLa97NS09LpzqKRq42iVX//gG/AHruFzmXlFaOY7IdPaoQ9w7z8go/V5zHpmNe9jCzlxlDeHxYE4c7dDCubeew+8YffW7BFXkAQhKycPBpTs2vfobLyip7e3paW1kePn9y4daddraZhE3QJqdVqGxqbrqem/eTyi5nKMuZKwkgiEZSNtnb16/CZ66oNjU3NfMZMbnmEp0L5wXIvI8vCek5hUYnJUYwkw0nJqQsWuY7uzjDCqhlJcUzrt6YR88ovKJxua+/u4dna2ib35WNedImi0QydPX/JTGUZEhbe39/Px7zYz1+1tG7a6mOmstxz4EhPb+/AwEDU5TgH5xV/hsn0P/Oot99ACV5NSLKwnsPuIdBpsrKqevHyVRWV1ZnZuQsWuZqpLDOzc0VRbGp+dfjoSdsfnWhYI3vQpryiklZj6dBFqSAIOQ8f0VM2FtZzQo+f5h/MKS0rp2d22K/MVJY05ZakidFqtawpN7eYsc5je22d9FY/jfOSXM7l5RdMtbKlhkmSZkVldcDu/XQ6mW5rf+b3iwMDf00fFpeY7L0zqL6hkUZRTZ5mvWLNxvyCQnYZGRIWHnbidG1dw1afAHOLGeYWMzw8/aqqa4hUre5wdl3Nwn/DpjYwMBAZFUuPnfIU/IU9pWyoHnMePrKwnpOZlSOKIts6jX3Yvf8wf+aj69UdgXsHNRoehBeePM16yc9rEpJS6If8aqIodnR0sqGtdgudI6NimRsFFhVk2D6MBZMQkMS8KM/1DY1LV6ylQJUx7Rvt0nYLnZ89L2Ol7uru9gvcQ19RUoIgvKio2uK189jJiNffsjUlC3pjRpJdtKGxyT8o2MJ6zuRp1hu3+JSWlbNE2Ff0oNCOwL1s0BC/Yy9fuS7n4SN2vGu12rsZ//uE0U8uv2Rm57JvQ8LCQ8LCOzo69x4MfdMUbPOlu3/8tmx/dIq5kqDT6Sj/mdm5MVcS6JC3W+gccyXB0ODwwqISm7mOjO5CVOzKdb8q+LDDnxWZLTQ1v1q9YSvfwlAbpTf/AwMDCUl/Pc4weZr1qvWbS549p1OA3kREUWTlVWZnGXB2XX01PtFuobPkjnRmVs5MOwf5pX5IWPih0BMnz55nwqxoF6JidwTujY6N5y/zDJ2tRFGsrKpe8vOasvKKhKQUvbWgXOPKLTbfls60c+BbSNpuVXXN7bv3FyxynTzN2sPTr6GxSRAEdqqV7F0K51DlUug9szOxT2ShsqrawXmF6ruZSSmp/HmQFZ8PZrEP+/r6j4afNVNZuq3d1NDYJIqiMavpdLrMrBxn19XhZ86P/LGXzKwc1Xcz72VksVzJF/g9zcJ6jn9QMOWW1tR7XFNvpLauPnD3AXnXhX7IDmQzleVPLr9cT01jdKPVM+RzLjlGJMU0ps9DM4Ho7WpeT01jdz1Zyvcyslizo5ATScyLPxKpy8efWYaFpU5jW7ua5GfaOSQm39BqtezEIX90XeGUpNCr1GiGjp+KoPtJ1NjqncdWctIkHK1WG3bitNOylTQXATvbdnR2ua3ddCEqlhnSAyIbtnifPHu+vV3N93j5bNMcIyWlb079LDWWiPKeptxEs0TG8UJHZ9c2n4A314NHw/UOKZJfQmq12pgrCWYqy30HQ/W2QkZ2tEg1OjbeetZ8qj5Dznx1S64IqDeSl19Q8uw5jdWIjo1nlwlV1TUbt/hMnmZtYT0ncM8BfvqLYY81T9/Ajo7OM+cuWljPcVziRo+5GLqmM3QqVDj2JYWVHyySnVkhKf4rybWVcjElm6As8TmJS0zW68DXyHRb+9Djp+kajd+c5HpcIZM8haRJ5L+iZXZEyzuBfBfRTGVJXeIr8Yl64w+SSW9ZsnpPSZ9IQ2EaMa+KyuoFi1ytbOal38uUP4qot8GKjUukeFZvb5/emJcgCBRjdlziVlXzsqGxycXN3UxlefjoST76wO+OZeUV1rPmX467Jnm8iM5b6fcfsCfmOjq7dDqBejav74u6rtqQfONWdm5eu1otimLh0+L9h48VFBap1R05Dx+xB200mqHqmtqfXH65FHNVre5QqztozEVqWrqVzbyYKwktLa0lpWXuHp5sOFJVdc1ch6WXYq729vX19w8kJafazHV8WvyMss0f2Fqt9sTpc9Nt7U9FRD56/CQ7Ny86Nr6js4svoCiKbxvzun33/tHws2XlFW3t6lu379rMdaTmWBTFuMTk6bb2jkvcoi7HNTY1V9fU+gcF8zcbQ8LCbX90ohEHrGjLV66nyKbkslM5NSqdi5t7RWW1VqutrWvYsMU7cPcBvYNWDPX/urq7V6779fDRk4Ig8Fu/npo2z9GFXdWLolhX3zDP0YUGSvDIick3bH90unX7blu7urau/mpC0o1bd+R1Qbd93D08CwqL2trVd+5mODivYHVKJzMFGUmV4Z9jXEAh5mUz17GopNSY9u3bGXYr1mw0U1leuhw3NPRmpkJRFJ8WP7P90eknl1/mObpQzEur1V6+es1MZUnPHBmSkfcDKLbLxnnV1tXbOy3zDwqurqltbGo+Gn52rsNSGidFey991dauzssvOBURSb2ljs6uVes3u3t4lpSWtbS0xlxJsJnryJ6XHNRoXl8DxyemNDY1U5p8UCYkLDxg936/wD2HQk+8jlwUl5Rqtdqq6hq7hc7uHp5p6ffzCwqTb9zKyslj/f4Fi1wD9xyorqmlbVlYz2EhcknBKWOHj57UarVl5RV2C50vxVxl4TbJyqIo9vb1eWzz3ertz4+qo9W0Wm1T8ysPTz96AFyt7qBJi/Tmv6Oza+/B0LT0+y0trdQA0oWQoUSGZT9w5FhHZ5dGM5Sdm2cz1/HW7buiKL5qaZWM29JqtftDjlJQXlI6uoYvLCqZZb+Ij4h1dHatXPdrZlaOpENm6GxFtTDLfpHjErfAPQfKyivktaBQ48ottiAIZ85dpAK2tavpLHk0/CxFDSqrqhcsdj3z+8UTp8/V1tVX19Ru8wl43e9PSkml2/iNTc37DoZaz5rPCqhwDq2sqlYoRU9vr/zMLiEd3/9kg0k9PP2oAyMvr95gliiKVdU1jkvcLKznZDzIEQTBmNV6ensD9xwwU1kauscp37qhTwRBOHz0pNvaTfJ+DvsJ7Yc2cx2vp6ZRJ8Rrxy67hc5sTKje4zouMXn2/MUubu7sV+4ennYLndkdO2q4/IOC6biIS0y2mevI78CLl68aYc9Q+RhhBaQFY/o8oigaOkxq6+rtFjrf5J4G1WiG/IOCqYVRzomkPUlMvmFlM+9SzFXqE+4POWplM4+dI4aFDQkL9/Hf/eYckZXT0tJ6PTXth9kLkpJTd/y2j+oiMzvXbqEze3Rd+ZSk0KsUBKGru/tSzNWfXH6prqlVqzu6urvlpwy++8ebFxaVWFjPoRuu7GwrCMLJs+clt1sKi0qm29rT5QCLedH4RDqTqtUdhUUlp89doEcTWGq0uWH3NIXGjc/wOF4uefZ8lv0ie6dlZS/0D/Z8cwm5zZfGeVEVs5jXodATeq8HjexosUsqvediZq58RUAXI5FRsctXrr8cdy07N48uRkLCwhcscl29fktmVg47S7qt3dTW/uYyUxTFYY81j22+wYfCfAP23MvIyi8opFuGhq7p9J4KlY99VkBakB8sBYVF023taTiFclIK11bKxZQcL/KcxCUmyx2oRpxdVyffuJVfUJiWfj8lNY32DUONJIEbugDkKTKzctg5kf+clhU6gXRKlXeJ9VaNpOBoKIjXNGJefX39B48cN1NZTp5m7R8UXFhUwt/P5wem0k7Z0dHpG/Bm+MPvF2MGBzV6Y14UuVi6Yq31rPmPnzzt7u7Zvf+ws+tqfiCSZHfUarXnL12ePM3a3cMzL7+A3bWj1eS9CtrnXNzc+dC7JE2KDbH76nyohdak65m4a3+w021tXf08RxcajhSXmMyfQV8HvrZ6+5+KiKTf8k1MWXnFTDsH5RuerIHmx3kJgnAp5iq7Z8WnKSkLdTHZ3bC4xGQzlSX/BE27Wr3k5zXsujQkLHyqlW1BYRFLhz9KJRTKqdHKfJ8s5+EjSaCKbUVeU/TV4OCg984gyj+/dYpw8YnfTEtnifMgdD3JNsQv8KtFx8Y7LnHjh7aWV1TOsl9EdUoxLwUZPlksj30BecxLq9Um37hF7+JoftWi3L5RTH+W/aLIqNiZdg7uHp4UYNJohiIio8wtZpw+d8FtrQcb5/Xw0eO5DkvDTpxWGMfEH2gU4rkUc5X6fKIoUsSEf/0FRcToQoJC+ZJHg6kWomPj+eaOuvjy8US0srw1MFNZ8g0dZWPjFp/u7h5JLVP++X6kpPGRrC+KYl5+gZXNvE1bfX6YveD4qQj+DCJfWRTFJ0+LbeY6zp6/OD4xRZIBvTcGaH5WPv/yZHl2eSLK7Hn5BazNoREZB44coxil3Ln5VcvrgTl828syQ20UBfVOnj3PTiuZWTmLl6961dIquUZlP6QF/tu3rQW+xpVb7LLyijft4Z/Domm7BYVFLEhH2917MJSdgumc6L0ziE2aTkMqrsQnsZggXzX8OXTYUhg6X0hkxus/BwcHj52MMFNZnjl3Ue89JEMDuOheYMDu/ZOmTI+79odOpzMU8+rp7WWrDQ4OXo67Nst+UVJyqqHNGUlNhxiL4+v9lbxf9Pr24VafABY00XtcxyUmT55mzfemaMZAumGmt+HKzM6V7MB8U6k3b/yxxndIaGXlY0SSoKF9mO/zKHQ1KcLFS/KdIuWc8KWgTfD3G2jqDHaOUIalrhE/ZIaaPiubebl5j1mRr6emOS1bSVf+yqck5V6lpHPO0ucX+H4d/3l1Te0s+0XU1+WbfYpw8Q9znYqIpD48X8W0LH9Ggd3voa+M3NPe6kTJl2IcLOt0wq3bd1XfzdzqE2Ao9i0fNtHY1Lz+1+3mFjOSkvWPbBUEwZiOFntkhF2U6SVVviKgncFmrmN5RSX/89cTFPLHAts3aK8z5lijQR7sNMonTsuSbpW8GVE+9iUJ8geLTidUVFa7uLn7Buyhs7ZyUoaurYYtJn/0sfzwOaFGgG6IshXkNUJfKTSS1Drx184sNclCf//A3oOhk6dZ+wbseV72gh9Do9wJ1Hu8U+LyquELrveH8lPSp9BQmEbMSxTFxqbm3/YeZA90LF2x9vXbGGlfoZjX5GnWew+GxlxJiPzzuRUzlaXTspUVldXyC062/7W0tK5ev+XbGXb8AzjsW70LgiCUlJbRUNKZdg6xcYnsJoChfY6FePQmSBdjCjGv/IJCu4XO/PvCaGaHsBOn6ZS8YYs3TaIviqJCzCspOZX1AwzlRB7z6urujrv2Bz83Ad9YyNOhYaLUhMUlJvMXafLEQ8LC+YAdOz2QGN8DoJIqpEYr833Qd4h5UZslj3lRe8GaA/76n/+JKIrRsfE2cx3vZ2bzrRgpMTfqiB84coxdbTIZ9gSlsoycHZ+MZQHWBFnZzNuwxdvD08911QZ68VlWTh7tKgrtG92EnD1/cVZOnteOXd/OsKNHAhubmt3Weiz5eU1efsHaTdso5mWkA50OWXNKoyrYMyY0m1VSciqf2oWoWBc3947OLjrrB+450NrWzq9Al0/ULrHP72VkzbJfxDdf7Cs6EFjzGBIWvuTnNfxAEsoGhS3Yr2iB8s+HoZWvTwRBeFr8jN43Z/xcoa1t7aHHT1tYzzG3mBEUHNLU/Iq2Lg9XUTsgyb8kz6x9o8sVeSLK7Hn5BfzjRYIgsJiXKIrPnpfxz73eTEtndykk2WB9x7jEZDYEhpo4CoHx16iS30rOVm9bC3yNK7fYScmptLOxDFAUj/ZJ+XYpNX5X4XmVz6Hy1CT7kvzMznL1KSz09fUHBYeYqSyvJiTJR9mTgKFg1sDAAN2tvBRzVavVGrnaaKny+4ChNOMSk+X9orjEZHasydslvb0RURQlwQt+bxRFkQK+9Fwb7XKs6TOUt7z8AoWeofIxIklTYR9mPRPlwyQzK2eeowt7gJriSnQ3VzknfHtCU+mzMXSUybz8AutZ8+nBc3mnkYelZlbSaZTXICvssKck+eYk+wyfeQkp/ZPpSb7lu69U3dTsS242UGieno3gf0KruXt4yqcf4VOTt3t69zTjT5SSUoyDf+p0uqsJSWYqy6DgEL1PKdJ5meawX/LzGg9Pv01bfWbaOZipLHfvP6zw+gIjcfhq1fsT2uUUrggoBYqn8ynILxP42LQxxxr/2A2fMr/MX9OxI4utoHzss9VogX9vI02Lcf7SZXYFrZyUoWurYYvJHy8sP/xhS4Nw+Zu41G5IaoR+q9xIGsok2y5boNeCL1+5jmYVv3M3gyKPyp1AhS6xvGr4gqOhYPImE/Oi0QdFJaX7Q47SSxinfT8r5c8pEuTvbZw8zXrnrjdP5Qh//mdonFdjU7Prqg3Ws+bzQ40YjfJCa2vb2fOX+LdOKO9zfGpqdUdEZNTrYZNssgCFng0FofmrU1qmcDLdpbwUc3VgYECr1dLThez1bfyBzS/zmZEsU/vLb47NmEBrStKpb2g8fPQkTapCv+LHebFy0W8l/QlJUuya0FDMSyE1umZzcXOvqnkpCMKrltatPgGBuw/oHc0hryk+e/KYlyiKfIePHyMgiXkNajTnL122sJ6zYJHrxegr/PmSFdbQKZCtIEmT8mboV/Qt/j+WBVjMiz+snF1Xl5aV83FPrVart31jMa+iktI/rt80t5hx8Mjxnt7eO3czpn0/Kyz8TG1d/bvFvNLvP1CrO+rqG1au+5UfNUMnSz63tMwOwBcVVW5rN5lbzPDx3/3ocSG79+Dsulr+K9av0umER48Lt3r701SGtCa78OP3f6pN/pwtqV+9Xxm6PtFqtecio61s5sVd+yM+McXKZt65yGjqYVCLpHwPdmBg4M7dDGfX1eyJJ0k7RnmT518UxUGNJv3+g7WbttGMh1RkQzEvZXYKNR44cqy7u0enE/ILCuc6LGXvnuMvpSRBeQkdi3nx7VhtXf2Cxa40+kDCqHC2GrYWFGpcucWWdI7ZTkV7i3y78uaRryPlc6g8NcS8+H2mr69/z4EjZirLqMtxhkYEGApm9fX1795/eNhxXpLV+K2PZJn2AX50kjw1vYct30PQu4LkGKFk2Yd69yh+h9S7AvV/jO8ZKh8jkpLyJeK/olxRn0f5MKH2h4aOSloY5ZwwFslhxbLBa/ArsxX4D+XVwX9LP2GFpWaBtR5sgZ2S5L/lq8lQhlnG9HbV6FsqlN72Kjo2nt1s4IevShox6sSqvpvp7uF5PzObdWV5Ln6Z5Yovgt4V5KVmvx1/CzqdLi4xedKU6Tt3vXmJmd4Cyi8hJ02Zfvb8JUMxMr2JGPqQqlWhjyGpd5YO29WHXYH9hN8h9dYyvz/oXUEURYVrOnZksS0qH/tsNVpgLzlVqzuSklNn2jnwc5wpJ2Xo2kpvKfhi8sssP8xW7zFuCJxWZs0Iv0DX44YyybYrWRAEobau4VDoCXOLGfTkO+WWT5mWqe+ttyyUprxq+JX5ZZaHT7OhMKWYF6uq1rb2sBOnzVSWq9dvedXSSgNTaZxXUkpqcUkpP08hu+Ckl6axRERRLCktez3a3GnZSr3DEPg1DS1nZudOtbKl4UXK+xxL4UVFld1CZ5rogab9Ur6bF5eYzCYUoEm+6P/UfNMI21n2i+jBz1XrNxeVlLILaf7A5pdZZuQLdBiwqWooh/xqfDo5Dx9Z2cw7cuxUbV09TXbA3xOQN0b8Mca3zix9vq3hl/U2TJLUenp6d+8/TA3Em9n0z100dMaS1xRlgO7E0kAVydbpdhx1+K6nprEui95SdHf3xCemLFjkOt3W/vrN21QdzE2SMis7W0FvmoZ+xX6OhTErwJqg9b9uzy8ozM7NW75y/eRp1vGJf73fQJJzPe3bNl+an6vmZe3rYJnjErfCp8W/7T043db+4aPHr1pa3y3mRcEXURTvZWRZ2cxjsXI6QVJEjG9z+NZApxOel73Y8ds+c4sZm7fvaHvz9qM3L51gcxGyH3Z0dmn//O9o+Fk2b05//wAdvx8g5lVcUvrD7AX0oBy9VMvCek7YidODGg0NpzfmnserllYXN3caiSlpeaj6+OOXPunt6/PeGbR4+SqabkOjGSIi5ZiXAvuLiioWVfzJ5ZeMBzn8eFI28oICWIYKxWJe9CIOKtH11DT+8SI+uKlwttLbkWLNvlarVa5xhRab7xyzHYlNnSbfrrx55OtI+RwqT01yujF0vpActuP1n4MazamISDOVpaGpbRSebWxtbXP38GRDUw2FxiSrjZYk7eGSYUGSxOWHLQ1mZGERvSuwnZxPjX2od4/id0i9K7xtz1D5GOEzJikR/xXf51E+TOgpQhrtLmlhlHPCWCSHFcsGr8GvzFbgP5RXB/8t/YQdsMqnJL354atJ7wosV7Qgzw/Lg+q7mfkFheyJM3a2ZXo8qeSOLyVCl8QhYeEW1nOWr1xXVfNSkhpPxzLGF0HvCnIx9tvxtyAIQvq9zDfzSGzYSpNCyMtIl5BTrWyvxCcVl5SePX9p8jTrlet+5acfkf/KyE/ouRyFyLv85EUps11r2BX4nLBf6a1lfn/Qu4LyNR07stgWlY99tpqkRKIo0ovC+XEJxiQlv7bSWwq+mPwyyw9T0nuMGwKnlRWuxyl9eSbZdvUuCIJAT1M9e15GuTXUCdRbFkpTXjX8yvwyy8On2VCYZMxLFMUXFVULFrk6OK+oqq6hcRD8BISsUmneE73jvIaGhqJj4ydNmb47OMRQ+J9PR+8yf2wo73Ps56ciIvmIiSiKScmp7BqDT5B+kpdfYPujk2Q0OEttUKPZHRyid1p9SejkSnySfAw/S4ct8IcB+5BfYI0FP4kpW+H1leRHGef15s0ARSWrN2w15iwlrynKP73TgK4VJRVBvZM3b/fo7NoRuJefB4eBMARaGNRo+Hf3sNX0jpsldv7ZRsZIqUnyI9kW/jmWBVjMi8LuOt2bd5lbWM9ZvHwVP6CaL4K8faOY18DAQOjx05OmTPcN2DPTzsFjm2+7Wt3a2jbCmBftfmyXowshybM5fPb4ZZoSPjo2nhLROyBc8toH+jmN01aIebW1q52WrdSbDb2ncL29H719mkePC23mOvoF7tm4xYfvdfHlki+zQ1hvI8m+ZT9kkxOzT2iSF0MxL2V2QRAiIqMOHz3JbvizZGnhVUsrxdf4hxYl69BJgU05QcNXnz0v89jmyyb/4hmVz1bKtcC/6IOyIalxhRZb/rwSXxD5duXNI19HyudQeWqSfcbQ+YLP0jhepjDxVCvb5SvX8y9y4YusN5j15/ut8qfb2ruu2lDf0GgoNCZfjU95hMs309KnWtmyKdLlqemd80HybCNrGNnP4xKT5Y9ss2cb9T6BQkc3/2wjC4JQssrHmnwPVz5GWFZpwdA+zPd5lA8TURQLCovmOiytrKqW3PZTzgnfnuQXFMp7s5JnGxVgJX1aKhqfvqSwyqckyWFOv+XbDb0r0Grs//Jmnx5J2XswlPXzJS0MjZI7fPSkWt3htnYTa3jlVcy2Qo+ksPk02evY3m1Pk4uxDY3LhRcVVfZOy6xnzc/LL2ADAviSSi4h29Xqrd7+b+aDvhBt6GzL/3zY5VMRkSyGLl952CsCQztGSFi4ZAYA/tlGY441duFJuRr2mk7ejCgf+5LCSg6WnIePptvas8bZ+KT4a6thiyk5+ujw3L3/MGvV5YcDzRGktys7bCPJisxnkn1oaIFlUrkTqNAlllcNS1MURTQUTN40Yl6DGg1/Q5s6Sdaz5i9dsbauvkHSYLGy0YLkgpM+7OvrvxKfNO37Wdaz5uc8zKdHIJtftRQUFhkaHCRJlv5ZUlo2086Bph6XP1fM73Ps5yFh4fwMDoCgTQAAIABJREFUXHT+Y00PtW78ZR4NKWdv/GHp0AKtn5Z+X29Tzjcx8rlaJUnRPyWnfPk6LE1ak4Vp6LhyW7tJoSmRJM6SYlvhG3d+WW/nQ5JaXGKyu4enoVkq2SYM3fMsLCqxW+jM5lOUbJ1iagsWu965mzHXYSk/Bam8FGxbefkFrAPHrxaXmCyZw57fkfR27OT5YVvBwhgXkDdBXd3d9G6ykLDwvr7+4ds3Tz+KebHrQzOVJT0xpNVqJTGvQY2mqKS0tq5eb5tAVvKmKefhIwvrOTRklZ47c121wdB9UR6cDkMaHRkdG88eAOTXYXen+Rn3CgqLplrZKsS8KBsKc9hLLhrlfRfKw820dHmPs6ik1HrWfNsfndir1iQZlvyTbkvSVQcVWdIl4g9w+i3Nmk/z1NAn11PTXs/jxse8+ESU2Wmj5yKj+VMhn0mKywcFh2z1CWAvz+VXoGU2zou12Ks3bF2w2JXN1MMzKp+t5HsR31DTtwo1rtBi09kqPjFF7z4s3668eeTPDsrnUHlqfCnofDHTzsHQbSe58Pj7hKYONFNZ+gXu0ftCHnnMS6vVZufm2TstmzRlesyVBJqN3sjVurq78wsK2dvHRuJJr+1zcXM3FK2jt3byeyl/pOs9F9PuIXk/D40DZXPYh504LWm47mVksdfU6t3llI812sP5nqHyMSJBk18RUZeG7/MoHyaiKNKLra8mJHn6BvLPainnhG9PaKZ/yRz2ew+G8oNMFWD1VgefPpWaL6zCKUlymNNv+XaDVlC+VSxv9rVabXRsvOq7mYnJNyhNeXXfTEt3W7spNS3d3mkZ2zPljRhfia+noXz9hqXBwUE+Na1W+w57mlyM39D4W+7t69t3MNRMZbl0xdqS0jL5OUVyCckuMGfPX1xYVCJfn4iM6WjRmvQmvjeT6Hd06uVVviIwtGPIXwJWXlFpM9eR+lTGHGvswpNyRTu/wjWd/CJX+diXFFZysNDmWDv5Vkmxa6thi0k3Gu/czWCZaWxqdlzipnChSlMzS67R6OfDNpJsK9RzYBeA/OfyZXZ2UO4EKnSJ5VWDhkLuLIqiCcS86FXZK9ZsPHn2/OWr185FRm/evoNmwjoafnZgYEDSYEnKyS44Fy9fFRkV+/uF6L0HQ39y+cVMZUlXXNQba21tW+exnV71aOhtQUkpqbuDQ9LS72fn5mXn5l2OuzZ7/mLvnUH0KGV9Q+OCxa4HjhxraWltan41qNHw+xzLVWZWjuq7mb9fiG5paS0rr/APCp7n6MKaHo1maNe+Qy5u7uUVlS0trfTmtfT7D6xs5gXuOZBfUFhdU3svI2vfwdAnT4spYv37xRj+6V+7hc6JyTdo3g2+iaEnTabb2r+ei7q6prbwafGlmKvyCTIlp3yWbbbApxkdG/96gufkG7fa2tUFhUXrPLbPdViq0JRIEueTovT5xp1fNqZ3UltX7+C8glGYW8zY6hPQ0NjEcs4WqHV48rRYre4oLilNS7+/3e+3ydOs6REteU7oE5oxZ+mKtax/Rp/zpfj9QvTluGu1dfVqdUdBYZG7hycLovGr0UNPy1euy3n4qK1dTW9MYzuS3o6dRIOVBQtjX4A1QezxakEQikpK7RY6W9nMy3iQk3Lj1jDt239jXjRD7aatPm9mvlzsStfhfMzrTWt587a5xQynZSvpUQi9PvKmaVCjCdx9YNX6zRQ1bmhsWrpi7fKV627fvV9bV5+XX3D+0uXfL0SLolhdUxt8KCwvv6CtXd3Y1Hwp5iq77dzd3bN5+47Z8xe/no6UGpmrCUlhJ0739w/Q4ePi5l5cUkrvmF+wyPWH2QsUYl40ntduofPGLT55+QXVNbVp6fcTklJYBM3ImFdLS6vrqg0OziuSb9zKzs3LzM49fipipp2Di5u7g/OKDVu85VfXVdU12/1+i09MoaY+Lf2+u4cnH86LiIyyW+j86PGTtnY1/Zw/wMmcukebt++orqklqHmOLuwF9qIoyhNRYBdFMTUtXfXdTNbEvXmC+/eLbApYmsl+pp0Du7TWW/V8zIvCZGYqS/aWOklLq3y2ku9F/M+HrXGFFlsQhKjLcVOtbMPCzxSXlL6oqEpLv797/2GahUC+XXnzKDnXKJxD5anxpaD5TSRndr2w4/hDGpr67Qw7M5XlXIelJ06fi4yK3bXvkNOylVu8dra1qymYNd3WPvzM+QtRsSFHw1ev30I76sEjx9kLZI1ZbXBw8MixU2YqS++dQZ1dXSNXraistndaNt3W/mj42czs3OzcvHsZWcdORtBUMoIgxCem/DB7QcyVBNYl4490+XFNu4eF9RwH5xX0q5LSMmofWACd2pyNW3xKSsuoubOZ68juXOrd5ZSPNXnPUPkYkbgZ0+cRRVHhMKEEo2Pj7Z2W2TstKyuvYJtQzokkwkKDO06cPvd67FJtXf2RY6esbObxYz2UYeXVIUlfclNT4ZQkOcypOJJ2o7ik1Mpm3qWYq23t6qbmV/L57NgDWS0trXn5BVcTkmii3vOXLrOV5dVNEdKfXH7hG16+Eevo7Npz4Mi9jKyWllbaf2x/dKIgmiS1d9jT5GKsKsfrQtmLCrros7CeE3wo7FLM1UOhJ9zWbnJatvJ52Qv5JWRfXz+1Qn6Be/TeRzeyo8U8abefPX/x+UuXWafixOlzdAmmfEXA7xgsQbpM+GH2Asclbq/7J23t6pyHjxYvX+W2dhPrzwx7rLELT5as8jWd/CJX+dhnydKC/OAtfFpsZTOPpiVVTkrh2kq5mNSzXbx8Vc7DR3Rd5rHN19l1tcKFqiiKdFgtX7ku/V5mbV19ZnZuzJWEwcFB5UZSIZM8xcmz50OOhr+Oc9GecCoikk5P1GIodwLpEXh5l1heNWgoeHO2bBoxrxu37vB9fepL7TlwhI7tNw2Wp9+wzzayS4XX95FU383cte/Qs+dl7J55U/Mrt7Ueb17I/bvBF3IXlZSy2YgnT7Ne8vOahKQUdskhCEJmdu6CRa5mKku6dJTsc4Su1WoTk2/YLXQ2U1naLXROSEopK69w9/Bk8503NDZ5ePpNnmZtYT2HZtihl0V6ePpRpM/2R6fgQ2HNr1q0Wu35S5dXrNl46/ZdOniyc/Mio2KtbOalpd+Xh04GNZqU1DRq+s0tZmzzCZDfs5Wc8tmOwhb4ZmtgYODM7xdpemaaX+bR4yfb/X5j722UNKmSxPmkKH2+ceeXh+2dVNW8XLFmY1j4GeZwLyPL3cNz9Yat3d09LPO0kJdfwO8M023tt3r7s6m45TlhP4+OjTdTWUrGUPClSL+XueTnNa+najJTWdr+6HT8VERPz1+zZvKr0Rs2z5z7i85uoXNkVCzbkeQVp3euB5YrLIxxAXnMi2Y3//1CtJnKcu0mz5ir14Zt32icF4W5L1+9NmnK9OBDYTQo9f/GvHQJSSmTp1k7OK8w9OCkoZhRSWmZ9az5cdf+oBubb6YVCz9DR7eF9ZxNW98EnmhXDAoOoc/NLWasWr85v6CQ3Qvt6+s/f+kytW/07a3bd9m5fKtPgLnFDIpH19Y1hJ04rRzzEkWxtq7BPyjYwnoONZj8m/uMjHmJotjQ2BSwez9fluzcPK1W29jUvGr9ZvkwELW6Iyg4ZK7DUmoobH90Onz0JHtv45sRUh2dew+GUlno4RTJAU77ZMmz56vWb6bGfN/B0PqGRu+dQSzb8kREUdTLLghvQplOy1a+nvmVNXGJyTds5jpGREax/Z+mDmFvmGWf8wt8zIvCZNaz5tNQZVqNvyJSPlvpPcHxP29obDJU48O22PRioxVrNlJzumCx66mISAqCyLcrOVmwN+GypzgNnUMNHQt8KeRndt7zE1nW6XQ5Dx8t+XkNf+o0U1lSyJiCWfKvMrNy+IeDjFmtr6+fBmVs8wnQe7X5DuD0HoYFi9/0zeh9YR7bfNktAZ1OyHiQwy6J/YOC+Vtleo9r2j2KS0qpaWINGp+31rb2fQdDqeH6yeWX63++cIlWkO/A1LC/bc9Q4Rjhc0JhIL529PZ5aCaQktIyeVeTpVZWXmE9a77ktp8oigo54Q8l2kRRSSm1iuYWMzw8/dj7glk3TwFWXh2S9CUxL+prGTolyX8r6aNSA0hv8Qvcc4AuepkGddV42LkOSw8fPUlP8rLV5NVN4zUmT7PmG16+EevvHwg/c55e9kLXGrdu36WrFXlqb7unyUvNsjpeFwRBqKyqfn0fi68s6lGUlpXrvYSsrKp2WrZS9d3MpJRUFr5kPjqdUR0ttj6bG569wMf2R6fAPQfYJVhfX7+hKwJ+x+ATpGMhv6CQDlgL6zn7Dobyb9Ome6vKxxq78KSUla/p9J4KFY59Prd6r2u0Wu3eg6Eubu7koJCUwrWVcjGpt8Y3xZnZualp6coxL0lPbLqt/e8XY2g0jEJfQiGTPEX6vczlK9fTqYE6yXczHvD7mN5OIEtBb5dYXjVoKJgYv2ACMS9RFIeGhp49L0tISrl89drluGvXb95+WVvHXput1WprXtaWlVew+AJfQnqCo6y8oqS0jP7Kyivk9w91Ol1hUUlSSqoxE0JJ0v9Y/ywrr5jn6MI/OyOKIj2Szfr6HytvH3K71IHgR+TS1guLSmj6iQ+ZGWwLAnKBjs6usvKKuvoG1mqJotjT21teUVlWXtGuVg/bvr2oqGKPXff0vPlha1s7RZo0mqHqmtqyFxU0L2G7Wn3j1p2ch48MjVeVZw+fjHEBGjLGP4FFGT4VEcm6bqIo0mqSN9OPwaKhxR6DlWJMlgY1moLCoqsJSTFXEmLjEjMe5FBYqq+v/0VFFetilZaVv2ppZXFwlrIxqwmC8LK2Lik5tbSsnN2SZCmMkYVPMGrwYeQB+2GcP82t6HS6isrqa39cpwvJ1LT0xqZmQRD0XkLqdEJDY1NpWXltXT0fj2B0H72jJY//srxhAQIQ0CtgGjEvvVnHh/kFhbPsF0lGc3R1d6/z2E5TpX4iRDQHpDzMd+duhoPziuZXLZ+IA4oJAQiMSwF+8ntWQK1Wu2vfIT7WT7PAslvHbM2xtoAWe6zVCPLzVgIIzbwVl/ErA9Z4K6z5iQsg5vWJ7wAo/jsIIOb1Dmhj5Sdt7Wq3tZsC9xyoq2+gF7qXlJZt3OJj5OTTY6UYo5GPxOQbtj86sTe8trS0xlxJ+GH2AkOzII/GNpEGBCAAgQ8h0N8/4Buwx93Ds7Kqmpr66prawD0H5josfVFR1dnV1dauvp6aZkItHlrsD7HfYBvvRwChmffjKgL2PcEi2fEngJjX+KtTlOh9CyDm9b6F32/6/Dw1k6dZ/+TyS0RklOQJ7febg7GRularvZ6axubSMjRdxdjILHIBAQhA4O0EOjo6w8LPsNlA+IljkpJTzVSWM+0c2NtL3i7pj7E2WuyPoY5tjo4AQjOj4yhLBbAyEnwAAf0CiHnpd8GnEDAsgJiXYRt8AwEIQAACEIAABCAAAQhAAAIQgAAEIGCaAoh5mWa9IdcQgAAEIAABCEAAAhCAAAQgAAEIQAAChgUQ8zJsg28gAAEIQAACEIAABCAAAQhAAAIQgAAETFMAMS/TrDfkGgIQgAAEIAABCEAAAhCAAAQgAAEIQMCwAGJehm3wDQQgAAEIQAACEIAABCAAAQhAAAIQgIBpCiDmZZr1hlxDAAIQgAAEIAABCEAAAhCAAAQgAAEIGBZAzMuwDb6BAAQgAAEIQAACEIAABCAAAQhAAAIQME0BxLxMs96QawhAAAIQgAAEIAABCEAAAhCAAAQgAAHDAoh5GbbBNxCAAAQgAAEIQAACEIAABCAAAQhAAAKmKYCYl2nWG3INAQhAAAIQgAAEIAABCEAAAhCAAAQgYFgAMS/DNvgGAhCAAAQgAAEIQAACEIAABCAAAQhAwDQFEPMyzXpDriEAAQhAAAIQgAAEIAABCEAAAhCAAAQMCyDmZdgG30AAAhCAAAQgAAEIQAACEIAABCAAAQiYpgBiXqZZb8g1BCAAAQhAAAIQgAAEIAABCEAAAhCAgGEBxLwM23DfCILQ0dHZ0dklCAL38fhc7O7u8djmm5SS+rGKd/7S5YDd+/v7B5QzcOduxjqP7W3tauXVjExNORF8CwEIjB2Byqpqm7mOefkFYydLo5iT8V26UYRCUhAYBwJG9mRGXlK1usPZdXVcYvLIk5KkMMImaxx00t6frYQa/4TApywgCMKjx09+cvnFTGU5z9HledmLMajR0Ni0Ys3G8dpBHYPgxmfJNGJeGs1QSmradr/f0u8/0Ol0rHharfbW7bvb/X67dfuuVqtln4/6QlV1zU8uvyxdsba2rn7UE5cnaKgD8WFOq93dPe4enpfjrskzNsJPqFxmKkv6mzzNesnPa+ITU/r6+vmUIyKjtvoE9Pb18R/Kl9PS7y9dsbalpVX+Ff+JkanxP8EyBEZRQBCEx0+e+vjv9vD027x9h/fOoMNHTyYkpVTX1PKt2auW1rPnLzkucZtqZbvV2z/n4aOhoSE+G9QMbvX2Z+mcioi8czejsan5bWPx/f0Dnr6B7Eg0t5ixfOW6lNS0QY2G3+KYXTbUQipkuKq6xsPTz9xihoX1nH0HQzs6OhVWFkXRyMZKOZF3+/YdSvduG8KvIGCMQHVNrYenn/fOoOZXLaIo1tU37DlwhFqhbT4BwYfCLl2OKyoplbQeXd3dt27f3RG4d5b9oklTpjsucdu9//C9jKzu7h6+PdzmE3D46MnkG7deVFS9Qy8uJCzc0zdw2DtkxhTzY61jZE9m5NlT7kCGhIWzM8LkadY/ufxy/tJlSd/MUB5G2GSNg06asq0hN3z+wQR0OqHsRcWpiMgVazaaW8ywspm3/tftF6JiK6uq1R2d+0OOrlz369PiZ9SV6u3ru56atnr9FnOLGdaz5m/x2nk57lptXb1OpxvFtovKXt/QePjoSdsfncxUlnTcHT8V0dra9sFkPu6G8vILbOY6VlZVG5mN2rr6eY4uv1+IbmlpLXtRMTAwzNgII5Md3dXqGxp/cvnlQfbD0U2WUtPphAfZD1es2Th5mrWZynKuw9LgQ2HVNbXvY1vjL03TiHkNajThZ86bqSxjriTwvSKNZuj3C9FmKsvfL0RrNP/n+nB0q6qqusZxidsnEvMaXTo+NeoYpd9/oFZ3vKioyszOPX4qYqadg73TsopKY5s8PkEsQ2DsCwiCcPvu/alWtuyKghbMLWbExiVSw9XZ1bXjt31mKksrm3kLFrmaqSytZ83Pyy/gg1msGZSkM2nK9N3BIbV19fzKyiwU89rqE5Cdm5edm5eZnXso9IS5xYyj4Wf5BlY5kY/47dteYrW2ti1fuT5wz4G6+oaCwqLFy1ftDzmqXNKP2Fi9bek+YkXIN93T2+vjv9v4Lqw8BXwy1gTKKyrnObos+XlNfUOjKIr0T0krZKay3L3/cFd3N2W+qualu4enfJ31v25vaWnV2x6aqSzXeWx/8rSYvxMwLMXbxrwuRMW+j4FOw+aTrdD8qmXz9h1qdQf75IMtKMdlQsLCV6zZeC8ji04KpyIip9vae+8MGvbuI7tDYOS4hnsZWSFh4R+s1B9mQ8q2HyYP2IohgcHBwSvxSdO+nyVpkVTfzbyemtba1ubh6WdlM496XO1qdcDu/fI1/xxaoRvFtksQhMTkG3THMfnGLeqJnT53wWvHro7OLkNl+Yifv4+T+9vGvG6mpTstWzns8z0fWOmDnVYEQYhPTJlqZRsWfoYa6qsJSes8to9kvNu4bJAN7QCIeRmS+T+f63RCY1Nz86sW468q/8/v3/Ifhq55TP20qrdcHR2dW30CXFdtGHbE1lsqYnUIjAkBFvPyDwru6e3t6e0tLCo5cOTYpCnTXdzc6+obRFEsLSu3W+jstnZTY1Pz0NBQZFSsmcryzO8X+VA+i3lR6H9Qo2lsav7j+s1Z9ovMVJYe23xfDTfmkXFQzIu/8BAE4VLM1XmOLpQftubYXNDbkihkNb+g0PZHpxcVVbTOlfgkZ9fVypedejfxYRorvZtWKN2Y+urZ87IFi10R8xpTlTLCzOiNeVEIbFCjeVFRdSEq1spm3nRb+4ePHguC0NnVtXNXsJnK0m6h841bd1paWnt6eysqq9PS7z9+8lSr1dJ1I7WHWq22ta09OzfPbe0mM5XlgkWuJaVlxne03irm1dPbu2GL98eNed3LyBq28RlhfRn6uXIHUi55LyPLwnpOYVGJoQTZ58Y3WVqtdvf+w/yphyVi0gvKtiZdNFPPvCAIWTl5023tzVSWu/YdKiuv6OntbWlpffT4yY1bd9rV6na1msW8dDrdnbsZU61sXVdteFr8rLev79WbNQtfD/t61dIq6cuNsO3Kyy+wsJ4TduK0ZITsmAV/Hyf3t415xSUmf6z201C9fMjTSkdnl4ub+/lLl40/RRrKNn0+XhtkQ6UebzEvQRDKyiv8g4Jn2jlMmjLd2XX1xegrdO9RpxNyHj7y8d8dl5jMmpjWtvaQsPB9B0MbGptEUezo7LqakLRy3a/mFjMWLHY9cORYfkGhRjPU2NS872DoodATra1tWq02NS09YPf+zKycqMtxrqs2TLWyXf/r9vR7mewCtb9/ICU1jQYf/uTyi8c23y1eOz19A+/czSh/UbnFa+exkxHsjqi8bgx1IOSn1Y6OzrDwM9Sa2y10joyKZUM95SuLosi3F1qt9npqGj0XTY8ZJiSlaLVayQ/jEpO9dwbVNzTuOxhqYT1n8jTrFWs25hcUskNuYGAgMirWbqGz5MaI/KafoXLR59Gx8UTB+l7XU9McnFfQ8xRM6V5Glt1C59q6er4sgvCmctlozwWLXc+ev0TPO7DUKAW+1BbWc/yDgqnq2abDTpyurWvY6hNgbjHD3GKGh6dfVXUN2zoWIPC2ApJ+Ev28vqFx6Yq1P8xeUPi0WBTFsvKKuQ5LV6zZ2NjUrNEMnYqINFNZRkbF8o83SmJelI4gCMUlpfZOyyZPs4679odWq21rV+8POeobsEfhQWx5zEsURUnng29blq9cl/PwETvkGxqb/IOCLaznmKksp9va7wjcyyJl/PE1086Bb5G0Wu3djAer1m82t5hhprL8yeWXzOxclmZIWHhIWHhHR+feg6FvjrttvjS+gM/GdFv70OOnBwYGqMXIzM6NuZJALY/dQueYKwmsYZfUUWFRic1cx2fPy+jzC1GxK9f9qtACK4xckDRWoigyjcnTrDdu8SktKxdFsaCwiN8ibffZ8zKbuY4FhUWiKPJNloX1nNDjp9njlvJ2km2C3K6nprFBapVV1Ut+XlNWXhFzJWGmnQOtcOv2XZ3ur6knqQFvV6uPn4qwsJ5jYT3nzLmLA3/+d+bcRQvrOeYWM7b6BPDNoEIlss0lJKXI5a8mJNFeQeeCsdY3lewV+KeRAgoxL0qhp7c3YPf+SVOmUxfibsaDad/Pmj1/cWFRCTvA2bb+P3vn401V9v//f8ma1WrdNWOZMHewKIxEpJQhKqm8S5r0Q2akpBSKUpTysxDjVykVoZCEdOXX+O3iXr8urnPP+WZe7+9+788+5x5Xv9VrVmvWdu4++7z2Y5/9PK/9OnvvI6mHgiCMqEf3hYSZKSyjYi5Mz8zMzc1lZOe6efmW3n9I7nZSCEnQz3eNRrv59531L15WPq0Fx8ba3uXSlZTp6RmYngZTaImjAi6K/N2+aVtAR2d3Vc0zOLeq5pl8FxAEwZjQ6fULl66kgPqBDbAqk/ZkGGUADwQkBapsij+WX1i8+fedq8yVq8yVAUH7W1+/gXMZ144whARNEo4wQmS6ZM3NzUnaMDQ8smNPCOFvprCE+CNzaVrzGbdWEITY+CQZJ402cjGESrmCTH2HhkfImjJmwfuSTQyyT7zEkLATqrcdXzycylQQ/wQC2onJg2EnzBSWsQlJkpMW6ZgXx3F38gvNFJbnEy7Pz88zDD+ids3odMEHj+w9EDY1Nc1chfxJ38xiKYC7tKu758GjJ66ePqvMlcGhRwcGh3ieJ3pFe1lEHu8/eARqxnhNTH8HM0jfNPZwl9HPd2Pt0CMRWu0EeBrum/3EMxsYt1Omd79zMo9GRNEOhljAxWM6SRvewykyJhftHZ3ix4qYpIwLR9pF8rFFbgZIyGh4SVk5DI3pU6qqa20d3VTtHXQzkfF+/8CgpCAbc2sFQQBrGxqbml61bPPfbaaw9Nu1Dx4xra/fwIsrxw1eBUWl5KlN67mFct2+kLDWtv+64rSpnyf9rcW8VO0dHlv96WeqmcLywsUrMzqdwWAoLC5bZa48e+ESCQwNDA5t8d3l6unT0dk9PT1z6mwcc+7BsBNa7URXd4+bly+82NTrF67dSGeymSksf7Zx/He7MX5ubi4p+TpksP/N44cfrSHt6ulTeu9B1u18M4Xl2vWbZFpd3GEkb/excY3frn2BwaGNTc1j45qHjyrdvHzJXHTJvkF7VwVFpfa/edx/8GhsXNPb138nv7D0/kO4p+mNTnMLiqztXdw3+2Vk5w4ODXf39IZHRpMF2BzHJSanevsFdnR2cxzX2zew58DhiJMxJPxH38fG6qXXL4RHRpNdOYjI9vb1O27wuldeQQqBnMciTs3r9XRdQDezbuer1aODQ8P3yivSs3Ohy5HSwBlNTE61c3IvKStXq0db21R/HPvLcYMXmQASG59k/5uHx1Z/kiEwOHSbf9D3s7qeoMbExyIg6SdBzMvOyb25tQ2i7X8c++uHH62Tkq9n3c63snP+da0rHVkWBEEy5iUIgl6/kJKWYaawPHT0T+3ERP2Ll1Z2zqstbEruPSCBD6YukjGvkrJyMs9LOzEZELQ/MDi0tU2lVo9m3c63c3KvfV4vCALITnhkdHdP79i4pq6h8UpKGrgyPM9fTb1l5+QOqlL7vH7TtgCyXnJer09IupZXUDw4NDw4NJyQdA0exmBbbHzSiZNnjkZEnYtLfOextbS2QfzOb9c+L58dRaX3GxoRPDU7AAAgAElEQVSbyiueFJeV8zwPSuLq6RMRFdPd0wsWWijXGZvBAdU5n3CZ4zhVe4fjBq/0rDvi0ThNyUSx6u3rd/HYCjSgUk5uW952dGknJv127buSkkaXeSUlzW/XPli2UFZeYWXnDJLV2qYKDA4l0s1cuqu7x3GDV3hktKq9Q60ezS0osnNyJ1Q7u7qd3LZ4+wVeuHilt68fbFCssS0oKoVL5xYU7dgTEncpGTTtac1zF4+t129mxsYngaS3tLZ5+wWSIKN8I3Z2dTu4eLpv9ouIigF7sm7nE/LTMzMVT57aOrq9fNWi0Wi1E5PG7kAaC6a/cgJMzEv1toNe6igIAsS8Vpkr/y65p9PNnk+4bKawTLp6QzxohJgOPc+L1J3neZhY9G4fia6efwYGh7z9AmHwSRw2kpkk6Oc7+DxuXr7BB4+AU3T/wSM7J/f4xGSO4/T6he6e3o3e29Oz7mg0Wo1Gq9cvLHm3b9oWcP1mpk/AHlh8NK7RyHcBEGpJoeN5fnJqKj3rzkbv7d09vRqNdnJqiud52pMRBKGgqNTKzjk96w64W2diE6zsnEF74bWljD8Gj5JTZ+PKK56o1aPgrXls9YcpwJI+oSRJONjY1Gxt70LmeZkuWdqJSUkbOI4bGh4JDj0aFXMBmkD8YlLerYWYl4yTJuMKkppCoulVy5nzFxubmjUaLTyqyIL3JZtYrR71CdhDno8lZeWunj6/rnU19gBiLo1/fk4Cra/fOLh4unhsVb3tkLwuHfMyGAwVTxZD9l4+O1RvOxgnQdKXA01brnbBU76krFzSJDgoLwWdXd2um3yuXr+VmJza29ff3dN7MOzE3gNhhcVlMJ0N5mooHdar2hcrDt1/cZOHk//n2Z2YnApjJcbxABuIwEo+3OX1M7egKPjgkehz8UdORD2urG5obBK/lRTHvIz1br1+QaPR0vqp1y/ACFRmTCdpw3KdIkEQjMmF5GOFISnvwsk/tpjbA0KlIYfD4UUO/euIehSGruQgx3FnYhNgvCw53jcmyMbcWnIXXUlJOxeXqGrvGBwaPnP+osdW//KKJ38c+6uxqVmtHr1+M1OxxraqulYQhNnZuSMnokAqNRptU3NrcurNL7gOYIXFvIJDj2bm5GXdzod/6dm5Qf85RPbzmp6Z+ev0OTOF5fG/ohdHHdqJ8oonzu7eFsp1jyurOY6Tj3mBJ+fls6PpVcvU1HRXd8/9h4+bmlsNBl4y5vWTlX1aRs7Q8EhXzz8nz5w3U1hGRMVMz8y87ehy3eTj6unzquW1wWDo6u7x3bnX/jeP5tY2nuef179wctsSn5gsM8uA6TDkDmZclsycPPfNfoNDwyRDe0eng4sn3GpMZshDe1cwsYKcSxLMibkFRWYKS1qa37l9m3/fCU93yEyHpWqf15ORMykTEsbqJQhCfGIymRRARBYiXOGR0SSC1tc/4OzuDZej6wKxfMmNbElpMJvG1tHtcWU1MWxGpwsJO0F8ndj4pJ+s7GEixpI2k0IwgQRkCIj9JI7jikrv/2RlvyPoAExj5Hm+qbnV2d0b4uM/2zgWFpWR2x4KNxbzAlWxsnPe5h80ODTc29fvv/s/IYfDe/sWV01K/sfEvDiOq3/R5LjBi3g/mTl53n6BZLEkz/OXr92AsEhnV/embQGSDy1Ve8ei/tQ8IxdtbGp2cPEEl4schAQtIzCSWXztf/dv2ssUSxycC0oCz3I4wvP8uxezJG7OXAtmsVnZOe8LCft1reulKyli34s5xRSxApeC/uDGvF5/LOIU6MmVlDR6Ntnk1JT/7v9AFAy8E7qysDMrSDd9abgE8za4quYZoQqZT52NI2/VOI6LT0ze/PvOcc3iN21zC4pWmStp0SspK1essc0vLCZVbmxqJqF/+UZckjzjwpJLYGLlEmBiXsyfPM+/annt5LbFzsm9qbl1bHx874Ew818cHlU+pfsyqb5YD8lPff0DW3x3KR3Wv3j5ampq+uSZ814+O5jQP8kMCfr5Dt4ICStDBtpPYHwbcAlkJAvudloJyQxQ08WHETraHrGFoAx0RJ7juPMJl0lIWt4fY+AQa2FChLj6dH6apMHAd3R2e/sFHjkRBW6V6ZJFlwlpWtCYRw9koC8t1nzarYUnhYyTJuMKig2jj9DtsqTKpaRlML7348rqxanWn+CbmLSRmF4uAYOBv//gkWKNbUjYCWObZNExL57nh0fUMPnlZxvHpOTr9LeGPqJ21TU0/mRlTwLK4notKQVwl9KPfvAiDh+PJEMhePd2O6+QRCsYXwJeoYE7R/dTYg/dN8UPd3lvAcQK3jWSApkEU+aSQzC6n5oyppO0YblOEWMzs2RKrKs0ySVduCUfW8zVX75qsXNyX7t+U15BMT1JkPbS4ZThEbWbly8M3o2N98WCLO/WgrX0XQT3mP/u/5CpIeAGx1y4yPM85IcHEFORL/LnCot5iWdXwRHYw34x2OTps/iS8P8vRuM4LvvO3R9+tD4Xl6jT6eRjXu0dnS4eW8EBIuMHaBXJmNexP0+TuFXTq5Zf17ruDj40OjpW/6LJys455HA4rFXR6WZPnY1TrLGl15vINzZ0GGOVhccq3KlwV5HS4ODJM+fFSxQhD60XmTl5dk7uT6pqmFfxTAfOLShiYlh0J4HM9IDq/WJetGG0yFZV1zq7e5NVWiVl5eSlJX1KVXWtlZ3zO3dHPJSlS8stKBJvf5hbUERWUMbGJ9HDVPKcQFeG3GOYWC4B4idZ2TnvOXA4OPSoT8AeM4Wlg4tndW0d9L7pmZn0rDuwz/0qc+XV67fgg1nz8/NV1bX5hcV9/QPGYl6CIDS3ttk5uXv57CA9Rd5I6MK0wqxdv4msmJufnz98PDI+MZku5HFltYOLZ3dPL7hiEVExo2PjdAZBEAqLyrz9AmnPEh66hUVlTE54/xN6JIL0rNj4JBKmgcxgBiNx8BMoJB1qZ7wQ5nIwLHff7Le4wCE+iZF3JjN9CclHNVEe2FuBqd3NjByAAO4gCaDT4b+GxsUII/2pHdgSApjTDhMILPisxE4YRd/MyCFjWgZFU3MrmaAhFvC6hkZbRzcyuZUUApWVb8QlyTMuLLEZEyuXABPkgj9XW9jsCDoQHHp0176DP1nZK9bYLi4unp8fHBre5h9kbe/S0NgkWWWih7CfF51HrR7dEXTgZxtHeiU1nUGcpp/v0FmYyZX0Dcn4NktKFtztRKPg6kt2AcZIEFtSCFEPko0+Iu6bEK9XOqyHpdni7kz7Y6RMkoAqmxjzop8I1vYuN9KzyQw70yWLXJokaBskrSWNCL8ymg8Hwa2FmJeMkybjChJ7JBN1DY3ktat8E+t0syGHwxkj4UlHWlnyEnjw8xMwGAywVjEyOtbYR0iZmBfP882tbTuCDpDucPh4JHhWH1G7aF2SxLKkFIjvUuhotLdAdzf4lZFHehoBFMj4PKRvire/WFI/6YCaZB3FZS45BKPVErw++TGdpA1iFRXTlqRBakHLBYCl+z59rrhRBEGgXTjJdpG/PUbHxuMuJcPGFJHRsUPDI2DY6zcqxw1eZBMP2O8fXl0bG+/TdwgUIu/Wiq2VFG1y28DEtMDgUJl38ITqZ0issJiXzDyv+Xl9zbO6n20cgw8egffbZGeEn20c94WEjY6Nyce8dLrZdzPSQeYcN3glJV8nU6gkY14paRlkIkZrm8rBxTMgaP/IvyvmHFw8XT19YGJXzz+9776GY2Xn/KxucXtXUxoVOsyN9Gz4LgP5//0Hjxw3eEHXEnczKJncapIZaL2Y1+tvpGdbKNe5evrcyrxNdnRmTqRPgUvQnQRCwt5+gV09//A8P6IeDQk7EXEyRhx7YkZWDIfY+CTicJAqwB4fZLomPYeCGeIaDHxJWbmto5uto9ulKynweSkGCHhL4pkgtLjQl4bTGRqM2fgnEliSAPGTiAtlprD08tnRpmoHQdDpZmMTFr8Tb+vodjQiyvwXh8VFjldvTM/M9Pb1b/Hd5eWz45/ePpmYV2NTs9JhvU/AHiJZ8lZBFyYLTJKSr9NvreGep62FNFnR/Lajy2/XvtUWNmHhJ+tfNJGgOf21e/p0kCyDga9/0RRyOBw+yw0ZiKOwrK5HuxSkpmKlgp84jktNy1yMid/9O6+g2MrOOTUtE8JewIHxAuEsyUvAT0SsIA9dU0iDlMHD/vK1G/y//5GJcqBd4rMgHsfopKQZtAJLZqAPirHQiieurHwj0iXDuYwUiwsn2TCxQglIxrzoG9ja3uXho0roU4NDw7479/5s42jM4SF6KI55vZum6hOwR+mwnkSKlyRG64bkw5q+IcUZ3uNuX7ILyAuduD/SR+g0qTt9RXEGWg1gZWXFk6e79h2EbV6hmUyMeQWHHh0cGtZotIVFZbaObvT+GzBdgm50SMNu9LSF8jYw1kIdSSOKG4jJIOnF0WfJuIKEJyQ0Gm1KWsa7hfNkhzXigjLVgfyEPH05UqbkQfIrJr4UAYPBkFtQ9MOP1sf/WvyCkKQZTMwL8uh0s1XVtSGHw+E+d/HYCgt3JNdlC4KwXO1acp4Xud9om+k7k05DHvFNSHc38a/MS31xgUx3o7UUriivn5JVoKsjGfNixmiM2UyZRDroYmk7mfyQTXyQPgXyMDRk5IKxcLkunPh0MRa6diQ9Nzf38FGll88OMkmf9jmZ8bKx8T59h9AVF0s9yKPYWnEJzG0DYQHFGtvA4NAnVTWSwQFSqU+dWGExL/hgGYGi1y9cv5kJaxvn5/WVT2vNf3FY3DOP+s7ri5evrO1ddu07ODw8Io559Q8Mbv59J+znBdtSZOfedXLbAu29dv0m+A6RZMwrMyePzBegY170vmCOG7xWmSth2SNtFamCZILpbCQPfbfRaZKBvtUkM4i7+tTUdF5Bsaunj7W9S8m9B2QuIhmLik9hbvHp6RlY2gkbWl9N/e8UFdoqSBurFxR4+HgkbP9BqxhM14R1BL19/a6bfIg3LDYMJGCb/+7VFjY30rOhdejS6DQxjxY7cQZJjORcTCCBJQmQMV7Qfw41NDbVPKvb5h/0ThbyChY/GSEIAqiH4wavFy9fLSwsPHxUCcOV6HPx129mrrawOXP+ok43ayzmBV4+RKDIzFN5q5guPDg07L7Z72rqLYjBwT1Pdr2BjVdgeyaieAYD/0b19tifp1db2Ow/dAw+HR0bn0RGTeQsjUY7OzvHcVxC0jWy7cLs7BzYQHRmWV1PUknEggAQWlrbfl3rCisueZ5/+KiSfCyJmYpFQ5O8BJmeBmIFeSqePKUrS+9jVVJWDiutYPo3WSGeW1BE9vShzwWnnL40nSbm0c0nmYE+KMZCKx6USeeXaUTGmSP20JcQF06yYWKFEpCMeTm7ez+urG561QKfaIw+Fw93r1Y7ceCP47C3F4mG0xUneiiOeYESemz1p6dA0ueK07RuSD6s6RtSnOE97na6sxB7SBdYUuhITvG5TPiYZKCvKD6dVoMZne7w8chN2wKqqmvHxjWwA46Xzw4TY15ktDk1Nb33QBj98tJ0yZK3gbaWVJA0oriBIA/JQLu45HTxWZKuIMkvCMLbji6ySSJsO0hP3KCBk7MIefHlmNgBOQUTX5wAz/MVj6sW95HYEyLeQB3Mk4x5wU88v7izzf5Dx8wUlmcvXJqdnTUW81qudr1+o7Kyc2YmaNO4yP1GH6TvTDoNecR3Jt3dxL8y9624QKa70VoKV5TXT8kq0NURB3foni5ZKaZMcX6mTCY/lCk+KK4aTUNeLsRg6XPpNKn7ku0itoecyyRG1KPefoFkGixZC8WMl+Es8XiftgTygMHG3FpxZcUlMLcNTD/q7RuIjU+yUK7b5r+7q+cfphaf7c9vJ+al1y/AZIcdQQfobWhA70IOh4+Pa/8uucfsYf+2o8vFYyuJeQF3juNaX78BmYPlisuKefE8D/MkIXDm5bMjJ7eAXna7ZOtKdhJGniQX/sDNJ7O28WZGDnmXRZsxr9fHJybDskHmnharA3OLNzW37tgTYsoEE2P1am1TKR3WkwEho2KNTc1Obls6u7rJABIsFxsGxw0GPvfu32R7bLq0wqIy+XmwdGYojaFBQ8M0EjCFADPGMxj+G3aBXbFg52bzXxwOH4+EiJXBYKiqeUYmQ9k5ucOONsZiXlNT0/DRtNt5hSQmJW8Y04VhrEWmccGvzNoNYwXClvDw0VXJtcNwIkyhJ30c9lr29guUiXlJLiGB0iSVxJggiI/Xv2iyc3I/GhHFjOvoOkpeAgKURKxggjq9lIAuQRAE2F+jrqGxsanZdZMPWXla19Bo/5sHvbqQPpG+NMwzZy5BT4yHzMz6SmZtI6P5YneKvqJMI2LMi26m7yfNxLyYPexVbzvcvHx/tnGEfRLm9frL126YKSz/PHVWcmIFo4cE48LCQmZO3g8/Wp+MjpU8keSkE/QjW/JhTd/t4gzvcbfTnYVYQkRmSaEjOcXnCoLQ0NgkVoa6hkZ6bSPTnWkxh45P3gsKgtDd0+vg4rncmJcgCLXP663tXcje+aZLlrwNtLWEAGnEJd1a8WiKcYxJmYIgMK4g/RP9ORE4XlhURsDKNzE8mJi1/2PjGo+t/uRxRl8L01+WAIzylA7r6xoaJZfayMS8YLgOo8jQIxEa7YRkzOs9tAv29yRRZjGiJaVAfJeK9Y3ubvArc9/Kr23kOO7kmfPESFpLwWB5/RRrnbiaTJlECkhOplJMmUuO6Zj8xGzS2eEIYwbj6sjLBWMhc+6SLpz4dCZsR1AYS9DQRtSj8M4jt6CI2dqSnE6P9+k7BDLIu7Via8UlSKo0FA7TIckO2sSkz5b4pmJeg0PD/rv/Y6Fc9/BRJbxgnJya+vPUWTOF5ZWUtNm5edjL8FjEKfjkAexu+JOVPcS89PqFhYUFgn5gcMgnYI+zu3d7R+eyYl6zs3Nnzl/82caxquaZWGHn9frm1rbevn7xT+TSYi2Dn5i7LbegiF6RBOMxW0c32AgZetqN9GxyIXh3x3R1ctG6hkbYr0d8FeYU5hbPLSgKDA41ZRabZL36+ge8/QLffYASpoqIews8G+7kF4YeiaBXIUlqGVQHPrsD+4nQcgDH6d3HgAnpgXRmSeYEFyaQgIkExGO8yampiKgYWMs2M6OrfV5vZefsu3MvWZML85AhaH7gj+OwWFsy5jU6Nh5z4aKZwnKb/24IqRgMho7O7tdvVLSaMaYyXVgQhNHRsW3+QWQ/1MycPDJfmjmX+ROKAkdK1d5h6+iWV1BMNIdkhr5Pd73GpuafrOzJIEHc9QRBEO9nDAVKKokxQbhXXkHCecSe5tY2pcN6+988yOaP5CeZSzBiBSu7fQL2GHuBDF/hSEq+HhufRH+LA/ZEI99elLk0bEhP7xgqCMLjymoS0wcU9I7asOk12RxNjEXevZNpRMaZI2bTlxDvi0GyYWKFEpCPeen1C1m383/40XrXvoNDwyM8zzc2Nds6uq0yV167kT6j0zG1FuuhIAg63eztvELzXxyUDutrnzfAcuDhEXVjU7OxXXigWFo3GNcFMtB3O2SgI8jvcbfLi8+SQiceJdLdB3SY2cP+1Nk4eg97GX+srqHRys6Z7OciCEJJWfm7vSPfI+YFwk6Ux3TJkrcBimVeqNCNKO/Wiv1DmZgX6JWDi6d4a7nY+KQ9Bw6T0CqsAyJg5ZtYEIQrKWnM57xrn9fTjzPmnsc/vyCBGZ3u9Nk4M4XlFt9drW0qsXNCx7wMBsP8/Dydh+hbxMmYqelpcczrvbWrrLxCscaWXjBEU1pSCsR3qVgAaU8PfqXjIIsfjb37N/GOID7+8FElMQNWANAxL2YnUHn9pJWNlMkkaH02pXczZS45pmPyw9XFBxkzGFdHXi7EjxW6aZZ04cSttqyYFzOGhaVRkdGxIWEn4FU0Axz+JON9sSDLu7Via+l7jFyLlnRyEBLvdtQli7qYnz7Dn99UzIvjuIKiUsUaW8Ua29j4pMKisoCg/bB1DgxsWtsWN3j7yco+PjG5qubZzYwcOyd3M4UlxLxev1Ht2BNyJSWt/sXLx5XVx/48/cOP1gFB+weHhpcV85qfn49PTDZTWP5s47g7+FBI2ImYCxcfPHoyPT2zuArp3oPVFjYeW/1lZvfRHYa+CZi7DeaQb/PfXfu8fmxcU1Vdu2lbAPngPfMRWVV7R8TJmG3+QeS5fv1mZnbu3d6+fo1G++7D3oHBofCNHuYqYnVgbvHevn43L1+y+ne1hU1I2ImBwSHackhDvWDO5NuOrseV1VExF1Zb2DBzHcW9JTMn791y+sWPDf/7zV0ojTas9P7Dq6m33nZ0aTRaVXtHeGQ0CaLRpfE8n1dQ/Ota16zb+Wr1KOSkx/Z0ZrgKQ0NcKTyCBOQJiMd4sEmq4wYvKzvnquragcEhv13BZgpLv13BaRk5icmpgcGhpEOZKSxh4y0S8woOPZqenZucejM8MvpdjMlMYenktqX+xUtw1FrbVGvXb1qMuVfX0q4bbSTTheEn+BR906sWQRCmpqb3Hzq2dv2mdzuad/f0Nr1quZNfGJ+YPDs7193TG30uvq6hcWxcMzg0nJ51x87JHcZUPM9nZOcuCmzS1ZbWtrcdXeUVT06eOd/d0wsbDXj7Bba0tqnVo+KPu4u7niAI8En4bf67Kx5X9fb1V9U8g32yJRWSFgS6slCIm5dvUen9mmd1VTXPLl1JsXV08/YLdPPy3XPgMIm202eZKFYDg0NbfHdt89/94NGT3r7+uobGG+nZ129mkqKqqmvXrt+0dv0meBVBjlc8eWpl5xwRFdPQ2NTd0/u4svr02biX/8Jnagf27z0Q1tqmAnR2Tu4kXgaZXT19IqJiunt6B4eGE5KuKdbYFhSVwrXEWOTdO5lGZBxBUhf6Ev0Dg66bfGIuXFSrR4eGR77s3g3EQkx8CAH5mBdsu7k7ePEL2jfSs/X6hfn5+aupt0DB/HbtS03LvHYjPSz8JHwZdm5uDsaNm7YFpGXkXL+Zeeps3Ebv7WYKS4gawDapo6NjUOb1W1lk41RxLWjdkHxY03e7Xr/w1+lz3n6B7R2davXo5NTUe9ztTPcEk0gXWFLoWlrbrOyc07PujI1rhoZHOI4j50JRMMEqMTkVPsJ74eIVKztnMt+KyUxWW8O+WhCZ2n/oGEhBetYd+HD5e8S8BEFoetViZedcVl4BhpkoWfI2CIKQkpbhuMGr/sXLsXENWRRPxtXybu2So2IZV5C+eaqqaxVrbK/fzCR+oLO7N/GN5ZsYJvC6eGylNdl9s9+va13JKxz6Wpj+4gRUbztAYSyU66LPxadn3TkXl+i3a5/HVv83qrd0zGt2djY+6ereA2HXb2Vl3c5PTE6FLw79ZGVfVl7BcdxH1C6O4xKTU1eZKwOC9pfcewAbN+cVFKdl5MA2L/JSIL5LxQJIe3rwq5PbluCDR8CXyLqdb6FcR77WPa/XR5yM2bQtoPZ5PYwKgw8e8fLZQfqm+OEur59isRLfCbQ+L9m7xau/lxzTSdogPsiYwbg68nIhfqwwTSPvwolbTSbm1dXdc+jon3kFxXC3lFc8CQwOpcewgiC8fqOCva3p8bKx8b6kIMu4tWJr6XuMtC95LmsnJqNiLjyurFarR8F9tf/Ng3inJP9nS3xTMa/FvTPn5/MLF3cpJiPG4INH2js6Yeyn1y/c/bsEPo4GGaztXcg8r66ef7b57yYnmiksXTy21j5vMBgWV3S7eflu/n1n/8CgXr9w7Ua6mcKSDs/T+3mNqEdhhwu6KDOF5aGjf46OjeUXFq8yV74rDb4OK9nSTIchecR3m043ezX1Fuz+47jBKy0jh3xnRxCEubm5q9f/92tBUWlDY9M2/yDYrr7icdXm33fCdmP2v3lcupIC09+Yq4jVgb7Fu3r+8d25Nz7pKtlo/3FldWBw6I49IeLlnFAvgsVCuW5H0IGKJ0+ZcRHpLaTiqvYOpcN68qoTjtOGNbe2BQTth71Ire1d/jp9jqxvZUozGPjKp7Xk+fcuOkaH55jM8q8QiXmYQAIyBMQxL9jlF/YiDAwOHRwaebf8jWwjCB1ko/f2+w8e1T6vh4DyiZNnBodHkq4uLhqi//261vXdvGv6HoZvyJr/4vC4snpZMS94XxQSdgKmZuh0szfSsx03eJkpLFdb2AQE7b//4BF8EDYyOhY0B47D0ksgYDDwT2ue++7cC8LiusnnSkraxOSkIAgDg0MhYSdWW9hAWLy3byA+MZkMEsRdDwocHRuPT7oKl7O2d4EBsKRC0oLANMfA4NCJk2egEAvlun0hYTXP6jiOGxwaDgja7+0X2Nc/wJxiolgtTpGjLITCYYQJBcIIkHxtllyF5/nWNlVw6FFQLfvfPKLPxQ+PqBlnC/KPjo2fPhtnoVxnprDc6L2dfGGTZK58WpuWkQONtdF7e+XTWrKVkhiLvHsHa4KMNeKS5Hmer6p55urpY6awDAjab8r8X8IEE18nASbmxfwJN8yTqpqfbRzXrt/U1NzK8/zs7Bx8MIsWKzOFZULSNRLzon9SrLH96/S5129U5L4dGh6BNwFXr9/6WDEvUKHg0KOrzJUWynUQ35eRLMm7XfIg3cvkhQ5ezcK7ioiomPn5efpcWEsF/swqc+VqC5vg0KNtqnZyYzCZmZjX4mT/128CgvZDBU+fjesfGDx8PPL9Yl4cx506G+ftFwjelOmSJWPD4qp27cSps3HwIIDV7oz4y7u1TGbGSZNxBQlDQRCgFUAwHTd45RcWq9o7AoNDwTdesomlHmf9J8+cJ48z+lqY/uIEeJ7v7Op+FyygNcdMYem4watN1U7HvObm5uIuLU5ZoP/9ZGWfdTt/dnaO+HL0r++tXaCc9S+aDvxxHB7uq8yVG723p2fnguLBy1HozmIpEN+lzNiNEQf4NTv3bklZOYyA4M6nx19a7QTtaVTVPCsrryAxL8mHu4x+isVKfCcw3oh87/FrrMMAACAASURBVBbHvIChzJhO0gbxQcYM4lmBcsrLhfixIm4aGRdO3GoyMS+NRhsZHUsGC/a/eZxPuEy+2wh44SPg9Nx/QRCMjfclBVnGrRVbSwcESPuSdpydnUu6egO2alllrtz8+877Dx6RpzzJ/9kSKyPmxfP80PDIG9Xb0dExehQHHwp8o3o7oh6lj2snJmuf1z949KS7p5fZ4Ibn+f6BwceV1fcfPOrq+UevX+gfGOzo7J6dnYOQWZuq/d0SyJJ7D5pb28ik+rm5uY7O7s6ubpj1OqIeZYyZ0enednR19fwzMTEVm5D0w4/Wl66kgFULCwtd3T0gapVPa8fGx0vvP6x9Xi/jxn225v/AC8EcSLJ5HimtqbkVduAiRzCBBL5nAtqJSVV7R1//gMFgIBymZ2baOzpV7R2wjdfE5GRVzbPcgqInVTV9/QNEuMbGNW9UbxcFZ2x8aHikTdXe2qZqbVO9fqPq7OqmY9xQ8tzc3Luvedx/8MjE/eyJPZhYiQTE3tVKrAXa/DUTmJ6eaWxqbmpuBbXR6WYXvZ3uHnqwpNcvdPX806Zqp52xqanpJ1U12bl3s+/czb3794uXr6AE0EPQsdY2laq9A8LiNASDwdDU3FpYXGbKVqH0iZhGAkgACYgJwLYPd/8uyb5zNzv3bll5xeDQMM/zev3C6zeq+hdNWu0ErLN+Xv/iTn5h1u38nNyCR5VP6YHnytUucbRCjAiPfAME4D2rzOcRvoE6vncVVkbM672r9/lPhB3amE3xdbrZ02fj5GdefH5TP/yKsOEoTKqnS3v4qNLNyxfmLNDHMY0EkAASQAIfkQDGvD4iTCwKCSABJIAEkMC3RwBjXt9em0rWCLaMJEudJPN8twcx5vWRm35icvLIiagffrSOjU9qetXS+vrNk6qak9Gxqy1stvjuIt/t+shX/XLFFRSV2v/mQT5rqlaPZt3O/3Wtq+Q+1l/OTLwyEkACSOAbJIAxr2+wUbFKSAAJIAEkgAQ+HgGMeX08ll9jSROTk2PjmpKychyAyzQPxrxk4LzPTzzPv1G93eYfRK/3NlNY2v/m8e8eK/9b2fQ+pX9953AcV1JWTvYFs7Z3CTkcXv+i6Quu1/36IKFFSAAJIIFPQgBjXp8EKxaKBJAAEkACSOBbIYAxr2+lJaXrUVhUZqawtHV0KygqJVujSGf9jo9izOuTNL5ev9D6+k1eQTGsGy+9/xAX+n0S0FgoEkACSAAJIAEkgASQABJAAkgACSABJIAEpAhgzEuKCh5DAkgACSABJIAEkAASQAJIAAkgASSABJAAEljJBDDmtZJbD21HAkgACSABJIAEkAASQAJIAAkgASSABJAAEpAigDEvKSp4DAkgASSABJAAEkACSAAJIAEkgASQABJAAkhgJRPAmNdKbj20HQkgASSABJAAEkACSAAJIAEkgASQABJAAkhAigDGvKSo4DEkgASQABJAAkgACSABJIAEkAASQAJIAAkggZVMAGNeK7n10HYkgASQABJAAkgACSABJIAEkAASQAJIAAkgASkCGPOSooLHkAASQAJIAAkgASSABJAAEkACSAAJIAEkgARWMgGMea3k1kPbkQASQAJIAAkgASSABJAAEkACSAAJIAEkgASkCGDMS4oKHkMCSAAJIAEkgASQABJAAkgACSABJIAEkAASWMkEMOa1klsPbUcCSAAJIAEkgASQABJAAkgACSABJIAEkAASkCKAMS8pKngMCSABJIAEkAASQAJIAAkgASSABJAAEkACSGAlE8CY10puPbQdCSABJIAEkAASQAJIAAkgASSABJAAEkACSECKAMa8pKjgMSSABJAAEkACSAAJIAEkgASQABJAAkgACSCBlUwAY14rufXQdiSABJAAEkACSAAJIAEkgASQABJAAkgACSABKQLfcsxrdHQs+87diKiYmAsXH1U+ndfrpQh8pmM8z9e/eLnRe7uZwtLZ3fuN6u1nuvCnuczA4JDvzr11DY2fpvilS52amg4+eKSwuGzJrDfSs0+cPDM7OyeT0/TSZArBn5AAEvgQArHxSaFHIuS76oeUz5ybW1Dk5bNDo9EKgvBFBO3ho8rdwYfGxjWMYfgnEkACSAAIfHHnxHQDTPG1BEEwMRveAEgACSABJIAEPiKBlRHz0usXsu/c3eK7q6SsnOM4U+o/PKLeHXzITGEJ/xKTU+fn50050cQ8dQ2Ndk7unV3dJubv7et3dve+fjNTrR5Vve2Ym5MLwZhY5hfM1j8wuNF7+9Oa55/ChrqGRtJwZgrL1RY2AUH7K578n6jl1NR0YHBodu7dJQ1IScsICTsxo9PJ5DS9NJlC8CckIEmA5/na5/U+AXsSk1N1ulmSh+f5hsamX9e6HvjjOERe4CeDgX9cWf3Hsb8Ki8r0+gU6/4uXr8LCT6Zn3VlSQGZn50KPRMTGJ5HTv/6EKTGvxqZmC+W6quraD68OHfNalqDJsKXLXNLC8oonW3x3qdWjS+bEDEgACcgQ6B8YPJ9w2f43DzOF5Spz5Ubv7ZeupIyOjsmcslJ++qTOyef3tQRBMMUlWymtg3YigfcmEBufRI90rO1dTpw8097RyfP8e5eJJyIBJCBDYGXEvOb1+qSrN8wUllm3802JeRkMfMm9B6stbA78cbyr55/+gcER9ejH1ZHlxrzulVd4bPX/RK/0h0fU+w8do4fNMk3+fj/dzMjJLSh6v3OXe1ZdQ6Oto9vLVy0ajbalte1xZfXps3EWynUBQftxfLhcmJj/ixPgef7Boyc/WdmHR0ZPz8wQe+bn55OSr5spLJUO6+tfNBGBMhgM2bl3zRSWFy+n0JF6Y+WQAumETFyGzkbS0zMzYeEnTQ/ikxM/YmLJmBfHcWdiE8wUlifPnDflQSBvm0x8Sl5RZdjKlClvjCAIjyurV1aMcskaYQYk8KkJ8DxfUFS62sJmm//uotL7Nc/qqmqeJafe/OPYX9qJyU999U9RPvpan4IqlokEvjYCsfFJwaFHB4eG1erRuobGknsPAoNDFWtsE5NTP9y9ee/Kyjs/712s6Sd+Db6o6dZizpVF4NuMeen1C8mpN3/40Tr37t8Gg+FTNMlyY14fMhZa0v7HldVkkc6Smd8jw/TMzJ4Dhz9nzEs8h66vf8DbL/Dw8Uj5GVvvUTs8BQl8UgLGYlW9fYu3NLzou3Tlf+GtLxLzev1G5brJ5yuPeY2oRzdtC7h0JcV1k09vX/8HtpqMJssr6qeIeXEcd/LMeYx5fWCb4unfG4G6hkYL5br4xOQvu3nFx8KOvtbHIonlIIGvnID4JR/P8w8fVVrZOecVFJOXoJ+5FvLOz2cw5mvwRT9DNfESX4TAiox5Tc/MpKZlnr1wqfZ5w8XLKS4eW63tXY5FnGppbeN5fnR0rLC4zG/XPjOFpYvH1uDQo6lpmZ3dPdHn4m9m5Lzt6Dpz/qLSYX3EyZjRsfHhEXVqWqbfrn2rLWwcXDzPXrjU1z8gCALP8287ug78cfzi5ZTJqSlx2zAxr9j4pPjE5N6+gZCwE6stbFZb2ASHHu3q7hEE4V2BRyOiLJTryCzWuoZGjUbr5bOjrqGx9fUbMDUzJ08QhKHhETJF30K57vTZOK12Aq7OcVxJWTnsCLbKXLn59535hcWzs3OXrqSstrAhhcOGOLkFRaFHIrTaiauptyyU69w3+6nVo+IxHphBB7MGBofCI6PBWvvfPLJu56vedrh6+pDyzRSWdQ2NnV3ddk7u9H5e9IkbvbfTq1A1Gu3m33fWv3hZ+bQW7Le2d7l0JWV6+n9zXmjCDFvyU+3zerKsiVg+r9cfizjFzPuAAeSxiFPzej39XJFkyHEcKY1cS6udiE+6am3vYqawdNzglZaRQ1aTLbc6pExMfJ8EJGNei3NRy8pXW9g4bvAy/8Vhi+8uEsQxMeY1NzeXkZ3r5uVbev+h+K0gE5fp7Ore/PtOVXtHfmGx4wYvuKuzbufDQPFOfiEtUCSATveCbf67a5/XEz/MmMIcPh7ZPzAIEzNXmSt9d+5taPzfFDaO4x5VPg0I2g+StdF7e1XNM1Im3VUlb5WSsnKPrf6q9g6/XftAMEk28bmMRnEcV1BUSupeUFT68FElqSnJrNcvSCoquZAgCAxb+idaY+WZC4JAMg8Nj+zYE0JrLK3JdPmYRgJIgBCY0emCDx7ZeyBsamqaHGQSsLTcd+feVeZKcMzaVO10HtorsFCuC4+MHhgcIhnAtevq7tl7IGyVudJCuS4iKmaEWo9Ml2+hXBd3KZn4bJ1d3Zu2BXR0dlfVPAMnqqrmmYyb197RKfa1Pqlz8vl9LUEQGK2mnzKMrwWZjbnWpI0wgQRWIgGmI0AVOI6LT0z22OpPRIYWKFtHN3owQnyMrNv5to5uZgrLjd7b7z94ZDD8d3Xkkh5XbHySVjtx6mzcagubvQfCLly6IjmcPHw8clyjuXQlxUK5zkK57mrqrbl//4MB5moLm5CwE7RsmmLzsnzRldi+aPNXSGBFxry0E5MHw07QIwRIb/Te3v6283FltfkvDvSvoUcimlta3bx8bR3dYMcHM4XlgT+Oq0fHEpNT6ZxmCsv9h46Njo5xHJd9Z3F50dr1m1rbVOKWY3yF2Pgk+988PLb6l5SVq9WjrW2qwODQbf5Bo6Njev2CRqNNz7qz0Xt7d0+vRqOFI14+O9Iycrb5B2Xn3q15VgextqZXLWfOX2xsatZotLXP6zdtCzgTmwAD2oKiUvvfPO4/eDQ2runt67+TX1h6/yHP85NTU3Thk1NTPM/nFhQFHzwSfS7+yImox5XVDY1N83o9GWKR6jDuVFd3j+MGr8Dg0PKKJw2NTUWl96tr6/T6he6e3o3e29Oz7mg0WrCfDBGhKDgxPDJa1d4BwTU7J/eEpGtgOVzFzcs3+OCRxqbmsXHN/QeP7Jzc4xOTxWN1QRAYtsTayakp/93/OZ9wmed52vKSsnJnd28ACJn7+gec3b1LysoZB0uSoSAIdGmCIIyNa/x27QsMDgVrHz6qdPPyJVPMllsdYj8mvk8CkjGvd/30yImon6zscwuKTpw8s9rCpqSsHCalmhjzGhgcgmli5xMuk4AsIczEZTq7uh1cPN03+0VExUAnzbqdb6FcB7GV6ZmZiidPyYJi7cSkwcBrJyYDgvYHBoe2tqnU6tGs2/l2Tu61z+vhEsYUxtrexX2zX0Z27uDQcHdPb3hkND1nc16vT0i6lldQPDg0PDg0nJB0zdbRTdXeAWVKuoCkRjC+BT28fO3GngOH6YWi4nNpjeJ5Pq+g2MrOOet2/uKOiu0d4ZHRzu7e4piXMUUlZiwr5iXDnI55cRw3NDwSHHo0KuYCaOxn28ifrhemkcDKIgB9HB70xiwvKCq1snNOz7oDinQmNsHKzpnoGMdxicmpdk7uxHP749hfjhu83nZ0QYGx8Umunj47gg5UVdeOjWvAK3vnHpB9KsrKK4iwgONHXAWIeV2/mekTsAfWXY5rFj9YYczNk/S1Pqlz8vl9LcYlk/e1ILMx19pYi+NxJLAiCIidFjC7qbnVQrkOphTwPH819ZadkzsM/UB/yNiqs6vbyW2Lt1/ghYtXevv6wadSrLEtKCqFopb0uE6cPHM0IupcXGJVzbPmltca7f8Zq5Lh5I49IXGXkkEkn9Y8d/HYev1mZmx8Enh6La1t3n6BwQePwCqcJW2W8YskfdEV0Zpo5IogsLJjXk5uW+4/fDyu0bx81QLvybPv3OU4bn5+/nzC5VXmysLiMhhGdnX3uHn5miks7ZzcyyuejGs0I+pRjuPaVO0paRkvX7WMazSVT2tdN/lYKNc9rXluMBie179wctsSn5hs4jyvn6zsG5uaSavTIy56eAMZwI+xc3Jv7+gkp4gTdJQqNj7J2MoXOhsUkltQZKawPJ9wmQ4qibPR7hTslSP5ypTOBuXTtZM8sarmmYOLJ4xm4XS/Xfvo/TXExpDqG/PD5ufnDx+PhIlstEkQ4bpXXkFKuFdeQaJg9HPFGEO6NEEQMnPy3Df7DQ4NkwLbOzodXDxh5+zlVocUgonvk4A45sXzfFNzq52Tu9+uff0Dg7DbV1j4yYnJxQ1oTIx5TU1Nnzxz3stnBz2RihAWx7zsnNxh5iPk4Xn+fMJl8p1EcafLzMnz9gskLxt5nr987QZxa4wpjJnCkh6Cjms0m3/faWzWEvMr3VVJRUhC1d5h6+gGfbCpudXa3oXWW/G5tEb1Dwy6bvJJz7pD5pRNTU3vPRAmjnnB5WTUaVkxL3nm9FWY9iK1xgQSQALGCNQ1NP5kZd/U3Gosw4h61GOrP93xOY47n3CZ6BioyuPKalLCjE4XEnaCvGuMjU9SOqynX3yCsICmQfm5d/8mwgJfKwKZgpy0ipKr0AlaBxhXRPxC7uM6J2LZB8M+na/FxLzkqwOZ5V1rmiSmkcAKIiB2WsD47p5eBxdPUBhVe8fi0OPf+aHwa2NTMxlbgcKcOhtHBnowTWzz7zshvM7QEHtcZgpLWr7EY1U4sspcSYtkSVm5Yo1tfmExKb+xqZm8KjDF5mX5ouQqmEACH0hgZce8bmXeXlhY/K6ZwWDIKyj+4UfrCxevzP/7n2TMa5W5MregiKgDw25ubu5cXOL/n3CxxIczGF8hNj7Jf/d/6OgY47vQbg3xY2DKEmMG/WddQyMZlWXm5Nk5uT+pqiHTVklOpnAQKXp6BeQUZ6ON1E5MevsF3s4rJMWSBJ0NDtLjSfiVORG09WZGDqnslZQ0UqDMZC75n8hDgjYJgm5EQ2G1I+2zkoG9MYZ0aTD4jLlwkXixZJQLKyghs+nVoWuN6e+QgDjmpdcvXE29ZaawvHr9ll6/MDg07Ldrn62jW9OrFp7nTYx5yZNkYijQYem4MOPcMIIGY574xGT6Ko8rqx1cPLt7emUUhsSa4UTGDLo00q1IRIz0biYbLDa/fO0G8eRgyifp48w4Ck6nNar2eb2toxuZuwEZbmbkEHWlMzNkxMbIVIrW2CWZ05llyhQbgEeQABKQdxWAD3wPh+n4dQ2NSof1r98szt/PLSgSf1wot6DIzct3eEQNwsK4dnr9QnhkdHhktF6/0NDY5LjBCyQRrggbcoFyggIQfTPWZLSbR7sikJ8+AirxEZ0TRvZpC4ka0wZ8uK9Fa/WS1ZHkT9tDG4xpJLCyCJAuxphN3+GFRWXefoH0dIHhEbWbl29hUZkgCJI+BrwRlHwTAD2OKFJsfBLxqYgNtFsCB3MLihi/TqyrtAf1HjbTF5URJWIkJpDA+xFYwTEv818cKp/WQmCCbI4Tc+Hiu15tbJ6Xi8dWxvsZGBy6kpLmt2sfWQ652sKmeHGR0bJjXiSwAi1By5Z4EMX8ShpPo9GmpGV4+ewga6rJqGxer7+Rnm2hXOfq6XMr8zb9lUZaL6Ao8RGxDSQaBQpIaxaxR7IuRGph8q3kiaCtMDFNsrIyumbsJyhTPM9LEISq6lpnd2/YEYl+0Uo7WIIgGGNIW0inaQ7k+SSZwZjNdAmY/j4JiGNeA4NDvjv3miksPbb6B4ce3XPg8LtdSxdDYKmLIbBPF/OiN+BjBIG5geEmZ9Z9wzxZ2OfeRIWhdeDflxN8/YumkMPhZI354mvG//9BWNLFxPcJzKe4fO0GiUTfzMgh41Kmm8PptC4taS2dmSEjNoapFJ2BvhBTJmSjM9BpmTLp8jGNBJAAIbDkPC+6i5Gz6I4pqTm0GEpmIAdhuqtYJ8HzoS9Erg5+lzE3T+xd0EfoNF0gsUcyA10d+iyZoOGn87VorZa0ls7ApMF4Y2cxVcM/kcBXToB0W8ZO0A3wi2Ljk8TyQrwmSYWhDxoMy/a4xJopPiKWFPqi72EzfQlx4Qwf/BMJvDeBFRzzsrJzrmtoXFbMa/PvO/sHBgHW4vKiVy1ObltAUOx/8wgMDv11resXjHm97ehy3OAFu2LBljr0C0Awe2pqOq+g2NXTx9repeTeA6g+rReQTXxEciBHew+0ZjH3E50NfqIz02lyIj2EE58u42zJ/ARzx+ANKlOmdmLSb9c+WFRVUlZOr6MUP1fEDOnS6DSpDu17SWZAmaZZYZomwMS8DAb+/oNHijW2YlfGd+fegcEhg8FwJ7/QTGGZkHRtfn6eFMXzfHnFk5+s7CNOxuh0s+S4ZILugEyQmuSnVYK5geEmJ1v4wSZTGo1WOzEJ82TpcyULhIO0GRzHJSRdI1vnzM7Owa+mxLweV1aLcdHrKMXdnNalJa2lM0tKJakjmZ4mudKcvhBTJpRAZ6DTNCj6WphGAkjAGIHXb1RWds7M9FU6M93FyHG6Y4p1g/FAJDOQg7kFRWSfViKSGo0WthqkL0SuLu/mib0L+gidJgV+iHPCyD4p89P5WktaS2dg0mCeMQjEeEwggRVBgMgIY21dQ6NijW1DYxPc/8GhRweHhml50Wi0sOOnpMKQg+/ncYk1U3xErBvkou9nM30JceEMH/wTCbw3ge835jU/P3/h4hUzheXxv6IHh4Z5ntfpZqNiLnzBmBfMOKNnsRYWlZF5XnQbz+v19Kc9aL2AbOIjkgM5mCULY86xcY3HVn9miSKUJnYyaIGTXBQpXttIRrZQpoyuGfvpcWW1hXIdbOLDmASbDS1+qnJi8ljEKXo+iLHnCs2QLg1WdS25fMD06tANh+nvkAAT85qamg6PjP7hR+vL1260tLa1tqla21S1z+t9Avb8ZGV//+FjjjOUlVco1thGRMXAnqAAjeO43Lt///CjddylZDoWJomUiaHQHZbkp1WC6XRwOtMLyImSYiJ5kDaD/rIEFAXSQbqSTFc9FnEqIGj/k6qammd18O9JVU1A0H6yL4/4XBgPw9S22uf1ZFUmqcXtvEKirgwfmgzJTxLwWVhY3EQOwgLM8wmXQw6HQ0SSKRNy0iXTaRoUXSamkQASMEYA1jgzU+zpzA2NTfa/eTCz++m1jYVFZUuubWTWFtFrG+saGsXlEwMkFUDezaNdESiHPvLRnRNG9onln87XosNYS1aHzkxso4GQg5hAAiuOgNhpEQSB47hTZ+PIa3vJxdekpqAwsM6RHCRrG9/P46LdEihTfESsG7TWmWKz6WsOSL0wgQQ+nMD3G/OanpkJj4xebWFTVHofVjL29vVv899NYl7zen1za1tvXz9ZTUPjZvq8WLyYBzOjGsyvUPK7r8bSHyODfanIqIy+OryKJKM4scQwl4NzC4vKXD196K3ZH1dWwx5nILVnYhNk9rCnw2G0wMGmicyJjyuryRfZJCvLAKRrJ/lTU3Or4wavIyei4P2GuMym5lbXTT4PH1U6uW2hl7KLm4Zcq66hERgypeUWFDF72Le2qcj+2UxmKE3SZnIhTHzPBJiYV+vrNw4unhu9t3d19xAsHMdl3c7/4UfriJMx09Mzb1RvHTd4Obh4Pq9/QdZZ9/YN7Np3ULHG9l55hcHA8zw/PKJubGqWnPPFxFDoDksuSquEeIOGzJw8sikpOYUk6HNlDtJmgA30TqiNTc3w5UoowVhXVbV3KB3W01vjQ/6SsnKlw3r4UEZ8YvLu4ENkR0We59Oz7pgpLMG1AuePBNfIXC2irgwfsaKSOkKirLzC1tGtubWNPg4zODJz8uAgUyYcpLnRaQAlE2SkL4RpJIAEgAC8HsjMyZPcp3V0dGybfxCzh/2ps3EkVg4ftKVFCb5uQfYKjI1PYvZQb+/otHNyBzGBNdfkM2pMo0gqgLybB94F7Wsx/sbHdU4k/ZZP6msxYSz56jCZAS8DhGGOfyKBlUJA7PBwHJeZk0d/eBE+spFXUCw5DgWFIXsZwzjufMJl2KULfqXFzRSPS+z80I4KsBXrBq11ptgsH/MS7766UtoU7fzKCXy/Ma/5+fmLl1PMFJabf99ZXFZeWFy2zX+3mcISYl4LC4aSew9WW9h4bPXv6vlH3IpMnxeLF/NgZlSD+RXKr6quVayxvX4zU60eVbV3hEdGO7t7k1HZ9ZuZ2bl3e/v6NRptY1NzYHAoCQC1tLbB17jHxjVDwyOL80EKisiJxPjevn4Xj63hkdHdPb1q9WhJWbm3X+Da9ZvIUBDGbHsPhNU1NHb39JZXPIEPc+j1C3+dPuftF9je0alWj05OTdECJwiCWj3qE7Bn74Gw1jYVlGzn5E4cQcnKMgCJkRDOs3V0e/mqRaPRtrS2lVc8OXT0z1Xmyv2HjpEPhIvLnNHpgg8e2eK7i7izUCbdNMYYMqXN6HSHj0du899d+7x+bFxTVV27aVsA+QA5kxmuIlMdumqY/g4J0DEvjXbi+q0s+Kbq3NwcTeNtR5frJp+16ze1tqlmdLoz5y+aKSx/+NE6OPRo0tUbEVExFsp1ZgrLwODQoeERQRBGR8d2Bx8yU1hev5Wl1y9+yoP+jw42mbK2Eb5sGHPholo9OjQ8Mq/XT01N7z90bO36Te92JO3u6W161XInvzA+MRmCzpIKIz5ImwE91NsvsKW1DVTC1dPn17WuRH/orkrX5WZGDnntSR+HFc0wqbPpVYuVnXNC0rXBoeHBoeH0rDvefoFKh/XgWsHHs63tXbJu54O6RkTFuHr6EJFkBE2sqPR1BUGY0emO/Xna2t7lSkoazDvLzr27dv0mohKmMGdwpaRlOG7wqn/xcmxcQ4SOuS7+iQSQAE2A47jE5NRV5sqAoP0l9x5AZ8wrKE7LyIHJsLXP663tXRKTUweHhnv7+i9cvGJl51z7vB4K4Xk+r6D417WuRBnCI6PpWH9sfNKva13dN/uVVzwZG9fUPq/ftC3Ab9c+0kMrnjy1snOOiIppaGzq7ul9XFl9+mzcy1ctxhRA3s0T+1qMv/FxnRN41fE5fS0mjCVfHSYzNBkDhL4ZMI0EVhCB2PgkWLeoVo/WNTTeyV+ceL7awuZGejaJ4PM8n5Gd+5OVfXzS1ZbWtrcdXeUVT06eOQ/fzQC/xdXTJyIqprund3BoOCHpkmvzKAAAIABJREFUGgmZvZ/HJXZ+GEeFWf0NwGkPyhSbZWJeYl90BbUpmvqVE/h+Y16CIHR0dm/zDyLbxMA0IsUa2+Ky8oUFLr+weJW50s3LF/ZsZhqSiXGIR2vMg5lRDeZXKJzjuIKiUscNXmYKS8cNXvmFxar2jsDgUNiuvuJx1ebfd64yV5opLO1/87h0JWV6eoY+0dbRzUxhGREVMz8/z1yOGN/6+k1A0P5V5srVFjYhYSe6e3rDI6PJmFMQhN6+gfDIaBhdO27wIpNmBwaHgkOPrjJXWijXNb1qoQUOCh8dGz99Ng5O3Oi9vaSsnKi2ZGUZgMRC0FPSKGYKS2t7l5DD4fUvmsiEF2b3fXJuZk6emcKSzLOA43TTGGMotlCnm72aesva3gXaIi0jh0QoxJklnwHEKkx85wTomFdHV7f/7v9Y27s8r3/BvLjT6WbPxSWaKSzTMnL0+oXR0bHTZ+N++NGa7gv7Dx3r6u6BE4eGR/x2BZOPPzKQ6WCTsdEXrRI8z1fVPHP19DFTWAYE7YcV1jrd7I30bFCk1RY2AUH77z949N77eQmCMDA4FBJ24t3sWtCf3r6B+MRkoj90VyXVgcAW06nJr5k5eR5b/UfUo2D/Ru/tZgpLC+W602fjev7p9d/9H+JaMepaUFTa3NrmtysY1JURNMhMKyq5IknM6/XFZeWgyavMlfDuZF6vJxmYMuE4zZxOC4Kg1U6cOhsHcMST2kixmEACSIAmAPs0H/jjOLgfq8yVG723p2fnwpsAnuebW9uI2xMcerRN1c6cXvm0lkhHeGT0wOAQyQCi1NDYFBx6dLWFDWjL6Ng4ycDzfGubCn4F3yz6XDx881FSARghYtw8EEna1xL7Gx/ROalraKSfL5/B1xKHsWSqI85szPcjzYEJJLBSCDB7vTu5bTmfcJlsOU1qYTDwT2ue++7cC6M/100+V1LSJiYniV9X+bQ2LSMH/LSN3tsrn9aSsdJ7eFxi54dxVCTHO4zWLWkzccygmvQlJH1RQgMTSOBDCKyMmJfBwHf39D6vf9E/MMjzPMdxvX39qvYOEvQRBGFco1G1d/y7A/Tiqp/BoWFVe8e4RgN05ubmOjq7O7u6mX1wdLrZxqbmgqLSwuKy3r7+yamptx1dcNa4RlN6/2Ht83rxHIoPIY7nIgEk8L0RgPd4qrcdE5OT7R2dXd09dHCE0BjXaN6o3vb29UNcieM41duOwqKy7Dt3cwuKXrW8prXIYDA0NbcWFpfRq5VJUZhAAkgACSCBDyQgGYj/wDLxdCSABJDAhxNgIk0fXiCWgAS+bQIrI+b1bbcB1g4JIAEkgASQABJAAkjgqyKAMa+vqjnQGCSABAgBjHkRFJhAAqYQwJiXKZQwDxJAAkgACSABJIAEkMB3RABjXt9RY2NVkcCKIoAxrxXVXGjslyeAMa8v3wZoARJAAkgACSABJIAEkMBXRQBjXl9Vc6AxSAAJEAIY8yIoMIEETCGAMS9TKGEeJIAEkAASQAJIAAkgASSABJAAEkACSAAJIIGVRABjXiuptdBWJIAEkAASQAJIAAkgASSABJAAEkACSAAJIAFTCGDMyxRKmAcJIAEkgASQABJAAkgACSABJIAEkAASQAJIYCURwJjXSmottBUJIAEkgASQABJAAkgACSABJIAEkAASQAJIwBQCGPMyhRLmQQJIAAkgASSABJAAEkACSAAJIAEkgASQABJYSQQw5rWSWgttRQJIAAkgASSABJAAEkACSAAJIAEkgASQABIwhQDGvEyhhHmQABJAAkgACSABJIAEkAASQAJIAAkgASSABFYSAYx5raTWQluRABJAAkgACSABJIAEkAASQAJIAAkgASSABEwhgDEvUyhhHiSABJAAEkACSAAJIAEkgASQABJAAkgACSCBlUQAY14rqbXQViSABJAAEkACSAAJIAEkgASQABJAAkgACSABUwhgzMsUSpgHCSABJIAEkAASQAJIAAkgASSABJAAEkACSGAlEcCY10pqLbQVCSABJIAEkAASQAJIAAkgASSABJAAEkACSMAUAhjzMoUS5kECSAAJIAEkgASQABJAAkgACSABJIAEkAASWEkEMOa1kloLbUUCSAAJIAEkgASQABJAAkgACSABJIAEkAASMIUAxrxMofSeeaanZ2IuXLRQrlttYRObkLSwsPCeBeFpH4NAbkGRl88OjUb7MQr7usqYmpoOPniksLjs6zILrflCBHieb1O1xyYkFRSVzs/PfyErjF5Wo9F6+ezILSgymuOz/PDwUeXu4ENj45rPcrWPcJEVZ/BHqDMWgQRWGgGe5+tfvNzovd1MYens7v1G9faT1uBGevaJk2dmZ+c+0VWWlOvOrm47J/e6hsaPbsDA4JDvzr0yJX/qun/0GmGBSIAQWPL2Jjk/0MOPjU8KPRIBEmH6RcnVTUl8Jc6JeNA9o9NdupJioVy3ylwZFXOhobFpi++u7p5eUyqFeb49Aisj5qXXL2TfubvFd1dJWTnHccyfU1PTyak39x86tv/QsZCwE1ExF9Iycl6+atHr/0+MaXZ2rqrmWcyFi5t/3/mTlf3u4ENXr99629FlMPCmtOvs7FzokYjY+CRTMguCwPP85Ws3vP0CW1rbBoeGe/sGTDzxu822XMLLBfVtx7wCg0Ozc+8ulwnm/wwEeJ5/8fJVWPjJ9Kw7c3OfamRCV4Tn+ceV1ea/OIRHRk/PzNA/idOfut+Jryg/iNLpZm+kZztu8DJTWK62sNnmvzs968709BK1EF9lySPlFU+2+O5Sq0eXzPmBGWQIL0uUPpvBH1hfPP2bJDCv19c1NJ45f9F9s5+ZwtLBxfPw8cjCorIR9Whf/0BUzIVzcYmjo2OSdTcYeNXbjispab479662sLGycw76z6GbGTmdXd2mOGDzen3Fk6cBQftXW9iYKSyt7V2CDx6pqnnGcZzk5b7swd6+fmd37+s3M9XqUdXbjo+i+XUNjXZO7p1d3eKqpaRlhISdmNHpxD99lCPyci0IwgfGvHieb+/oPHHyjLW9C6P5/QODG723P615bqwin7ruxq6Lx1cQATJCDA49euCP4+GR0WkZOTXP6rQTk+JafOA4kRQYG59kprAk/6ztXU6cPNPe0cnz/xtvLnl7k9KmpqY/xMOnY16mX5Rc3ZTEp3ZOxI+AEyfPMMNqyUF3SlqG4wav+hcv1erRrp5/WlrbXDy2qt52mFIpzPPtEVgZMa95vT7p6g0zhWXW7XyO45g/NRptcOhRIi4kcS4ucWLyv6I2PKL+49hf5CeSUKyxzczJM2UqhMy4RfK2mJya8t/9n9t5hZK/fvjBmxk5n3SixPCIev+hY59zVtRyCS+X4bKGl8st/APzL7c1l5v/A83D0z+EAM/zDx49+cnK3pQI1IdciJy7cmNeMzrd4eORa9dvKiwqq3lWV1Xz7NKVlGMRp5aM3JG6f4UJGWX7EFF6XFlt+juYrxALmrSCCGi1E2diE4jjRBJr129qbVOp3nY4u3tv/n1n/8CguFLz8/O38wrNf3EgZ0FCsca2pKzcYDCIT6GPqNWjAUH7LZTrYuOTqmqe1TyrK7n3IPRIRFl5BZ3t/dKfws+5V17hsdX/404glYl5vV/FTT/rk8a8OI5LTE5VrLHdeyCsvOJJzbO6RVlLSDp1Nm5er2eM/BSNxVwC//z2CBgbIf5s43j9VhYd+frwcSKhFxufFBx6dHBoWK0erWtoLLn3IDA4VLHGNjE59cMj9cvtCHTMi1j4IYnlGvAh1xIEYUanO/bn6dUWNlExFx5XVtc8qyuveBIYHLrawqagqJSEEcWDbp1uNuRw+M2MnA80AE//Zgh8CzGvcY0mOPSolZ1zXUOjXr/Q2zdQUFTq4OKpWGNbev+hwcDP6HRnL1wyU1g6bvAqKr0/oh7V6Wa7e3ovXUlRrLH92cax4nHVki8bZcYtknfDko6C5FkmHpyemdlz4PAnjXk9rqz+zCsBl0vYRFYk24cML0khnyKx3NZcbv5PYTOWaToBjHkxrGS0saGxSemwvrm1jTllRf8po2zvLUocx508cx5jXiv6xlgpxuv1C7cyb//wo/VPVvbXb2b29g3M6HR9/QNV1bWPKp/Ozc3JxLx4nq+urYMpPH+dPqdq75iemVGrR+tfvCy9/3Bcs8TK4tnZuSMnohw3eKnaP8mb+U/h57x3p5a5H77VmFdBUalijW3u3b+X9MAFQfgUjSXDHH/6NghAzAtGiDzP63SzXT3/JKfe/MnK3kxhefFyik43C4GVDx8nEmLiMBPP8w8fVVrZOecVFJMwDcm/rMRyO4LYmGVdTpx5uQaISzD9CM/zV1NvWSjX1T6vp88yGPjcu39b2Tk3vWqB42LHUnyELgHT3yGBby3mBVKi1y9cu5FuprCMjU+am5traW1zcPF0cPFsbm2jtYbjuNt5havMlYeO/qmdmJybm8vIznXz8i29/1AciWfGLZ1d3Zt/36lq78gvLIZlOI4bvLJu58/r9RzH5RcWw24O8D4TllLnFhSFHonQaiegA7tv9lOrRzmOe1T5v0n7G723V9U8I0YODA6FR0ZbKNfBfP5jEaf6+gfaOzpdPX3oV6Z1DY2dXd2btgV0dHZX1TyDX6tqnkl2eMYh4ziupKwcrF1tYbM7+FBX92I0EBYR0PaLdZOe0w7XqmtobH39xm/XPjOFZWZOHvQoUotV5sq9B8LaVO2SPY0hnFtQdPh45LhGA4uxLZTrrqbemvv3PwC42sImJOzEwOAQlEZaJOt2vq2jm5nCcqP39vsPHhFfiqk4z/O1z+t9d+5dZa60UK6Lu5Ss1U5AURqNdvPvOxsam5petWzz322msPTbta/19RtBEEjtHDd4FRSV0veJsWpCafUvXlY+rQXO1vYul66kwHItydYUBGFoeOR8wmX73zzMFJYWynWnz8aBeZL5xQ2t1U7EJ12FkYbjBq+0jByywkLeHsmmwYMfQmDJmNfU1HR61h2Prf4//Gjt4rE1NS2TTFDlOK7+xcsDfxw3/8XBwcVzz4HDB/44HnI4/Fbm7dnZueERdWpapt+ufastbBxcPM9euNTXv7iGmpnntSxlY2pK64Otoxt9IwmC0KZqDw49SmuFmcIS5G5ubi6/sHjz7ztXmStXmSsDgvZDDxIEQXy7kosuObSTsUcssNm38928fIdH1KR8GDg5bvDq7euXEYRV5srNv+8koTdjXZvWEDOFpesmn2s30sUb6zDKRhtD20AUTPxMgVNI5qHhkR17QuhHwCd9/0EbjOnvkEBnV7ebl69ijW1hcRn9yCMoZGJe7zyrg2EnFp2xhCTJ9Xdj45ozsQlHTkT19vWTAkmiqrpWscb2cWU1OSJO0A+7bf67a5/XEw8qNj4pPjG5t28gJOzEagub1RY2waFHu7p7BEHQ6xeM+Tmx8Ula7cSps3GL+Q8eAbNlrkJMeie/RyOiwGGD7gl7UdGqZaFcFx4ZTfwWQRDEwiVecC0jjMQxKykrl5E7QRBkqrCkXGfn3i0pKwffkvi6UHHaD4QjxgSTgILEiHrUY6v/qbNxkjcVvWpSprHIRkWCINCcmacV/RPIe35hsbHrMnbinyuaABPzgros3g/3Hpj/4vDrWteGxiae500cJxoMhqrqWi+fHUlXb0CwTBIO6ZX0rxzHxScme2z1H/l3RwWm48zNzaVl5MBwkn641zU0EpfJWEeQH0jSxjAXJV2VHmNCV5IcmRozgDgnUF/aNQLVpcd9MLjrHxg8fTYOdtry3bkXWoHGBem+/gFnd+/L124QVSd5pqam9x4I++v0udnZRW+TGXTn3v2bPgJzOBghpWUBxr9kvSQhIz9uJcZgYkUQ+DZjXhzH5eQWmCkso2IuTE1N38kv/OFH65Nnzotdrq6ef9w3+zlu8GpTtQ8MDnn7BZopLM8nXCYBAtKKzLils6vbwcXTfbNfRFSMqr1DrR7Nup1voVyXW1DE8/zk1FR3T+9G7+3pWXc0Gu3k1BTP87kFRcEHj0Sfiz9yIupxZXVDY9O8Xj+v1yckXcsrKB4cGh4cGk5Iumbr6AavNMfGNX679oVHRnf39I6Na+oaGq+kpKnVo3r9Al24RqPV6xcg5vXuHaxPwJ6i0vs1z+rGNRoilKQW4GCRCVwwsdza3uVKSlr9i5c1z+oyc/I02onJqan0rDsbvbd39/QS+2ndhAJp9YRrpWXkbPMPys69W/OsDobfvX39Lh5boRZQQSe3LW87umiTIM0Qzi0o2rEnJO5ScklZuVo9+rTmuYvH1us3M2PjkzKycweHhlta27z9AolL2tnV7eS2xdsv8MLFK719/XAtxRrbgqJSKJ8R5bLyCis756zb+Wr1aGubKjA49PDxSLhDoC5XUtLOxSWq2jsGh4bPnL/osdW/vOLJH8f+amxqVqtHr9/MVKyxraquhcJlqgmluXn5Bh880tjUPDauuf/gkZ2Te3xiMmxOJ25NQRCaXrWcOX+xsalZo9HWPq/ftC3gTGyCsfxMQ8OdExgcCpd7+KjSzcuXqZ0xe8Ttgkc+kIB8zEunm01MTqVdHDOFZdLVG7OzcwaD4f6DR7AmSOmwXrHGFrIpHdYnp97UTkyKT9x/6Njo6BgT81qWstGVhTdsdk7u9x88GhvXwH2YkHQNhgpd3T1OblvSs+7MvJtBPjtXWFRm5+T+quU1lKCdmDx1Nq684olaPdrd0xseGU1cPeZ2pa+oau9QOqzPzr1LQtX0r/L2iAW2s7vHcYPXPWoNlF6/EB4ZfSzi1LxezwhCQVHpT1b25+ISa57V1b94mZGdC+NSma4N/hNoyODQ8L3yivTsXPE4ilE2uka0DTLPFDiFZOY4bmh4JDj0aFTMBY1Gq9FoxYE2+iqYRgLvTcBg4EvKymHcYmxalkzMq/X1GwcXT2NbqMB271Z2zqstbEruPWB6Pc/z5xMu++3aR68/YiqinZgMCNofGBza2qYCN8zOyZ3MCIiNT7L/zcNjqz94EfCg3+YfBCJpzM85cfLM0Yioc3GJ794gtrS2cRwnfxVikl6/oNFoad9Jr18AL8vOyZ3Y8Mexvxw3eBEvSCxc4mV9zFCNXFEQBOKY9fb1y8idfBWWlGsnty0RJxd9XeLAkFVatB8oCIKMYNJmC4JQ19BooVzX2NTMHCd/kpLBqabBglNN6g5veq6m3jL2tCooKrX/zQMeZL19/XfyC0vvPyQXwsQ3TIBeCUTHTbQTk4eO/mmmsExNy5ydnTNxnDij00VExZgpLAODQ41tX0j3SgZsU3OrhXIdhMLJ7Q0xpsTkVG+/wI7Obo7jevsG9hw4HHEyBralJi6TsY4gM5BkjKEvamyMKQiCsQKNGUCcE6hvQVGplZ1zetadwaHh7p7eM7EJVnbORJZzC4qs7V3cN/vBUA78w//H3pk4NZF8D/xforYsKrVSfA1sFqigwCLCIiiCsngAKquIKx7ACioeKKCgKCrKKYewAVlRFJAbYwTEYDjkPhMIZ5jM/MT3/fWvfzPJAF4r7Nui3M5MT/frz0y/ef2m+7W5eIXPK6ttHFzevFXzSMLPexk5njsCRsfGhYPuqalpemylm5g0GllakZoc/8K7ZvlKzKRUePC7JbAWfF5CL75ON3E88oyFRHrnfpZeP3UpPslCIk3PyhWORha14ZHjVj85Pq+snpzUx5y/7O23x6S/mTduAcUBYye4u2CfkY9OREmRe59XqACHmlAMkmdcq922cy98tAc3lsmopcLCQR4f/0D4gAAFCrPxfF7qdo29k7vJj6g8FcbTm1A+rT2hLgdnj3ZNB2kOwzDn4xLpAKvzBsPJqLPgviHZIMEjnFeoWGclo2UrKS2TbLAvKComFypVzcR2BGHob4bwUWXbzr1gqdMtgg+MeQ//Iq9AiDsLPixoy4HD4Xr9FNSlm5j033cwIOh38pKDhly4cpVlWfFmQmk8w50WxuRtIm2EhHh+XgmZOfke2/wHBodIIe2aDkfXrXTrROQhV2HiixAQ8XmxLFvX8NJW7urm5fe8spr4lX7e6Nb48tUHX0bosQirnxxLSssMhoVxrfb0uUsfZisoHj02Go2wOWNqWsar1y3jWm3li1o3Lz9r2aYXNfVGo5GOYa/XTy1fs9FNVrdrFh+bmjpyUKlqdnTdCk75vEJFQNDvk3o9nIXQCTdS00hmOiHUFSanJjEMczc9e52VLDAkrKFJyVOVS8rDU7Dg4YqIjiX7mcA3Q/CC0X0KFEJ6Vi5RCCC8eNeGCRpL+pt4mo3GQssAiETeKXRmkTLp8jGNBD6TwPz8/NXrqRYS6c3b90k/4pVpzudlNLKPnzyTbLAPDY8057fq6e0LCPo99FgE+cBOCoeHnO6/5BRJZObk02YPhDEmX8LiEpLX28hprwqtiHjmEJQJwadp24DjOPFaiDCQoPspx3FCK+vDR4LQ8EhiBS3HMqSHarzqiN9HXN2tqAk0JbAugkKOElUPs2UdXbeCdUpnFleYPMnzChUuHj7wcZR3Cn7SJZu7WcTkFn87xCUk40pwk5DX/EFzPi+GYbIeFFhIpNGxcVqtbpnjRIPBkJ330NF1a5Gi1Jw+NDlcAs5d3T2OrlvJEI9seAq9jP4+V1vfSHoHz8LnaRjhHaQHkjxh6D4lMsbklckrUCgAfURoTTEMcznxOlHLoPFKSstILbzyyXHo9cLpqyRDbX0jcZbxKJlcUkArUqFmhmJXpMSIJJhYFQTWjs9rnZXs7MX4rAcFaRk5AUG/W0iknjsCNB1dMzOzUTEXfvjRNr+wWBgtdVKvP3Yq2tLaDiJ/idwz3hgDFAetoXivZGH3yytUkM5priKoBRQiKI6oMxdGx8Z5+YWFgzy8YaQwG0/IIkWpuWCrtAqD2olpRYShtSfUdTnxOj1o1E1M+vgHFilKySUcx93LyPHxDxRawDzCQnuooUlp7+ROvo7SU99JmndHVM2ttnJXVXMrr+FNSpXTFm96w1oIkpWQlEIUJT16B9nAw0XaQoCINxPI0KXBF07yMJi8TaQWSDQ0KcnsPGF++ohJUeFgzPnLDMMsKQ+vavz5mQREfF7zBsP1W4u7c5D5QQsLC3fTsy0k0uu37r7v7du+a5/bVj9Nx+J2XUajMb+w+Icfba/dSBVuuzE3N3cpPmlxusTi5rb/z+clLj+v39GZixSlvK46NDzi7r0LenReoWL/4WMkury4zwueOvi8ST+udHWQZlm2tU194HD4OiuZvZN7Tl4hmXW7pDykT5Fiq6prXTx8yLKpktIyMt2MVnFNSpX8F09at0AJ4l27qrrWxsHlg+dLOC+DCMBxnAhhWoYl3yl0ZpEy6aoxjQQ+k8DMzGx0bJyFRJpbUCS0oKBw8z4vY25BEYwqRdYBmZNwyYd8fn7+2KloeGuTQp5XVju6boWXe1xCMu2XJy93YinRfQpKiEtIJt/J4MiStZCqIcErM69QIbSy8goVZCC3HMuQHqrxqiN2CMdx5tTdSpsgVNc8AwZeBGBu0XaguMLkSc4DxTtLjDp4a/BMOMhMt1387ZCZk+/g7FFRVcObSyisFI+sMQLmfF5GI1tUXLrOSnYy6uzo6PgXGScSdPSTSQ7y9A/dcaDH0d/4P8fnBZqTaDlaGLpSkTEmLTOxYUiBwp5LHxGO1GDII3PcDNO1hIM7EVVPl8yTasmRlNDUpBWpufHvipSYUCQ88j0TWDs+L3px0Dor2anTi0sCIWDhmQtXzFlsuonJsONR623kj58+p501wnvG65O04iCZ6c4p7Gz0WXKJ0cg2vlSFHouAyE3QCqJZ3mk6IVhPeERM40sVeVsLCzcpjzAbz26gVSERCRJCaYWZ6UpN1gUZ6FsDaeK+oSvlERYKQGsruJAWgE6TYumDdIHwnUEoGHwJFLaFJxuUT4CIN1NY2pKaGl6NqWkZ3n57SLAkAk1YIH2EThMO9KcekxmEbOlrMf05BER8Xnr9FMxIFT6Kp89d6u3tDwwJW5zn9feThYUF3cRkzMfBZ2ZOPkyA6h8YvJGa5r/vINkTzdLarvjL+bx4+20TIUFBwVey9Kzcubk5hmFgxS6JJwp7S+87eASCysG1y/F5EdSjo2O37qbbyl3JslxxeegOTgoBqw6+KPImmdL56TS5lgy6SMNJAjojLPuyd3K3d3K/diPV5KZ1xF40OcuArpdWVkQGOgOdNqmRyFWYQAJfisDMzCxYUBmm1u1CLSI+r7xCxQ8/2p46HUuc48sXDB5ykXle8C4jvZIkiO+bvKNJpbzXH92nII+5S0jhJEFqIYVDglemsECeAcDLzysNfoq8oOnyzam7JUGtVF3TGGnFJW4L8ZomHPryMtAl82xXyEm3XfztMG8w3E3PtpZtctvqdz/zwbfckZzXKPz5jQmY93kZQTvFxMaNjWm/yDiRNI1+MslBYlGABUU/3jC3yMc/sLP7PcuywyOjoeGRUTEX4HMa3d1MdgTxgSQtDF0px3HmxpjiBQpVFn2ETpO20/UKM4jYM/TnAVIaSXzOPC8aCymQ3COi50mCDMHozJheXQTWgs8LNBrM8yoqLm1pbaPjds0bDDdS02B7DuHkiOGP22CTHT1Ebh6vT9IdmFxF92SekjKppxiGSUy+RQI9zM7OQS3E5/Vxcgf7Vv0ONmo9dPQkbIAtLNykPMJsPDHM9XleNmigMDNdqcm6IEN5xQsIOkP+hZXVhBskeIRpmJBBaPbRAtBpUjJ9kC4wr1BBopURqbRaHdjlwrbwZIPyCRDxZgpL45m8wgzvNJ1OW7w/hEBSt2vIKnSicIX56SN0mnBAnxeN4hunRXxeuonJ0I8BnslrlSQiY85PTE7mPfwLnJ4Ozh4QGtk3IBi8+arXLc7u2yG//BfPwJCwnze6fXGfF+y3TfcREj2KZdn6xpeOrlstJFKIUk82CZmemTl2KtrLd3dVde3YuBbC3Hj77Vl+xYrxAAAgAElEQVSRzwtuU1VN3XobOXz/JPt/m5SH7uDkFsNaJ1gw2NPb5+blRxY60fnpNLmWWD/iGmxubu7ps0rfgCBLa7u76dm89Zjo86J5YnrVESAW1KX4JDLjktcKcz4vlmXLn1ett5Hv2R8qjMvOK0T4EzYn5U3UorPByw6iptI6QTcxCd2QvKPJVbz3o7Djm7tEpBZSOCR4ZQoL5BkAvPy80uCn0Pgh2ejyzak7cVCfoK5pjLSVJW4LEZkh8byyer2NHKbh807BT7rkJY1S8bcDFKjXT+UXFrtt9bOVu5b8/UT8O7dJkfDgqiNgzuc1Pz9/OfG6hUSalpEzPTPzRcaJBA7dK8lB6PiSDfZNShWxLsg0xqmp6Zjzl8Gis5W73rx9n8yNpbubsCMsOZCkheH1KZNjzCULFKos+gidJm2n6xVmMDnCgmuXE8/L3LiYx42neGksRE5yX8StPjo/plcRgbXi8zpy3JzfCjaIXW8j3x18aHBomL43MGaTOW72DQgy94me5Of1SboDkzx0TxZ2NvosXALBZehVzTCpkvZ5kcLV7RqnLd6wGaKwcJPyCLPB0kLiPXmQXyScdQ81CqUVKog3b9WAnTdll8gMi7Qf5BeRIyIJHmGhAEKzj241pHnrKM2tbWxoUppcygTiCbnxZINsBIh4M4Wl8TSvMANM3qGXfxYpSsldE+anj8AqBt4yTJCfXtvIe8aEbEXuFJ5aEQERn9eHgHEnos7Aymuhr+RjPOD+XXsPgBnk6Lo1IfkmhGmbn5+/cvWGhUR66nTswOAQmdD6ZX1eJlflkLbPGwwxsXEm481DvyPeJY7jIIzFJ/i86GdbXB6hxgBRlapmZ/ftHZ1dJaVldBg7On9tfSNv3TRcK961CQowHPMe/kV2IKFPwdBdOF0FQkCGHosA05bWZuRyWkg6bVIjkaswgQS+FAFiQfkGBJsLvWTO5wXzCFw9d8gcNzc0KT/BxfB3Wfl6GzkJfsxrFPQC3suOzkPe0eQgrU+Eo0f64xC5ZMlaSE5I0P2U4ziTK2joyQu8/LzS4KfIC5rXRpPqTrwJy1HXvAWkdGBEWnEtX2FyHAeFwGY+JltNl7zkzRJ/O9DlzxsM9PZ59ClMrz0C5nxePb19Pv6BMsfNH9fQGJ8+q/z8cSKhx+uVcJxhmLMX44kRwnu8Vc2te/aH0nF4SWniWmvJgSQtDK9SUgVEHoQx5pIFClUWfcRkpIiGJiW9tpEMZ0AAEXsGhBHZt5EERuRRMjkspRWpufHvipQYDRDT3z+Bte/z4jhuYHDIf1+IhUQaeylBp5uAu8KyrLpd4xsQBKFz5g0GlmWHhkeUqmbiXKfvH69PmlQcdLcXdj/6LJQMhdBLuJWq5vU2cp4/AjKDAHTAKdqXZFIe8KDdTc8mtibs7UrUjbkYfmBe8NxhCUkpdBxTlmXTs3ItJFKRcSzM1/XbvX8533h5hIW4aG1FAwQBgAAdARriJpLYHHSBsASA7EBH32iTipInG+QnLxLxZgqfBJM+L/puftgrnY6UBGuyyF2DAun8vCryChW8GPatbWp7J3c6hj3vGROy5THBn59MQMTnZTAs3Lxz30Ii3XfwCG3rGI1Gg2HBaDQWKRbjTaRl5PCipU5NT0dEx/5vPHsWdsuCqUbCtY0r0mx0M0E/5BcWEwVCn4Wnrqy8Qni2oUnJ22qnpLRMXFfQJdNp+tEVl4fu4HQJk3p9QNDvuQVFYcej6Kg0dH5QCOZi2C9Tg8HGi/AJlxaA47jSsnJ7J/fm1jb6OEznhM8Y5Osi+eoLOWkh6TRoJJHRPl0RppHA5xAgFtSJqDP0JjmkTBGf1/TMzLmL8RYS6fZd+1rb1EJdYTQaNR1db96qFxYWSIEkAbsN+vgHmnO3Zebkk31syFUkQd7R5IjwXcmzc4SXQAx7kVpI4ZCg+yn0a0fXrbSZB2YYGarx8vNKg58iL2iewObUnQio5ahrMlAHeUpKy5y2eEOcRNr4FLeFeE2DfXitZZuePqsUPhhClSj0atFtF3878KpuaFKSoG+8U/hzjREQ7nLGsqymoyv496MWEmnUmQuwOQPRcuLjRI7jJvX6JqUK5haZY0U/mZCHYZjMnHx6K3m648CYKzAkjP7UTQoX11pQDq1heANJWhhepaQKMiE9ISllyQKFPZFWYqOjY74BwbQ1Bc4+OoY9Gc6AACZHWHAKtMRH1+QrWlqjkc17+JeNgwuJp8GjZHIoRytSc+PfFSkxWiRMf/8E/hU+L6ORffqs8j92ThYSqZuX38Ur127euR8Zcx6OBAT9DubU6OhYUMiiErxzP4s3wiTqgMRkMak46G4v7H70WXgypmdmQo4c9/EPbGltGxkZLSktc9vq9/NGN/BHdHX3xF5KaGhSjo1rBwaH0rNyyR4fBsPC6XOXfPwD2zUdIyOjk3q9SXlAWZDNm9XtmqiYC74BwUTdwBRWW7nrh7jyXd09qtct6Vm5sH1SS2sb7DU7Nq4dHBpmGEb1usXGwSUx+dbA4BDIAx9JRHxeHMf1Dwxu37XPNyDoybOKnt6+hibl3fTsO/cyhX2Dp/WEuGhtBZfTrYa021a/qDMXurp7BgaHEpNv0S8YXoHlFS9sHFyizlxoUqq6unueV1afuxj/6nWLSUXJkw1qp18kIs0UPgk8n5fwblZV10o22N+5lzkyMqpu10REx7p4+JC7JszPqwKWKvgGBNXWN46Na6uqa718d5OgSLzM0BYhW+ENwiOfRoD4vGwcXPYfPhYSdgL+TkadbW1Tv1W/c/fe9cEf5Oi6NS4hOetBwY3UtICg38srXjCM8dHjp5IN9pbWdv77QkKPRZw+dymvUDE8Mko2U9u2c29xaVlRcSm4703O81qOZgsNj6ypa6D/xrValmUzsvPW28gTkm+2tLa903SWlVfEnL8M8aEZhrlzPwvmoMG/Tlu8CxWPGIYBF9KhoyehJ6Zn5bp4+JAtuk0+gcC2qLg0JjaurLwCJMnOe7hxsxd5dMXl4XVw+mZl5uS7eu5w9dwBO07CKTo/y7L5hcXQ0neazpbWtuy8h61ti9tji3TtR4+f3rx9/52mU6vVQT/133fQpCk8PTNz8s9ztnLXG6lpJpsmHOAJhaQF5jguNS3DaYt348tXY+Nak5XSBDCNBD6ZAG1BObtvT0q5nZaRc/rcJc8dAYf/ODU2rm3XdLh4+Fha2+0JPkz0W2h45JNnFQzDqN9pfvX5zUIitZZtir2UkJ6Veyk+yX/fQc8dAW/V71rb1Bs3e/3Hzqmqutak40PT0eXqucNW7pqYfKuqpq6mruF5ZfXV66nQPfX6qUNHT27c7PUhhDnYMLkFRQlJKbCbKv2OhubzlI/QzhFewnGceC08sLx+Crrl541uWQ8KyAud9qDx8vNKg5/glsorVNAquqW1jWEYocAm1Z1IE5ajrn0DgkOOHG9tU4Ol6uDskZRyG+Ym02aYuMIUNg0U4zor2dETfxK1n5Gdl/fwL6FKFL9Z4m+HO/cys/Me9vT2abU6pao5MCTseOSZJbfcFQqMR1YdAfB5QfSb9Oy8azdSQ8Mj19vILSTSwJAwsr8NreVExolkiv2xU9ETk5PmaJCVtiMjow1NytyCIgjOS0c/4HWcnt4+MAXBmrK0tgsNj+wfGBQOSXgdYVKvFxlI8uau0pWaG2OKj0w5juMJwDAMT4nV1jfayl2TUm4PDA719PZduXrDxsGFTNflZRaOr3lUQUtYWttdik+CV0BZeUVgSJi1bFNJaRl5a/B0u5Abb+QlMv4Vsfp4suHP1UVgrfi8wk6YW9sI98NoNNbWN27buZceof3wo210bBxZ1Tg4NAzTwW7eMbEnN8/rQSsOcsvpnizsfvRZckn/wGBoeOSH+Rqg4Hp6+xOSUsDnpdXqomPjIAK0pbXd7uBDTUoV6d79A4MhYSfWWcmsZZtUr1tMysNx3Nzc3M0796EQGJE2KVW+AcEkhOe8wVBcWgYmqaW13ZHwSPiQyzBMoeKRvZM7fAmZn59nWbaqpo4Yr+cuxne/7wkI+l3c58Vx3OjYeELyTZDBWrbpYGg4by4D0OARFuIS+mXoVkO68kVtWkaO0xZvC4n0V5/fKl/UksD/vAJhe7iQsBMQL0n+i2fspYSh4RGTipInGwjMszXNNVP4JPA0L5iJ9N0E+NAKpy3eBUXF6nZNYEgYuWu8uy+sYmZm9ubt/7vvaRk5JBSLMLNQHvJ8YuLzCRCfF618LCTS/9g51dY3Moyx8eUrzx0B9FmnLd4NTcrp6ZnbaZmSDfb0KXiw2zUdmo4u34Bgcsppi/fxyDOSDfbCeV7L0WykHJKATmo0si9q6nftPbDOSgbfDG6kpk1MLobLuZuevWvvgcdPnpFhWFpGjo2DS1l5BcdxrW/e7g4+BArq3MX4vv6BY6eil9QVza1tJOz9OivZtp17C4qKyaMLSwhNymNy5Qu5d+p2jcxxM/nMCMd5CoFu6Tor2a69Bzo6F7fLFNFgza1tu4MPgQKxlbuePnfJ5CwYKAQ07bade9dZyaBpxaVl9IaPtDaDS3iN4gms002cvRgP7w56gTy5FhNI4EsRMGlBWUik+w8fIz4vojpI4n7mA4ZhWJbt6Ow6euJPchwSTlu829TtqtctP290s/rJ8XllNTFveGJrtbrUtAw3Lz+40FbuGnLkeGf3e8g2MzN7Nz0bXpdgKT1+8myZ8byEdg7vtU4kEamF5IEEr5+C1qp8UUtsp4joWBjKmsvPKxBe0Dx6FhJp2PGo2dk5ocAm1R3HcSJNEFfXe4IPt6nbS/7XUASbhOguoeIyZwsJ28VxHITPJ4rU0trONyCo5O8nQp/XkjeL1uH024rjuPLnVaB7LSRS+S+e126kTk1Nm5QHD64xAuDz4nUfj23+BUXFMMOLtNekluONE2dmZmHi6pHwSJNzsqA03o4Kzu7bLydeJ4NNyEN3nM7u97v2HkhIvkmsqeeV1YEhYXv2h+r1UzyjXdgRRAaSIj4vkTGmeIFCAXhKj2VZsI7WWcksre1Cwk60qdsJZ17mJX1eQi1hK3eNjDkP8zNIsTxKJodyvFGkufGviNVHqsPEaiSwOnxeRiPb1d1T3/iyr3+AZVneT4Zhut/3qNs1S77D5g0Gpao5t6AoO/dhkaK0p7ePtrGMRqOqubWouJReZLQab+q/U2b6/fHvJICt/m4J6CYm1e2a1jY1/adu1xCTa2JysqKqJregqLSs/M1b9YegbAzDKB49lmywP3riz3eaTuPif4u7+Vy9nro4F/VepsGwMDMzq1Q1FyoeFRUvarNJvf6dpnNcq118YY+ONTQp1e80DMN8Dc2mbte4ePjAztMEu8GwEBEdSybDkuOYQAJIYA0QIBZU1oOCnLzCyhe1MOqbmZl9p+mklVtrm7pN3T4yMkpMLFjD+PCvkuzch9l5D0vLyiEQ4dzcXOWL2sdPnhFluAZAYROQABL4TgjACPHN2/9aX2/eqnt6+0yGTwWBiZYzOU5kWfZ9T2+RorRN3U4+qH9mS2ExHcTbpYtSNbdCKFL6IKaRABL4ZAKrw+f1yc3DC/89BNDn9e+51/+Gls7MzMacv2z1k2N5xQt63FhQVLzOSmZyLuq3xNKkVDm6biUzoaDqSb0+KOTovYycbykJ1oUEkAASQAJIAAkggdVIADaeEn4sfPqs0t17F6w+WY3tQpmRwPdGAH1e39sdQXk+kQD6vD4RHF72XRIwGBbupmdbSKQhYSfqGl62tqnrG1/eSE2TOW62lbvW1jcSR9g/Iv7YuNZ/38GoMxd6+/q1Wp1Wq2ttUx84HL7McO//iMxYKRJAAkgACSABJIAEvisChYpH8l88yytegDU1MjKa9aDg541u5nYQ+q6ER2GQwGohgD6v1XKnUM4lCKDPawlAeHq1ERgdHYuIjuXFoZBssL+f+eB7CL7bPzAYGXMe4vSts5L96vNbaloGCTm32mCjvEgACSABJIAEkAAS+NYEGIYpKS0jIeds5a6hxyIaX6q+1PLJb90erA8JfJcE0Of1Xd4WFAoJIAEkwHFGI9v9vqe4tGwxCE7uw0LFI01HF5pB+GggASSABJAAEkACSAAJIAEkgASWQwB9XsuhhHmQABJAAkgACSABJIAEkAASQAJIAAkgASSABFYTAfR5raa7hbIiASSABJAAEkACSAAJIAEkgASQABJAAkgACSyHAPq8lkMJ8yABJIAEkAASQAJIAAkgASSABJAAEkACSAAJrCYC6PNaTXcLZUUCSAAJIAEkgASQABJAAkgACSABJIAEkAASWA4B9HkthxLmQQJIAAkgASSABJAAEkACSAAJIAEkgASQABJYTQTQ57Wa7hbKigSQABJAAkgACSABJIAEkAASQAJIAAkgASSwHALo81oOJcyDBJAAEkACSAAJIAEkgASQABJAAkgACSABJLCaCKDPazXdLZQVCSABJIAEkAASQAJIAAkgASSABJAAEkACSGA5BNDntRxKmAcJIAEkgASQABJAAkgACSABJIAEkAASQAJIYDURQJ/XarpbKCsSQAJIAAkgASSABJAAEkACSAAJIAEkgASQwHIIoM9rOZQwDxJAAkgACSABJIAEkAASQAJIAAkgASSABJDAaiKAPq/VdLdQViSABJAAEkACSAAJIAEkgASQABJAAkgACSCB5RBAn9dyKGEeJIAEkAASQAJIAAkgASSABJAAEkACSAAJIIHVRAB9Xl/4bnV0djk4ezQ0Kb9wuaaKe/qsMijk6Ni41tTJb3Rsamr6wpWr1rJNltZ2cYnJCwsL0zMz126kWss2rbOSnblwpUmp2r5rX1d3zzcSCKtBAkhgTRP4HvTedwi4f2Bw194DX/zVg7S/w3uNIiGBfzmBu+nZkTHnZ2fn/uUcsPlIAAkgASSwTALo81omqP/L1tCktJBIyZ+bl1/yzbujY+OQ41v6vMrKK7bv2jcyMvp/wn251LzBUF7xYnfwIUtrOwuJ1FbuGhlzvqe3n66BZdnrt+76+Ae2tLYNDA7B2dS0DKct3o0vX42MjHZ2v29pbXP13KF+p6EvxDQS+FcRYFm2o7Pr/OWrjq5b11nJtu3ceyk+qaauYWZmlnAYGBzKznt4MDT8P3ZOltZ2frv3X72eqlQ1T0/PFpeWhR6LCAk7Qf9duHJ1eGRUr59KuX3v0NGTIWEnDv9xKiI6Ni0jp6auQTcxSUpeMmE0si9q6nftPbDOSmYhkTq7b4+9lPDd+qk/R+/19Q9cTrwu/8XTQiJdZyX71ee3azdSR0fHlkT0/Wfo6x/41ee3FzX1X1bUz6H9OZJMTU1fu5FqK3ddZyXbHXyo9c3bzykNr/0cAr19/WcuXLkUn8TrKQODQ+fjEs/HJQ4MDnEcB9lCwk4cOnrySHhk7KWE9Oy85ta2eYPh02qfnZ0LOx4Vl5AsvDwuITnseNT37/KAJhBz0dLazjcgqLi07JOZCFF8b0e+zdskNS0jNDxyembme2s+yoMEkAASQALfJwH0ea34vjQ0Ke2d3F+9bhkZGW1oUmbnPdy42ctv937wPX1Ln9eKRV/2BdMzMyf/PGdpbXfmwpXnldU1dQ1l5RWBIWGW1naFikcsy0JJk3p9QNDvD/KLSMEzM7OhxyLuZeSQI5hAAv9yAkYjW1VdK3PcTEY+kDhwOHxcuzhJ02hka+sbnd238zJYSKTx11Im9frkm3eFp7x8d/f09mm1upCwE8Kz/7FzunM/azmeL5Zl8wuL19vIE5Jv1tQ11NQ15BYUBYUcfat+BzfuXkZOXqHiM2/i88pqk2PXzyx2+ZezLFuoeARjTsWjxzV1DVU1dSm37/1x8vRyKC2/olWdc2h45NDRk1qt7p9tBcMwCUkpXr67larm3r7+qDMXPHcEDH+drzv/bEtXRe3qdxoXD59tO/f29Q/QAnd2v/fY5u+xzR/84+2aDhcPH6Euijl/eVKvpy9cZnrN+LxCwyNBtVbV1F2KT7K0tktMvsUwzDI5rKJsS75NPq0t//jr49PExquQABJAAkjg+yGAPq8V34uGJqWDs0dHZxe5sl3T4eDsAY6eNeDzYln25u371rJNtfWNpI0wMs97+JeNg4vqdQsc12p13n576PGw8AhdAqaRwL+QALil1lnJ7qZnj46OTU1Pv9N0Pn1WWdfwEoY9Xd0923fts5BIA4J+b2hS6iYmdROTLa1tJX8/6ex+Pzc/Dz6vrAcFwmESFG7j4NLQpGRZdmZmtrP7fcrte+tt5BYS6dXrqfRUMpPwdROTPv6Bd9OziS+bzjY1Pb3/8DG6j9Nnl5lmGCbm/OV/1ufV0KS0lm1KSEpZwzMslnk7RLI9r6z29tvzj/u84JkkX1PeaTrtndy/+LJNEQ54iiawIp8XuMbmDYZ3ms57GTk2Di62ctf6xpcm1QtdizC9ZnxetOpjWTY9K9fFw6e37//Nmhc2fzUeEX+bfFqLvofXx6dJjlchASSABJDA90MAfV4rvhdCnxdYZhHRsQbDAs/nNTg0TJbSWMs2nbsYr9NNQJVarW7bzr2NL19Vvqj91ec3WD947Ubq1NQ0ZOjo7Nq2c6+6XVNQVOy0xdtCInXa4p31oICM2fIKFWR8smRmhmFKSsugIvpLrHA029vX7+Lhc/3WXaGRqtdPHTgcfvrcpdnZuYKiYrq0sONReQ//oo+AbDxctBiW1nZBIUfJesn+gcGI6FgIBHbgcHibun3F9wYvQALfH4GBwSHfgGBH162tbWqhdAbDws079y0k0sCQMFgixMszbzAs3+cF1y72sr+fWP3k+PNGtyalymg0vtN0Hv7j1NXrqcIJFyJ+6nZNh9tWP1pdNDQpIX9Dk7L1zVv/fQctJNLMnHyO4+bmFnXCtp1711nJ6PVog0PDe/aH0oUQnSPS5ckp+kJQKbTe4ziOZRdnycHCTFg32tzaxmM4PTMTcuT4gcPhev0U7xT5SZdjaW0XEnaCVkF5hYpjp6LHtVoIVmgt23Tz9v25j//BFwJLa7vQ8Mj+gUEoENR7k1Klet3iGxBkIZH67zsIC/QIN6ct3oWKR8SPKVyuRb9NlvO+4IWSpBnKf/HMelBgNBoZhnlW+X+L1n/1+a2qpo5lWYNh4dqNVFjJDsxh7ZgIbXOU+voHzl2MB02+a++BJqWKvEpokWzlriejzpoc+cMMYjJf+M1btYOzh6q5ldwsTHxLAp/g8wLxpqanI2PO//CjbUFR8cLCQlV1rbffnuSbd5d0xMPly/R50d2EYKF700o7L8dxmo6uyJjztnJXMMxu3lns7FA4lCbykBMZOI4z2QQRo8jeyT0tI4fUpdNNJCTfBDGsZZsOhoaTl8iS+ooYhyAPT8/HJSTHJSTrdBNnL8YvduQjx2GdIF2jrdw1/loKCENbbjwh6fbyaqFPQVq8HPos2IcvXzWbfH3Q95fjOFpspy3eNEOO4+ISkhOSUnp6+0PDIy2t7UBxdXZ1C8XDI0gACSABJLBWCaDPa8V3lmevELPGpM9L9brl/OWrSlWzVqurrW/08t19Pi4RBjlgHLh77wo5clypah4b1z5+8szB2SMhKQUydHR2Obpu9djm/2Flh7pdMzIymvWgwFq2iYwY6dHIkpkLFY+c3bc3vlQZDAujo2MxsXF79odOTJoI+vO8strGweXNWxPjc47j7mXkeO4IGB0bn9Tru7p7fvX5LT0rV6vVTer1U1PT9BHdxKTRyNK4GIZJSrltK3e9kZrW+PJVTV1DZk4+LCzq6e1z9dwRER3b1d0zMDiUmHzL2X37O03nim8PXoAEvjMCuonJ0GMRP/xom5qWQQYzRMbR0bHAkLD1NvInzyqMxv+uGiZnOY4T93mNa7UhYSfIPC9yoW5i8uiJPy0k0ttpmbOzc9m5Dy0k0o2bvciQieQEf1DosQjibSenDIYFukdrtTqDYQEUV1pGjm9AcHbew5q6BnBb6CYmz16MLyuvGBkZ7eruiYiOhfVoDMMMDg2HhJ04c+GKVqvTanUQhUeky4+Na/33Hbxw5eqHVhgMCzV1DQ7OHo+fPAPBaL3HcVyh4tF6GznER2t8+SojO484nkhDYFRcUlpGjggThYpHNg4u6Vm5A4NDXd095+MSbRxcyFzXvELFnv2h8ddSSkrLRkZGX9TUu3ruuHMvMy4hOSM7b2BwqKW1zcc/kAwdgdKN1LRL8Unqds1i5KPLVz13BJSVV/xx8rRS1TwyMnrnXqZkg31VdS0IwxvFcRxHD+aX876gfV6dXd1OW7wDQ8LKyiualCrFo8fVtQ3wOCUm38ovLB4YHAJNa+/krm7XsCw7qdenZ+X+6vNbV3cPqHSWZYW0xSnZyl09tvkDE3gMyLRouK2g5MfGtQ1NyhupaSbjUcJcYx//wOGR0amp6T9Onhb3VwrvJh75ggSW6fMSZgOf1zor2V8lf+unpqPOXADnPi8umDlRTTqMIDPdWehuQoqiM6y083Ic9+RZRWLyLXW7hhhm4NnnOC6vUCHykBMBIGGyCSWlZWSeFzzqoN/GxrVgJcLKx9nZueORZwJDwlrb1FqtTtXcmnL7HllhsKS+WtLnFRlz/kTUmUvxSVU1dS2tbQzDQA/19tujePS4SakqK68oLi1jP/538/Z9k0Ly2ivyNoHvEyLlmLQPx8a1Jl8f9P0FsQNDwsCQfvqs0t1717FT0STaV1xCsvwXT88dAaC9W9vUgSFhvgHBy3wOeW3En0gACSABJLAaCaDPa8V3jXbiwMUDg0Me2/zBJDJpfpE66PEDjGH89x2ko8nQGaCok1FnycQulmUvJ14noVuXnxkMrxupaUSSd5pOpy3eJr+c5xUq3L13DQ2PkMx0ora+kYxhoAnEB8dxnPAIjUvdrrF3cn9eWU0XyHEcwzDn4xLpiKTzBsPJqLPEP8jLjz+RwCoiwDBMkaIUZtDs2R/6vLKa9i6p2zXO7tvdvPzIYDKczAEAACAASURBVIbXNOLzCgk7kZmTn/WgIOtBQXbew7qGlwsLC+Z8XgzDZD0osJBIo2Pjpqdn6htfOrtvT0hajA7GK5/juFevWxycPTZu9sovLObNhBL2aDji4OzRrukQFkWO0JpQOPAT7/INTUoyJoSR0oUrV+GjAow5yXBueGTUc0dAelYumUlEBKATDU3K9TZyk+oOsgnLYRjmcuJ14sPKK1Sss5LRuquktEyywb6gqJhUpFQ1O23xBk89UKI9NbqJSf99BwOCficDLdByF65cBeHpURyUSTOEApd8X8ACQMBL106E5CXGtdptO/cSHU6/UyAnfWQ5lCwkUtq3SJff0dnl5bvb3HPOEwzGsT7+gd5+e3YHHzI5BZJ3Cf78SgQgUJet3DX55l3QP/Dv1eup/7Fz4sXzImG/WJZ93fLG2X07zNEzGAzZeQ8/bOJRpCg1GBaWI6pQb5Cr6M5CdxOTGVbaeUkhkBDaXSIPOe9aXhMYhml8qXLa4p2Uchs+barbNY6uW6tq6siFSlWzo+tWdbsGurzJJb3L6YlESULJUBrp6XEJyRYSad7Dv2jNmZmT77HNX9jXRIQkYpOEyNtEvBxz9iGPIVREPwBCsds1HYtUqc8J623kSlUzEdLkM0POYgIJIAEkgATWHgH0ea34ntJOHIZhOru6A0PClhnDvqFJSQwRMEFoPxTHcXTh8Fb+u6ycFpEegdBp8cxgNJClIhzHifu8iJB01ZCmJeRZUUv6vIoUpZ47AsbGF+N20/9BDIgiRSl98F5Gjo9/IO0QpM9iGgmsIgJ6/dSd+1lWPznCqrGfN7otbt01P89xXJNSZSt39Q0IFo40oIHE50Wv8rOQSM9djJ+dnTPn8zIa2aLi0nVWspNRZ2kXmzloo2Pj8ddSrGWbLK3tomPjBoeGIae5Pn458To9WBIWCxfCgE04aBHv8g1NStrtzrKsOZ9Xk1Il/8VzyQmhtNYSigqK197JnVdOQ5NS5rgZZrzmFSpoN5zJS+hxlFC9AwTi4QIx6JEbnYaz4gWafF8AcF48LJNNhoMgFRkJ0+8UyEAfgf1bVkSJvvUwUI86c4Fscywi2OjY+KnTsRYS6badezF6vQiob3DKXHB60Eg8n5eltd2e4MMhYSf2HTyy3kYu2WC/GJDho65bqajw8PD0HvlJPv7R3YRUQfemlXZeUghJ5BUqSHXC0uiHnFwCCWETNm72KiktIyuaixSlPDtnaHjE3XtXkaIU5kx9MC9J/AdS+HJ6Is+K42nyuITkbTv3wiYqUOz8/PyxU9E8BQWnRIQkItEJc28T8XLM2Ycm8ZL7C2d5YsPBmPOXgXNcQnJA0O/09x4eDVp4TCMBJIAEkMCaJIA+rxXf1oYmJbG6YMP7kLATZDUNz/zSanWpaRkf5oqTOCnEEDH50qXHZryiQFB6BEKnl8ycmZPvtMX7Y3AfVq+funDl6u7gQyY9Sl9vnhcxU3jQQXiaKqQJK15+/IkEVh0BlmXf9/TeuZfp4OwBj3dCUsr0zMyr1y0yx83bdu41GdiIXtu4onleRqMxr1Dxw4+2MbFxy4yeAzG5nj6r9Pbbw5uvRHwiJv3acC/mDYbyihf7Dh6B6DPQRnM+L/EuD86RC1eu6vVTRiPbpFQ5u28v/V/vP6336LTII7HkPC+T5dBKVZiB1tVQNZ1fqN7FR24QdIaMq5dToIjPi5aEh8VoZBtfqkKPRch/8SQql9xfYTPpI3SaFEvXJczAa/U7Taf/voOW1nbhETGNL1UmF/NyHNf4UuXg7BF15kJ940sv3937Dx8jX0ryChW84SuRBBNfiQAsWlzmPC/yUEEkrKfPKol/Z6XiwcNDNj2ErQ/h39DwSNJZ6CeQVEEbG8LHUrzzchzX1z9wOfG621a/dVYyaBGpTlga7yEnMpDAF2RZd3LKHd5EKphvRUODNHTJ4ZHR0PBIyQb7wJCwiqoaMuVfKANvKbQwA08j0XxAYF4GuhXiQtI56fTc3BzvbSJejlAkKM0kXpLZnNgkg0nVau4qWn5MIwEkgASQwFoigD6vFd9N+ML26nULHZuGlEKbXzCX6kNcG3W7hgS3In4cky9d2hSjiyLl06YMnV4y87zBcOtuumSDvYVECtH0zX1sX048LxiBCJsgPEK3iLZCSIuIrVZe8QKQkn8BGp0T00hgtROYmZl9+FfJf+ycHJw9mlvb3mk6XT13QNpk08g8L5P7Npqb5zU/P3858bqFRJqWkbOwsKyVRKT24ZFRH/9A+Egu7NHCIxzHTc/MHDsV7eW7u6q6dmxcS8J+ifu8RLr8O02nt98eGP796vNb5Yta4h+h9R6dJvILE2/eqm0cXHhzZulsJsuhlaowA63ZoCg6v5CS+MjN5MBMvMBP8HkxDJOYfMvB2QPi2szOzoFU38znBfv/vlW/O/nnOUtru0NHTxJnFrkdev3Unv2hlxOvg6+kt6/fxz/Qb/f+gcEhmPlicn8VcjkmvjgBYaAuqKKz+73HNn/ePC8XD5/nldWq1y0wTS/2UsLU9H+35VmpYCa7DBRC2xJ0NyFV0BlW2nlr6xttHFyuXL3R09s3qddDVLvP8XmRfRshDsbN2/fJJNm4hOSQsBMDg0PE7OEZlizL9vT2xyUkW8s2+QYEdXa/563vJk2mOQibzNNINB8ogZeBFAuqSVxIOjMvTb9NxBsrFAmKMvkYkMzmxCYZTKpWc1fxhMefSAAJIAEksGYIoM9rxbdSONShi6DNjhupabzwK0WK0n/K59Xb1++/L4TeiYwWm04vuW8jCbMltBuER2hcD/KLTK5thJgvZGd6WhhMI4G1R0Cnmzj8xymrnxwrqmrGx7WHjp784Ufb7NyHJidEfJrPq6e3z8c/UOa4ufHl/+2at3ySZMAg7NHCIxzHqZpbbeWudMCUru4eR9et5nxe4l2eZdnUtIwPsQvJvAZacno4V1vfKFyTSGeGNOwDSEatwgwm10jy1jYS1Q2X05oNjtDKX0hJfORmcmAGrjpgKCxQxOc1Nq713BEg1Kig2+l4W7AKcpk+r0+gZLLVgEvdrnHa4k1Cg5ObQmOEg2Pj2v2Hjy3uAHP5qpuXX09vH8mMiW9AYJk+L1429TuNu/eu/9g5VVTVEIf1iqQVeXiIgiLfzKCbQPkMw8Scv0z6O60xIINI5zUYFiKiY+k4qhzHJSSliJQmIqfwVF6hgkREBe+VSaNICGpgcMhv936wvj6hJ8KSSdLTaYBQ18zMbOixCN4iQTiVV6hYppBCsWnNJl6OOftQyJAu0+SSTLiEXttIbh9IaFKdmhQeDyIBJIAEkMDaIIA+rxXfR6G1RBdB2+sftoLef/gY+cgJEYvJwMnkS5cunC6KVEFbb3R6ycwNTUq3rX7m1k+R8sneOh9Hy6/o40Yjm/fwLxsHF9XrFjgubILwCN0iczFKIeIyiYlGV4ppJLDaCRgMC7yZVj29fb4BwTYOLvWNi3HoIcSyzHHzk2cVQreXuM9Lq9Xx9m1kWVbT0RX8+1ELiTTqzAUIYjJvMDS3tvX09pH5BSJU9fqpA4fDYXAFPZr2ngj7ODhfeJu9lpSWWUiktM+LHk2Jd3kYsdxOyzQ5VKb1njCWs7l2lZaVSzbYZ+bkCwlzHDc6OuYbEEzHwmcY5uzFeDqGPVHdUAWt2eAIrYSFlMRHbjCuDgo5SoLOsCybnpVLGAoLFPF5mYthDxLSkfiVqub1NnIyEhYOSmnan0DJZKsBF5xKSErh3TJwzBGR4OykXn/gcLiFRPrwrxJefvz5tQnwnFmkOt48L142g2Eh60HBDz/a7jt4BOIDTur1TUqVcGYfKZCXEHl4aJcNuNefPqskl8N0KuLmoJ9hyCPSeaFS4i7hOA52nxApTURO4SnoRGcvxoMiAqMov7B4OZo5LiH52Kno+fn5JXtikaLUbasfHSPyeWX1OisZ6VY0QMJNGAweTq1ISFIaJOi3iXg55uxDYEi/PmifF/gNeStGW9vU9k7udAx7cvtAKpPqlCc5/kQCSAAJIIG1RAB9Xiu+m0JriS6CHvZUVddKNtjfuZc5MjKqbtdERMe6ePiQgZPJly5dOF0UqYK23uj0kpl1ugkYBsNyoXVWst3Bh1rfvCUl04npmRlYewL7WNfUNZSVVwSGhFnLNpV83LsaMgubIDxCtwhW1tjKXT/Ep+/q7lG9bknPyoX4rP0Dg9t37fMNCHryrKKnt6+hSXk3PfvOvUxaKkwjgdVIoKW1zX/fwYtXrmU9KLif+SAy5ryNg4uFRHrgcDhs4fdhMeDRE39+GM//8KPt0RN/3s98kJRy+2Bo+MbNXo+fPJudm0++eddCInXa4h1y5HhI2An4u3Dl6vDIKPi81lnJzl6MT8/Ou3YjNTQ8cr2N3EIi/Rj8eHFGjNHIlvz9xNLaznNHACyNoTF2dnV/qD2/sBgC5UBPJ/G8DIaF0+cu+fgHtms6RkZGJ/V6YR/nOA58T4eOnuzq7hkYHErPynXx8LGWbSKTL1LTMpy2eDe+fDU2roVBr3iXBxcVKCsIDHTzzv25uTneuh6WZfMLi9fbyBOSb77TdLa0tmXnPWxtU9MNhDTDMEkpt0Hvlfz9BBqbX1iclpEDAbZr6xtt5a5JKbc/zKfo6e27cvWGjYNLbX0jXE4rWzhCazY4QithISXh6Jc3clO9brFxcElMvjUwOAQMYabeJ8zzIruUHDgc3tCk7OruKSuvKCgqhrWBPv6BLa1tIyOjJaVlblv9ft7oRkbCLa1tNg4u6Vm5Y+PawaFhhmF4DV8pJbrVXd09sZcSGpqUY+NaaKCDswd5QoAhbOObmHzLWrbpRmoa3KbcgiLfgCAHZ489+0M/bDDa+FJFMmPiGxDgObNIjeI+L1ALQSGLzve76dlTU9NXrt6wkEiPnYqemJwkhYgk6IeHl4122cwbDFExF7x8d9fWN2q1OqWqOeTIcW+/PcTNwXuGec5iKJnuvJk5+R9281A8ejw2rlWqmoNCjjq7bxcpTUROk6dKy8rJt0OWZTOy80CDtXxc6l5WXhFz/nJXd49uYvLMhSvPK6tHRkaht8p/8SxUPAKBxXtiT2+fq+eOiOjYru4euNbHP3DjZi/S02mAhO3IyKjf7v2+AUHlz6t6evuqaupg/wERIcm1kBB/m4iXI2IfCl8ftPywsv6Diqitbxwb11ZV13r57j52Knp6ZgakojPDEaF+5jUEfyIBJIAEkMAaI4A+rxXfUOFQhy6CtpwYhilUPHLa4g3j1YKiYnW7JjAkTKvVmQsFTRdOF0WqoK03Oi2eeWxce/iPU1FnLlTV1MEooqqmLiI61s3Lr69/gBROJyAi9e7gQxB931buGhlznrd/kNBuEB6hWwQBuYtLy371+c1CIrW0tjsSHkn25BodG09IvgkBsK1lmw6GLo7WaJEwjQRWI4E3b9UbN3sR9w0k9gQffqfpJN/2x8a1CUkpEG6P5JRssC8tKyc+L3IcEl6+u3t6+8DnxTvlsc2/oKiYzBgyGo0FRcXrrGTu3rs6Ort4DLVaXXRsnLP7dihE/ovn5cTrZN9GjuP6BwZDwk6ss5JZyzapPsYx9PbbQ8ZOpLTWN293Bx+CbOcuxvf1Dxw7FU26sE43cfZivKW1naW1HVlbZ7LLs+yih85zR0CRohSUVU1dQ6HikYOzR2paBs/nBR69FzX1u/YeWGclW2cl27X3gLCNICSEbz/8xylr2SbYfuRXn9/Ss/MMhsV4ZyzLNre2QRMsre1Cwk7QK8FpZQul8TQbb42VUBOaHP3SgzGWZatq6kA3QsjF7vc9AUG/f5rPi+O4nt7+iOhYaKzTFm/YGLd/YDA0PBJuRGh4ZE9vf0JSCrmb8M6yd3KHSYLz8/O8hq+UEt1qeNJAw1ta2+0OPtSkNL3wdm5uLi0jx83LD27Ttp17M7Lz9PqpeYPh2o1UGweXp88qSd8hTyAmvhIB2Ldx2869PGuhq7tHGM+LzmY0shVVNf+xc9q42au+4eW5i/EWEumR8EiTm+cIhacfHt5ZuuMsTsXSTZy7GA+P+q8+v1XV1JWWlYt4qcQ779zc3M079+FBhWCCjS9fHT3x5+ws3+cOUonIafIUTH0KDY8Ep4zRyBINZiGRunn53UhNm5icnJ2dS755F/aaWGcl27Zz7+Mnz8jUV/GeyHEcUciW1nah4ZFd3T0R0bGkp/MAEry0TraVu965nwXq0ZyQ5EJILPk2ES9n3mAwaR8KXx88+WdmZm/e/u8tc9rinZaRAx9IQCpeZnPmN68t+BMJIAEkgATWEgH0ea2lu2m2LZk5+fQqS8gHS0jIoNTsxXgCCSCBzyDwMQhxX0lpWXbuw+zch4WKR61tamGkKpZlh4ZHHj1+CtmKFKXvNJ0Mw7AsOzg03KZub21T038dnV0fQpkwDNP9vufN2/+eevNW3dPbJ1y+N67VPnr8tLa+EQYwn9Gar34pTBmj199BlTdS08gg9qsLgRUgASTwvwRmZmbfaTo7u7p5Wmtubk7T0aXp6AL/gslsBsPCh+lgber2oeGR7vc9RYrSNnU7cdz8bw34fySABJAAEkACSAAJfEUC6PP6inC/n6LpCKxEqubWNqct3m/emlgHRPJgAgkgASTwLQnQwe9JvQzDnD53iQ6yQ05hAgkgASSABJAAEkACSAAJIAEkYI4A+rzMkVlTx2Emf97Dv8bGtVqtbmxcW1ZesXGzV2LyLeGUkDXVcmwMEkACq4rA7Ozc8cgzgSFhHZ1dWq1Oq9V1dfdEnbng7L79naZzVTUFhUUCSAAJIAEkgASQABJAAkjgHyaAPq9/+AZ8m+pZlq2tbyTBuaxlm/YEHy6veMFbqvBthMFakAASQAIiBHS6iYTkmxDIxkIidXbffjnxOi+WkMjleAoJIAEkgASQABJAAkgACSABJAAE0OeFTwISQAJIAAkgASSABJAAEkACSAAJIAEkgASQwFojgD6vtXZHsT1IAAkgASSABJAAEkACSAAJIAEkgASQABJAAujzwmcACSABJIAEkAASQAJIAAkgASSABJAAEkACSGCtEUCf11q7o9geJIAEkAASQAJIAAkgASSABJAAEkACSAAJIAH0eeEzgASQABJAAkgACSABJIAEkAASQAJIAAkgASSw1gigz2ut3VFsDxJAAkgACSABJIAEkAASQAJIAAkgASSABJAA+rzwGUACSAAJIAEkgASQABJAAkgACSABJIAEkAASWGsE0Oe11u4otgcJIAEkgASQABJAAkgACSABJIAEkAASQAJIAH1e+AwgASSABJAAEkACSAAJIAEkgASQABJAAkgACaw1AujzWmt3FNuDBJAAEkACSAAJIAEkgASQABJAAkgACSABJIA+L3wGkAASQAJIAAkgASSABJAAEkACSAAJIAEkgATWGgH0ea21O4rtQQJIAAkgASSABJAAEkACSAAJIAEkgASQABJAnxc+A0gACSABJIAEkAASQAJIAAkgASSABJAAEkACa40A+rzW2h3F9iABJIAEkAASQAJIAAkgASSABJAAEkACSAAJoM8LnwEkgASQABJAAkgACSABJIAEkAASQAJIAAkggbVGAH1eq/KOPn1WGRRydGxcKy793fTsyJjzs7Nz4tmWczYuITnseNQXKWo51ZnM0z8wuGvvgYYmpcmz/9RBlmUbX7761ec3C4nUxcPnrfodx3Gq1y2+AUEWEqnMcXOTUnXuYvz1W3cZhvmnhMR6kQAS+B4I6PVTIUeOFxWXLinMcrT38ktbsjrMgAQ+gYDRaBwdHZuZmf2Ea1fFJcu0tVZFW76UkKh2vhRJLAcJIAEkgAS+GYHV4fMyGBaKS8tCj0WcjDrb2qZmWZYGxLJsXcPLP06ePnriz6qaOqNx8ezCwkJDk/LoiT//Y+e03ka+J/jwzdv3W9+8JX6H2dm5qpq6C1eubtu5d72NPCjk6M07999pOuFyuvzlpBualBYSqeeOgOGRUWH+3r5+Fw8fC4n0S/lrysortu/aN2KqLrr21LSM0PDI6ZkZ+uCnpUV8XkYj+6KmftfeA+usZBYSqbP79thLCV3dPZ9WkchVff0Dv/r89qKmXiTPlz3V1z9wOfG6/BdPC4l0nZVs2869xaVl8wYDXUtPb5+Lh8+de5kjI6Pqd5q5ubm+/gE3L78LV66OjIx2dnWPa7Wnz126FJ9Enj36ckwjge+EACgxC4mU/vvHPd3fCZzliMEDaGlttzv4UHnFC1pj6PVTgSFh2XkPlyxwOdp7+aUtWR1mQALmCPT29Z+5cCUk7AT9FxoeWVb+/FnFC2vZpsiY83r9lLnLv//jHZ1dDs4etN6zkEi9/fZotbpl2lrfTxtnZmbvpmc7bfG2kEgtre18A4LSs3Knpqa/oISodr4gTCwKCSABJIAEvg2B1eHzmjcYkm/eBYskKeU2PYTgOE6vn4qIjrWQSH/40bagqNhoNM7Pz9/LyAEXDG3HXL2eOj8/z3Hc0PDIHydP06cgLdlgn5mTD3lWdAMampQuHj72Tu5/l5ULLywpLXNw9rCWbfpSPi9hFV/7iDmfF8uy+YXF623kCck3a+oaauoacguKgkKOwnSnry3VVy2/tr7RVu7q7bcnt6AImnYjNc1W7ro7+BDtbfy7rNxzRwA95662vtHde9fQ8MhXFQ8LRwJflkBDk9LGwSWvUAFPO/zb0tqGvlrgPDU9HR4R09HZZQ57Q5PS3sn91esWrVbX0tr2vLL63MV4a9kmnsYwdzkeRwLfJ4F2TQd8tOOZTPcyctaSz+tuejat+pqUKp6p+X3eHVqq6ZmZY6eiN272KlKU1tQ1VNXUXbuRejLq7NT0Z/m87mXk5BUq6IowjQSQABJAAkhgdRFYfT4vH//Ant5+mnLrm7cbN3vRPq93mk5Xzx0/b3R7+qxyUq/XTUy2tLaV/P1E/U7Dsuz0zMzFK9csJFKnLd6KR4+HR0ZnZma7unuu3UiVbLD/j51T+fOqlc72amhSeu4IOPzHqZNRZ3l20vTMTMiR4zGxcY6uW9eez0s3MenjH3g3PZs3+Y6+Qasx3dPb5+q549ipaN4suYHBIb/d+6NiLpC7nFeogA/CpJnCI+QUJpDAd0ugoUnp4Owh4tP5biX/NoK9eat28/IT4WMSYG9fv49/oFCTfBuZsRYk8PkE1O80Lh4+23bu7esf4JVmMCy87+nVTUzyjq+unzDPa/WaZ4R2k1Ilc9zc3NpGjnx+Ymp6ev/hY+jz+nySWAISQAJIAAn8gwRWn89LssH+0eOnxCdlMCykZeTA50cyz6tJqbKVuwaGhI2OjgnhtrS2fXA/ObpubW5toz01DMM8yC9aZyU7euJP3cSk0Wisqq719tuTfPPukuEqGpqU3n57njyrcHTdqm7X0JW+eav23BHw9Fmlg7MHGFVarc7bbw/PhqAdJR2dXdt27lW3awqKimGOutMW76wHBeb8LCzL1tY3wupCWIIHRg89OYuUmfWgwN7J3UIi/dXnt8dPnhGSDMM8q3yxO/iQpbUdnK2qqSN86KLo1plsC52Bls1atin+WopONwEZOjq7vHx3azq6qmrq3Lb6WUikd9OzHZw93rxV0yW8eat2cPZQqpqFhmn/wGBEdKy1bJOFRCr/xTPrQYHRaOQ4TqebSEi+aSt3tZBIfQOCausbSUPoS2zlriejzvb2/T8XKlR9IzXNaYt3T28fLQmkn1dW2zi4tLS2fbjwRNQZqB2ewKLi0siY8/SRvELF7Oxc2PGouIRkUhQtwzLFJtdiAgl8JQImXTZQl1ar27Zzb+PLV5UvaiF0na3c9dqNVHrJTJu6PSTsBGgPMh8k7HgUx3HiumVubi4tIwcUHbmQrARnGKaktAwqtXdyT8vImZv7b4DCvELFsVPR41rttRup1rJN1rJNN2/fn/v4383b961lmyyt7ULDI/sHBgkxcXUkonVzC4rofs1zc0P55gDW1jdayzZVVddyHEcU5rzBcDLqbMz5y/Q0OoZhYs5fhg8ntMqlIYCGLygqZhiGlEYaSKs+py3eNC6O4+ISkhOSUnp6+0PDIy2t7Syt7ULCTnR2dZPLMYEEhATM+bxYllU1t56IOpOelTs3Nzc1PX07LfPilWu19U1Xr6e6eu6AN2wLZWgNDY/cTsv033fQ0trO0XXrxSvX4P3LsuzrljcR0bGKR49LSssO/3FKssF++659mTn59KrJ4ZHRhOSbbl5+P/xou23n3rvp2RBNwmBYePqsck/wYUtru583up25cAW+jLIs+07TefiPU1evp07q9cKmwRGhaUFyrsgw4zhO09EVGXMebA9buevNO4saCUoDfdXXPwDTP9dZyXbtPdCkVBHjhOO4z7QNzKkg0hxaP/BMI57hZCt3jb+W0tr2FmwzopkbmpRCtUOL/avPbyWlZUStLefdQcTDBBJAAkgACSCBr0RgNfm8fvjRFjwyp07HEvNleGR0z/5QB2cP34Ag4vPSdHS5bfWzcXD5OGNr0QlC/mMYJreg6IcfbWPOX+ZN4eE4rrP7vcc2f6ct3m3q9umZmagzFywkUnO+M1Imx3Hg8+p+3xMQ9HtmTj45xbLs9Vt3z8clqt9pVuTzcnTd6rHNP+rMBXW7ZmRkNOtBgbVsE3GT0XYYx3GFikfrbeSX4pNq6hoaX77KyM6DYR49auro7HJ23+7jH3jl6o2e3r6BwaHE5FuSDfaFikcg7bzBkJh8K7+weGBwCM7aO7kT/x1dFGkdx3Ewiy30WAQ9+qUzlJaV2zi4ZD0oGBkZbW1TB4aEkSkP4PO6cy/Tb/d+xaPHNXUNXe97/PcdvJGaRpdwIzXNf99B3cQkzzDt7Op22uIdGBJWVl7RpFQpHj2urm1YtNsmJncHHwoMCWttUwM6B2eP2vpGjuPGxrX++w5GRMd2dfeMjWsbmpQ3UtPohYpQL3zY5A1HiUhDwyPu3rse5BcZ9Sc4twAAGnJJREFUDAtarS49K/dXn9+6unu0Wt3MzKxuYpI+Mjs7x/N5fYLYpGpMIIGvR0BkvASDHHfvXSFHjitVzWPj2sdPnjk4eyQkpcDYprOr29l9e3pW7vTMzOzsXJGi1MHZ43XLG5BWRLcwDJOUctvHP1DT0cUwTE9v//7Dx6JiLhgMCxzHsSx78/Z9B2ePx0+ejY1ra+sbvXx3JybfgkrzChV79ofGX0spKS0bGRl9UVPv6rnjzr3MuITkjOy8gcGhltY2H//AkCPHiaoXV0ciWndqerq84gVZuvjxo8j/CysJbwGTE+Um9fqAoN8vJ15nWZYeLpaUlrl4+NA+d4j8WFJaBv4pEkytUPFI/osnQOjp7cstKHr0+CntQQPOoN8CQ8LgHj19VunuvYvoWyhT/oun544AIAYK2Tcg2OTHoa/3pGHJq4uAiM/reWW11U+OEdGxH16auonJI+GRxDlCEr/6/PZO08lx3LzBkJRymxyHxKGjJ0dHx1iWhaJ4Zy0k0pt37kO4idHRMV75Gzd7tbapGYYpLSunXdIWEunhP06Njo4xDJOd+9BCIoWc5rDzTAs6G21rdXR2iagIuOrJs4rE5Fvqdg1RksQgzCtU2MpdPbb5g3bq6u6JiI6lNcbn2wbqdo3McXN23kPyLZNui4hpRKwjb789ikePm5SqsvKKxeil84au7p5ffX5Lz8rVanVarQ7MHvqrLYgdER0LxmpeocLB2YNo6SXfHbSEmEYCSAAJIAEk8JUIrCafl6W1Xcrtex927nN03dr65i2MiJ5XVlvLNp0+d+nPsxd/+NE2v3AxntfMzCysXlxnJYuIjlU1t5IZUnNzc5fikywk0vSsXPIlisAd12pDjhy3+snxeWW1wWDIznvo6Lq1SFEKAzCSTZgAn5dWq8vMyQcHDeQZHhn18t1dVV1LG1X0sIcUxTOtHJw96GWSLMteTrxOhkB05uGRUc8dAelZufTXQiiWdlSBAGcvxpNWMwyTkJSybefeca2J/R/HtdptO/cSLxtdFJEZEq9etzg4e3xYXppfWEx/kuU4DmTLe/gXkQ0ivsOUBxDJxz+QDvx/IzUtIOh34tOE4SJ4wWiGDMOcj0s8cDicVyPHcZk5+XSZ4HaEcS942URWJ0GL4Abdy8jhtRR+fhjUhx6LIPO26HsBGXhHaJ/Xp4ltUgw8iAS+LIElfV60ZuM4jn7O8woVdLeFPsJzXhNpad0CfY0Og1hb30g8Qep2jaPr1qqaOnKtUtVM5tLmFSrWWcmeV1aTsyWlZZIN9gVFxeSIUtXstMUbhtzLUUciWleED1RnLsP8/PyxU9GgvWnlDx4uuu1/l5WTttMqNy4hmSgc0jShzyszJ99jm//A4BDJ067pWAT4cYoZ+LzW28iVqmaSgVaq5CAmkABNYKU+L2f37Y+fPh/Xal+9btmzP9RCIs3OfcgwDMuyber21LSMV69bxrXayhe1bl5+1rJNL2rqjUYj8XnFxMZ1dnUPj4zey8hZbyP3DQjq6x8A79UPP9r6BgTXN77U6SZUr1sqX9TOzs719C4uH7aWbcrOfTg0PKJu14Qdj1pnJXuQX7SwsFDf+NLZfXtCUgoxKuimQVqkF9BaDrKJqAheyUKzzUIiBY825KQ14RexDRiGuZuevc5KFhgS1tCkJMYeVCdiGoHhxNMecBWtsoRHTIpdVVNHtDRcLvLugDLxXySABJAAEkACX5XAKvN5FSoe3bqbbiGRpmXkGAwL0zMz5y7G2zi4PH1WeSk+ifi8OI4bGBz68+xF8s1w+659L1+9NhrZmZnZqJgLdE6a76Ref+xUtKW1Hb18ks5gLk18XjCdigwqqqprA4J+581REtoQvAEkmFb0WIiXgbbDmpQq+S+eMKjjiUePmkyWqWputZW7fliewLuQ4zjw1CzH58Vx3OjYePy1FFhMFB0bNzg0DAU2KVVOW7zpPRxhClVCUgrHcSASqQIugVEuAUgPcSE/rA+FOGIP8ot4ksPwEsonp55XVju6bu3q7oFBb9SZC6Nj4+SsMGHyBpFstA+Ld18gD313CEkYsn6a2KRqTCCBr0eAt+0gKE96OTbPh0W7ePIKFfsPHyORksV9XrRugb5G+61on1eRotTHP5COFgSzLIsUpdD1iIcIsEAUeVoZ0kpjOepIROvS7TV5F0QyEFVM6xYYLpIhNKx2PB+XCCNVcgkMRx2cPSqqanjTN+jSgOqFK1fJBwaifMiU1biEZNo1KfSamWwXHvyXEzAZw/7njW6vVM0m53ndz3ywsLA4T9NoNOYXFv/wo+2VqzeEWwPBB0hLa7uPS+H+6/PatnPv+55eAD44NOy/7+DiN842tU43cfiPU9ayTc8rq+knnGXZp88q19vIT52OhcnmLMtW1dRZyzaFhJ3QanXLuXegJYi5CAl4ZdNvc8gmoiKEdeUVKuhPlTx9RdsSX8o2YFm2tU194HD4OiuZvZN7Tl4hLK4UN43gLE97QHNoJSM8Amd5lhj48uCrIWQQeXcIoeERJIAEkAASQAJfnMAq83mVlJapXrfIf/HcE3z4wxSqd5pOt61++w8f6+3rj0tM5nmyGIZpbm07H5e43kZuIZFa/eRYXFqm10+duXDFQiLNLSiC2E80U93EZNjxqPU28sdPn9N2FZ3HZJr4vOhxC6SFc5SENgTPdUKP00h1tO1lLk0yQ4IeNZkskz5oNLKNL1WhxyLkv3gS4484pOiieLWQn3Nzc0+fVXr77SETK/IKFaQoOgHWJF07KQQWS16/dZf9+N/1W3fJ0iQ6P50m15IhHF0XpMkKgneaTggmEh4R0/hSxRtDQlFwg77GPK9PFptuI6aRwNcgYHLfRpgEalJl0S4edbvG3skdwvowDAMrH1WvW0BOEd0Cfh8f/8DO7vcsyw6PjIaGR5I9IuISkoV92UIiBb1Eq0GoiBYJjtA97hPUEV2FsHDeXTCXAUa2wnleHMdVVde6ePhA3EB6DixvbeO8wXA3Pdtatsltq9/9zAdkJE/fFzpNC0arbjoNecxdRZeA6X85gRX5vKx+cqx8UQvmk9HIlpSWWVrbXbhydXZ2MaxV/8AgBCuw+skRuraltV3xYvin//q8wo5HTUz+NyL+6OhYUMhReyf31y1v3vf0evnudvHwUb/7f/FSFxYW7v1vRFeervANCKLnPIrcRNASvH0b2zUdKzXMOI7r6x+4nHjdbasf2Tec9nnx4gDSPi9aU9GiQg/lNc1CIiUmDZ2ZTo+Ojt26m24rd4XVzeLliOgB4Sn6iEmx6XbRmYl45lQlyYAJJIAEkAASQAJflsBq83n9/UQ3MXky6qy1bNPTZ5VZDwp++NE260HB1NS00OdFSI2OjSckpVhIpHuCD/d9NLksJNKr11OFHx6HR0Z3Bx+ycXBpaFJ+ms+L47jnldXu3ruGhkd6evu8/fZASCzaMjBpBNCDKzozaQWdwVyaZIYEPcIxWSY5yDBMYvItB2cPiPNColCtyOcFlQ6PjPr4B8LMgrxCBYl1BcEg4F+YD0Jq54ldUloGM+F1E5P++w6StQB0fjpNXw5sSewJUqluYpLM8zca2bfqdyf/PGdpbXfo6Mmxcf7SzmXG84J66Xth8ght/32O2HQzMY0EvjgBkXGISZVF52dZtr7xpaPrVguJdJ2VbHfwIbJDyJK6ZWpqOub8ZRjULUZ9vn2f7BkSl5AcEnZiYHCIdGRIwPhZ2PVokYAP3eM+QR3RVQgL590Ccxlg1gNMPuWRpFUc0XtQLK294YheP5VfWOy21c9W7lry9xNedDBeyUQ2uhw6DRnMXUUuxwQSWNHaRtp8on1eMzOzqtctzu7boafLf/EMDAn7eaMbz+cFocGAOe3z6uzqdvPyc/fexdtywWBYuHnnvtAlZCGRbt+1T7jRpMm7SWsJXgZaA5jMRmeorW+0cXCBkKmTej3Lsrx5Xp/s8xI3aXgy0z+raurW28ifV1ZDTzdXjogeEJ6ij5hkQts8dGYimDlVSTJgAgkgASSABJDAlyWw+nxeCwsLJX8/kWywD/796PZd++C739zcnIjPi+M4mBHm7r2ro7MLZsLvDj5EluABUxi2yRw3Q/yIFYEm87xIEKuS0rLMnHyyboW2DEwaAfcycog9RGcmYtCmFZ2urW+0d3Knl/OQS+gRDpQJa4JIBrK2kY6dDGdhpv0n+LzoGQoNTUpz6y7J2kZYPEVE4jgO5js0NCmVqmY3Lz+yeSKNZWxc67kjgDejnqzlMTlFn64C0up2jdMWbxJils4gvm8jHd2fvhdQAu8Ibf99EbFpOTGNBL4UAZFxiEmVReefNxhiYuNMxk5eUreomlv37A81OSMjr1DhuSNA6JWGJvM6msko8rTS+AR1RFdBt9ckc3MZIOgkrNfmkYRog2HHo+BbDsxvhcJp7U1XN28wJCSleO4IGB4ZpUszuToJlA+9tpHMOoEy6RLoWjCNBAiBL+LzmpiYvHL1hoVEeup07MDgEMsuBpo4c+HKMn1eff0DPv6BDs4esCc1kY1hmPuZDywk0rMX44mvnJxdZoLWErxLaA1gMhvJYDAsRETHEpMPyklISiE9juQkVXwD24B0cKjLnGkEq9FNniUlELHpIyaXZArXNhJLEgoxpypJFZhAAkgACSABJPBlCaw+n5fRyPb09m3ftQ++7MWcvzw1PU18XgVFizHs5w0Ges3ax/3pm2SOm7fv2tfb1z8wOOS/L8RCIo29lKDTTQBQlmXV7RrfgCALifT6rbsQ835Sr29SqsyNuOg7Qfu8YBjjuSPA1XOHyTlKYCXcTc8mU8n0+qkDh8M/zee1ohj2tEHGMMzlxOsQwx6MOTqqjlLVvN5GTiwVcwMwGgKkoS0QlQZkIzv48DKbtCA5jgPbMTnlTlxCckR0LNlAgM5vMnIqlJ+Zk08WV/Jq5P0EK5AX/Avy9PT2uXru+PPsRbLjGxwfGBzy272frL3irX2APDzTlrZrv4jYvFbgTyTwRQiIjEPoQQ6pi84PGcrKK4hOI9mW1C15hYrAkDA6aBe5FpZM5hcWC4s12fVokaAQWml8gjqi+7IwWBiRExLC2jmOUzW3Om3xPh55BuamCUmqmlvdvPyePqt0dt9Oh1YUUbkNTUoIUMgrLa9QwYtC3dqmtndyp2PYkxE4yMwrgdci/IkEOI77Ij6vsXFtRHSspbWd4tFjMM96evt8A4KW6fOampqOjDlvIZHeuptOz9AnGz5u3Oylet1CFAXLsvPz84v/GgzNrW09vX3klPCe0lqCd5bWACazkQzwoif+ZdhC2n/fQdLjSE5SxTewDWgNIG4aCXfAADlBRdDfF2mlAVsh8XYTel5ZTb4L0plJw02qSnIWE0gACSABJIAEvjiBVenzmp+fv3YjFUJ0lVe8YFmW9nktLDAlpWW79h64futudu7D22mZ/9Pe/T81ceYBHP+XmBvGYe4YTmSoMkj9AvgVlQNRLIpSqigjpS164IioVWy1StVSRaAgkCNCRVH8hiIXI1AMRhIDAQwQJL1AMCQnPjN7OxtY6o14F337g5Nkd588+3rg4dnPPvt5dmZ+NS9kYUBQ6IlTP46Pj09OTiU9/evCJQFBobFxiYePfV90/kJO3iHxSXLqF2LxeJfLJW5L7v06V0owMVMDyGNeXq9XBIzErXhxiHy05PF4is5diFi6Sqw9b+gy7ssrSEje/t/FvDwez+Ua7V8WRBaeKno9na29o7Ossrqj0yCfbyVNqopdm7jvQIHJbOnrHzhx6seg+Ytqauu8Xq/IohW/aVt7R6fNNnilviF2beInUbGzxry6TebM7P2Xa7T37rfcu9/S0Ni0LX2PPOTU2HRnQcSyfQcKWnV6k9ly89bdg4ePP3qT6EduooC9fbc5KiYuKiZOulqTTkGaF/bU2L1kxbq0XVktrTqT2dLQ2CTWa3M4ft+Z+VVUTNzrBNgms0X/uL2iSlN48szY2LjJbMk/UtjSqhsatvf1D1wsrYhYukoqUFGH5gcPwyKjxdLd4uxOny0Oi4zesWuvPAzqO5BVfCIf14oph29bbUXFeIvAXAhMm8+rvaPT7XbPet3idrvPXyiVP2G0ZMW6mto6t9s9a99i6elduS5JOnZeyMKMrBxrX79YmbekrFJ0bu0dnU+N3Q2NTXmHvhXLYih+0Wad5+X1et+2O5J/Ra+1LzYuseDYdzbbYP/AC2ktYKktRFDs0eN2u32kvaOzobEpM3t/YHC4/AFqX0nhsyFpq5S4UBQoj3md//lSWWW1pafXbh/R6du2pe8RQTRFaf9yOvd+nZuQnNr84OHQsP323ea4hC0im49vmeITRQnSufACAUngncS8Xr4c/e6HqWHb+o0p2voGjbZe3GL8gzEvkZl+QcSygKDQHbv2njxzLjN7/+r4zfrH7UPD9oysHDEg3JdXcLG0orikPH33l2eLS8bGXVd+vTYvZOGavyV3m59LZ6R4oTIUkfcA0+4m3+FS+eXXK/nU1l0dGrbr9G2p6ZlLV274gzGvdzI20Gjr8/KPNjQ2iRFLWWV1VEyc1AOoDI28Xq/NNpi4ZUdCcmrjzduWnt7b9+6X/lLlcrkmJl79/eCR+E3buozPbLbBUYdD0WmIA9N2ZXV0GsToMWLpKulOp2JnIU/MS/ETyFsEEEAAgbkW8MuYl8fjaWnVhS+OSU79QjwRo4h51V29HjR/kXQRJV4cKDgmhSomJyebHzxcvzFFvs+f/hyWm39USgDhdI4dPHw8ICh0d1bOtHMQ5G2jiHmJhFDSCly+8Zrx8fGi8xfCIqMDgkLFxWGrTp+QvF0kJ551aCUfZr1ZHclz596DpJS0wODwwODwpJS0Z92maWNet+40F5eUL1mxLiAodHX85lt3mqUJcda+/oysnNe3YcU1p6XHWnjyzKwxL7t9JDf/qDxJx7cnfpA/NCpWEUrfky3CjpHL1+QfKRx4YfM1kXuKGRnyoOG0+1t6rN/k5oeEfyoYpSc3nc6xny6WidOcF7Jwy/adV6/dEJfuuflHBbv4vFWnV7n9K/LRiqT+gcHhYrCuuNZVtIXv9BNFzOvNw5tvV225DK8RmCOBaddtFBds6tctbrf7p4tlSSlpV6/dENda9+63FJeUL4hY1tDYJBJXz9S3dJufJ6WkFZ4qkg68eevutvQ9n+3IcDh+V3Ru4i7F6bPF4iaE76+e76WUoi992+5I/hXiqjt2bWJAUOiW7Tt9/ygoAMMiozP2fqNYKGNayUvllwOCQhUPWctjXo03b6/fmCKyYkcuX/P96bNiiTrf0pzOsaJz//nLUlxSLlZtEz8z8jLFJ74lzNFPF8X6r4DIYb9+Y4o0OhLnIs2xEkm4Rl6O7s7KmSmf19jYuPGZKSF5uzToEvMfg+Yvkuewnymfl9frdTrHLpZWiCWJRCHhi2PE/bPnlh4R9pIKn5qlXv0Pl8tVpdEGBoeLvBYzNYGil5DvJu8Bpt1NvoN8XCfGVw//+Sgze/9M+Qff+digraNz6+e7xQhHjFiqNFp5DzDT0Eic8lTq21NF4vCwyOjzF0rFLHtrX3/6nuzA4PCQ8E/1b2L66xI/kwaHYuXug4ePi5HY6vjNbxbidIsyp+1hfDtquTmvEUAAAQQQeOcC/hHz8ng8/QMvDF1Gab0q18REt8nca+0TIZvJSU9f/8ATw9OhYbvH43n16tVvTwxVGm1ZRXVZZfWVX689t/T4rtLompjQ6dsqqjRlFdWa2nrF7HePx/Pc0qOpre80dEmBoXfeAO+twGmHa+/t2/kiBBD4UAUMXcZlq+J/ezI1t1T6J55QFiu0Sh8qXohHfeVPA4kd9G0dS1duEIF7xSG8RQCB9yzgdI49NXY/6zbJHyoUdXg5OmroMvb0WicnJ91ut6Wn19BlFAFZscOw3W7oMlr7+sUgyukc0+nbamrrNNqpEdeow/HU2C0Wh5UXJY6dmHhlMlu6jM/EojciAm4yWzTa+rKK6tfJ/gxdRmlpGpfL1arTV9bUarT1rTr9qMMhVaDu6vXmBw+lJAnic/5HAAEEEEAAgY9HwD9iXh9Pe8zdmRLzmjtbSkbgYxZo1ekXR69VhKhGHY7U9MyfS8pVZETadd+42PUbt8TStyrHsgkBBBBAAAEEEEAAAQQQmFWAmNesRB/IDsS8PpCG5DQQ+D8TGBq2b9r6+b4DBT29Vrt9xG4f6eg0pO3KStyyw2YbVK9sTW1d5PI1jU13xIE222DpL1WfRMXOlLdevTS2IoAAAggggAACCCCAAAJyAWJeco0P+TUxrw+5dTk3BP6nAta+/py8Q1IemdXxm88Wl0iPoqtUze2eWnJESlY1bQ4slcPZhAACCCCAAAIIIIAAAgioCBDzUsFhEwIIIIAAAggggAACCCCAAAIIIICAXwoQ8/LLZqPSCCCAAAIIIIAAAggggAACCCCAAAIqAsS8VHDYhAACCCCAAAIIIIAAAggggAACCCDglwLEvPyy2ag0AggggAACCCCAAAIIIIAAAggggICKADEvFRw2IYAAAggggAACCCCAAAIIIIAAAgj4pQAxL79sNiqNAAIIIIAAAggggAACCCCAAAIIIKAiQMxLBYdNCCCAAAIIIIAAAggggAACCCCAAAJ+KUDMyy+bjUojgAACCCCAAAIIIIAAAggggAACCKgIEPNSwWETAggggAACCCCAAAIIIIAAAggggIBfChDz8stmo9IIIIAAAggggAACCCCAAAIIIIAAAioCxLxUcNiEAAIIIIAAAggggAACCCCAAAIIIOCXAsS8/LLZqDQCCCCAAAIIIIAAAggggAACCCCAgIoAMS8VHDYhgAACCCCAAAIIIIAAAggggAACCPilADEvv2w2Ko0AAggggAACCCCAAAIIIIAAAgggoCJAzEsFh00IIIAAAggggAACCCCAAAIIIIAAAn4pQMzLL5uNSiOAAAIIIIAAAggggAACCCCAAAIIqAgQ81LBYRMCCCCAAAIIIIAAAggggAACCCCAgF8KEPPyy2aj0ggggAACCCCAAAIIIIAAAggggAACKgL/BvADsUc2dBbUAAAAAElFTkSuQmCC;" parent="1" vertex="1">
          <mxGeometry x="70" y="760" width="1513" height="286.32" as="geometry" />
        </mxCell>
      </root>
    </mxGraphModel>
  </diagram>
</mxfile>
